<svg height="89" viewBox="0 0 100 89" width="100" xmlns="http://www.w3.org/2000/svg" xmlns:xlink="http://www.w3.org/1999/xlink"><linearGradient id="a" x1="3.928469%" x2="100%" y1="10.395%" y2="89.605%"><stop offset="0" stop-color="#34e7a4"/><stop offset="1" stop-color="#0073ff"/></linearGradient><g fill="none" fill-rule="evenodd" transform="translate(-20 -791)"><rect fill="url(#a)" height="89" rx="8" width="100" x="20" y="791"/><g fill="#fff" transform="translate(50 816)"><path d="m28.588916 0h-17.977832c-5.85104982 0-10.611084 4.85717773-10.611084 10.8276367v18.3450317c0 5.9701539 4.76003418 10.8273316 10.611084 10.8273316h17.9781311c5.8507507 0 10.6107849-4.8571777 10.6107849-10.8273316v-18.3450317c0-5.97045897-4.7600342-10.8276367-10.611084-10.8276367zm-8.988916 30.9371948c-5.9102661 0-10.71845095-4.9063111-10.71845095-10.9371948 0-6.0308838 4.80818485-10.93719484 10.71845095-10.93719484s10.7184509 4.90631104 10.7184509 10.93719484c0 6.0308837-4.8081848 10.9371948-10.7184509 10.9371948zm10.9747559-19.2950439c-1.7465821 0-3.1671754-1.449585-3.1671754-3.23181152 0-1.78222657 1.4205933-3.23211672 3.1671754-3.23211672 1.746582 0 3.1674743 1.44989015 3.1674743 3.23211672 0 1.78222652-1.4208923 3.23181152-3.1674743 3.23181152z"/><path d="m19.6 12c-4.631561 0-8.4 3.7681407-8.4 8.4 0 4.631561 3.768439 8.4 8.4 8.4 4.6318593 0 8.4-3.768439 8.4-8.4 0-4.6318593-3.7681407-8.4-8.4-8.4z"/></g></g></svg>