<svg height="24" viewBox="0 0 24 24" width="24" xmlns="http://www.w3.org/2000/svg" xmlns:xlink="http://www.w3.org/1999/xlink"><linearGradient id="a" gradientUnits="objectBoundingBox" x1=".039" x2="1" y2="1"><stop offset="0" stop-color="#34e7a4"/><stop offset="1" stop-color="#0073ff"/></linearGradient><g fill="url(#a)"><path d="m12 24a12 12 0 0 1 -8.487-20.487 12 12 0 0 1 16.974 16.974 11.923 11.923 0 0 1 -8.487 3.513zm0-22.4a10.4 10.4 0 1 0 10.4 10.4 10.412 10.412 0 0 0 -10.4-10.4z"/><path d="m.814 0a.825.825 0 0 0 -.814.836v7.05a.825.825 0 0 0 .814.836.825.825 0 0 0 .814-.836v-7.05a.825.825 0 0 0 -.814-.836z" transform="translate(11.13 9.604)"/><path d="m1.686 0a1.686 1.686 0 1 0 1.686 1.686 1.688 1.688 0 0 0 -1.686-1.686z" transform="translate(10.314 5.767)"/></g></svg>