<svg height="89" viewBox="0 0 99 89" width="99" xmlns="http://www.w3.org/2000/svg" xmlns:xlink="http://www.w3.org/1999/xlink"><linearGradient id="a" x1="3.928469%" x2="100%" y1="9.590858%" y2="90.409142%"><stop offset="0" stop-color="#34e7a4"/><stop offset="1" stop-color="#0073ff"/></linearGradient><g fill="none" fill-rule="evenodd" transform="translate(-138 -791)"><rect fill="url(#a)" height="89" rx="8" width="99" x="138" y="791"/><path d="m38.4617451 28.1461026c-5.2449083-.8845129-7.6086725-6.3901026-7.7043019-6.6237949-.0073562-.0150769-.0122602-.0301539-.0220684-.0452308-.2672721-.5578461-.331025-1.0176923-.1839028-1.3669743.2868884-.6885129 1.3854012-1.0453334 2.1112043-1.2815385.2108752-.0678462.4094903-.1331795.5737768-.1985128.715995-.2889744 1.2260188-.6030769 1.5643999-.9573846.4021342-.4246667.4805994-.8317436.4756953-1.0955898-.0122602-.643282-.4928595-1.2162051-1.2603473-1.4951282-.2574639-.1080513-.5541604-.1658461-.853309-.1658461-.2035191 0-.5075718.027641-.7944602.1658461-.6130094.294-1.1622658.4548205-1.635509.4774359-.2501078-.0125641-.4266546-.0678461-.5419003-.1206154.0147122-.251282.0294244-.5101025.0465887-.7764615l.0073561-.1155898c.1691906-2.7213846.3776138-6.1061538-.5002156-8.11641021-.6007492-1.37702564-1.4074696-2.5605641-2.4005448-3.52046154-.8312407-.80410256-1.7973435-1.45743589-2.8713359-1.93989743-1.8660006-.84430769-3.6069472-.96994872-4.4798726-.96994872-.0367806 0-.0686571 0-.0980815 0-.2427517.00251282-.6375298.00753846-.6743103.00753846-.8704734 0-2.613872.12564103-4.4847767.96994872-1.0715404.48246154-2.0327391 1.13328205-2.8615278 1.93738461-.9881711.95989744-1.7924394 2.14092308-2.39073656 3.51292308-.87782944 2.00774359-.66940625 5.39251283-.5026677 8.11138463v.0050256c.01716427.2914872.03678057.5955385.05394483.8920513-.12750595.0577949-.33592914.1231282-.64243383.1231282-.49531158 0-1.08380059-.1608205-1.74830276-.4799487-.19616301-.0929744-.41929842-.140718-.66450217-.140718-.39477805 0-.81407646.1181026-1.17452598.336718-.45607898.2738974-.75032349.658359-.83124072 1.0880513-.05149279.2814359-.04904075.8417949.55906455 1.4096923.33592914.3115897.82633665.6005641 1.46141437.8568718.16673855.0678461.36535359.1306666.57377678.1985128.72580311.2362051 1.82676796.5930256 2.11365636 1.2815385.14467021.349282.08091723.8091282-.18635486 1.3669743-.00735611.0150769-.01471222.0301539-.0196163.0452308-.06865705.1608205-.69392662 1.6056923-1.97634225 3.1309744-.72825514.866923-1.53007142 1.5931282-2.38338048 2.156-1.04211595.6885128-2.16760117 1.1357948-3.34703123 1.3343076-.46343509.0778975-.79446016.5000513-.76748774.98.00735611.1382052.0392326.2764103.09562946.4095898v.0025128c.18880689.4497949.62281753.8292308 1.32900434 1.1634359.86311721.4095897 2.15288895.7538462 3.83743874 1.022718.08582131.1658461.17409466.5804615.2353956.8644102.06375298.3015385.12995799.6131282.22558745.9423077.10298558.3568205.36780563.784 1.0519241.784.25991598 0 .55661252-.0603077.90234982-.1281538.50511973-.1005129 1.19659431-.238718 2.05725948-.238718.4781473 0 .9734589.042718 1.4712225.1281539.9611987.1633333 1.7899874.7613846 2.7487341 1.454923 1.4025655 1.0151795 2.9914858 2.1635385 5.4190029 2.1635385.0662051 0 .1324101-.0025128.1986151-.0075385.0784652.0050257.1789987.0075385.2819843.0075385 2.4275171 0 4.0164375-1.148359 5.4190029-2.1610256.9611987-.6935385 1.7899874-1.2915898 2.7511861-1.4549231.4977637-.0854359.9930752-.1281539 1.4712226-.1281539.8238846 0 1.4761266.1080513 2.0572595.2236411.3800658.0753846.6743103.1130769.9023498.1130769h.0220683.0220683c.5002157 0 .8680213-.2814359 1.0077875-.7714359.0931774-.3241539.1593824-.6256923.2255874-.9347693.0563969-.2663589.1495743-.6935384.2329436-.8593846 1.6845498-.2713846 2.9743215-.6131282 3.8374387-1.0227179.7037348-.3342051 1.1377454-.713641 1.3265523-1.1609231.0563969-.1331795.0907254-.2713846.0980815-.4146154.0269724-.4749231-.3040526-.8995897-.7674877-.9749743z" fill="#fff" transform="translate(168 817)"/></g></svg>