<svg height="29.053" viewBox="0 0 21.128 29.053" width="21.128" xmlns="http://www.w3.org/2000/svg"><path d="m17.234 27.514a4.066 4.066 0 0 1 -5.746 0l-6.151-6.4a3.829 3.829 0 0 1 .274-5.536 3.577 3.577 0 0 1 4.7.149v-4.5a4.13 4.13 0 0 1 4.048-4.207 4.13 4.13 0 0 1 4.048 4.207v4.492a3.577 3.577 0 0 1 4.7-.149 3.829 3.829 0 0 1 .274 5.536z" fill="#fff" transform="matrix(-1 0 0 -1 24.924 36.076)"/><path d="m13.106 20.257a4.22 4.22 0 0 0 -4.206 4.207v-1.357a4.207 4.207 0 0 1 8.413 0v1.357a4.22 4.22 0 0 0 -4.207-4.207z" fill="#1be7b2" transform="matrix(-1 0 0 -1 23.67 47.952)"/><path d="m10.558 16.365a3.826 3.826 0 0 0 -4.885-.149 3.677 3.677 0 0 0 -1.357 2.239 3.732 3.732 0 0 1 1.357-3.6 3.826 3.826 0 0 1 4.885.145z" fill="#1be7b2" transform="matrix(-1 0 0 -1 24.934 35.362)"/><path d="m19.985 16.216a3.826 3.826 0 0 0 -4.885.149v-1.357a3.826 3.826 0 0 1 4.885-.149 3.732 3.732 0 0 1 1.357 3.6 3.677 3.677 0 0 0 -1.357-2.243z" fill="#1be7b2" transform="matrix(-1 0 0 -1 21.851 35.362)"/><g fill="#fff"><path d="m12.357 1a1.357 1.357 0 0 1 1.357 1.357v4.071a1.357 1.357 0 1 1 -2.714 0v-4.071a1.357 1.357 0 0 1 1.357-1.357z" transform="matrix(-1 0 0 -1 22.921 7.785)"/><path d="m9.128 4.327a1.357 1.357 0 0 1 0 1.927l-2.876 2.877a1.364 1.364 0 1 1 -1.927-1.931l2.875-2.873a1.357 1.357 0 0 1 1.927 0z" transform="matrix(-1 0 0 -1 25.052 13.501)"/><path d="m21.148 9.127a1.357 1.357 0 0 1 -1.927 0l-2.876-2.877a1.363 1.363 0 1 1 1.927-1.927l2.876 2.877a1.357 1.357 0 0 1 0 1.927z" transform="matrix(-1 0 0 -1 21.549 13.497)"/></g></svg>