<svg height="20" width="20" xmlns="http://www.w3.org/2000/svg" xmlns:xlink="http://www.w3.org/1999/xlink"><linearGradient id="a" gradientUnits="objectBoundingBox" x1=".5" x2=".5" y2="1"><stop offset="0" stop-color="#34e7a4"/><stop offset="1" stop-color="#0097ee"/></linearGradient><clipPath id="b"><path d="m0 0h20v20h-20z" transform="translate(66 766)"/></clipPath><g clip-path="url(#b)" fill="url(#a)" transform="translate(-66 -766)"><path d="m7.623 13.883-.234.052a.391.391 0 0 0 .085.772.4.4 0 0 0 .086-.009l.3-.067a3.647 3.647 0 0 0 .486.757l-.162.121a.391.391 0 0 0 .47.625l.258-.194a4.03 4.03 0 0 0 .629.409l-.059.333a.391.391 0 0 0 .317.453.4.4 0 0 0 .068.006.391.391 0 0 0 .385-.323l.03-.172a1.625 1.625 0 0 0 .38.048 1.03 1.03 0 0 0 .927-.5.963.963 0 0 0 -.2-1.213l-.068-.052.055-.051a.391.391 0 0 0 -.53-.574l-.276.255a1.273 1.273 0 0 1 -.627-.569l.272-.2a.391.391 0 0 0 -.47-.625l-.041.03a.986.986 0 0 0 -.59-.5 1.187 1.187 0 0 0 -1.2.275 1.1 1.1 0 0 0 -.287.914zm.848-.37a.409.409 0 0 1 .4-.076c.089.029.138.078.147.145a2.137 2.137 0 0 0 1.507 1.818 1.812 1.812 0 0 1 .365.186.182.182 0 0 1 .023.22c-.075.131-.306.144-.6.035a3.019 3.019 0 0 1 -1.849-1.793c-.052-.141-.119-.4.01-.532zm0 0" transform="translate(66 766)"/><path d="m9.771 10.119a.391.391 0 0 0 -.553.553l5.4 5.4a7.623 7.623 0 0 1 -10.685-10.688l3.1 3.074a.391.391 0 1 0 .548-.558l-3.4-3.379a.391.391 0 0 0 -.573.024 8.4 8.4 0 0 0 11.844 11.855.391.391 0 0 0 .023-.574zm0 0" transform="translate(66 766)"/><path d="m17.071 2.929a9.937 9.937 0 0 0 -7.055-2.929h-.033a10 10 0 0 0 -7.054 17.071 10 10 0 0 0 17.071-7.055v-.033a9.936 9.936 0 0 0 -2.929-7.054zm2.148 7.087a9.218 9.218 0 1 1 -9.235-9.234h.031a9.235 9.235 0 0 1 9.2 9.2zm0 0" transform="translate(66 766)"/><path d="m10 1.594a8.33 8.33 0 0 0 -5.114 1.734.391.391 0 0 0 -.038.587l8.194 8.193.007.008.945.945 2.09 2.09a.391.391 0 0 0 .276.115h.026a.391.391 0 0 0 .284-.152 8.33 8.33 0 0 0 1.736-5.114 8.415 8.415 0 0 0 -8.406-8.406zm3.9 10.261a2.5 2.5 0 0 0 .6-1.995v-.026a1.937 1.937 0 0 1 .015-.459.266.266 0 0 1 .278-.177c.206.016.35.262.387.659a3.86 3.86 0 0 1 -.08 1.243.4.4 0 0 0 -.016.064 3.373 3.373 0 0 1 -.615 1.259zm2.419 2.419-1.293-1.293a4.159 4.159 0 0 0 .682-1.2l.159.079a.391.391 0 1 0 .347-.7l-.3-.149a4.591 4.591 0 0 0 .066-.8h.22a.391.391 0 0 0 0-.782h-.305a1.2 1.2 0 0 0 -1.047-1.011 1.048 1.048 0 0 0 -1.1.767 1.5 1.5 0 0 0 -.039.273h-.242a.391.391 0 0 0 0 .782h.251a1.489 1.489 0 0 1 -.381 1.062l-7.612-7.616a7.549 7.549 0 0 1 4.275-1.31 7.633 7.633 0 0 1 7.624 7.624 7.549 7.549 0 0 1 -1.31 4.275zm0 0" transform="translate(66 766)"/><path d="m4.666 13.7a1.209 1.209 0 0 0 .276.032 1.2 1.2 0 1 0 -.276-.032zm-.132-1.261a.417.417 0 0 1 .405-.322.421.421 0 0 1 .1.011.417.417 0 1 1 -.5.311zm0 0" transform="translate(66 766)"/><path d="m5.633 8.7a1.2 1.2 0 1 0 .149.905 1.191 1.191 0 0 0 -.149-.905zm-.612.727a.418.418 0 1 1 -.052-.315.414.414 0 0 1 .052.315zm0 0" transform="translate(66 766)"/><path d="m9.942 4a1.2 1.2 0 1 0 .893 1.441 1.19 1.19 0 0 0 -.893-1.441zm.132 1.262a.418.418 0 1 1 -.311-.5.415.415 0 0 1 .311.5zm0 0" transform="translate(66 766)"/><path d="m12.895 5.3a1.143 1.143 0 1 0 -.522 2.225 1.147 1.147 0 0 0 .264.031 1.143 1.143 0 0 0 .258-2.256zm.09 1.194a.361.361 0 1 1 -.352-.443.367.367 0 0 1 .083.01.361.361 0 0 1 .225.162.357.357 0 0 1 .044.271zm0 0" transform="translate(66 766)"/><path d="m8.4 9.678a.391.391 0 0 0 .3-.635v-.005a.391.391 0 1 0 -.61.488v.006a.39.39 0 0 0 .31.146zm0 0" transform="translate(66 766)"/></g></svg>