<svg xmlns="http://www.w3.org/2000/svg" width="26" height="30" viewBox="0 0 26 30">
    <g data-name="Group 99">
        <g data-name="Group 96">
            <path data-name="Path 126" d="m282.82 22.976-1.778-3.347h1.058a.864.864 0 0 0 .849-.879v-6.132a6.221 6.221 0 0 0-3.294-5.529 4.15 4.15 0 0 0 1.263-3 3.956 3.956 0 1 0-7.907 0 4.15 4.15 0 0 0 1.268 3 6.222 6.222 0 0 0-3.285 5.524v6.137a.864.864 0 0 0 .849.879h.812l-1.578 3.431a.906.906 0 0 0 .049.847.843.843 0 0 0 .718.41h1.981v4.8a.864.864 0 0 0 .849.879h4.6a.864.864 0 0 0 .849-.879v-4.8h1.977a.864.864 0 0 0 .849-.879.9.9 0 0 0-.129-.462zm-5.86-21.218a2.3 2.3 0 0 1 2.256 2.335 2.257 2.257 0 1 1-4.512 0 2.3 2.3 0 0 1 2.256-2.335zm1.457 26.484h-2.9v-3.925h2.9zm-5.235-5.683 1.578-3.431a.906.906 0 0 0-.049-.847.842.842 0 0 0-.718-.41h-1.307v-5.253a4.283 4.283 0 1 1 8.56 0v5.254h-1.642a.844.844 0 0 0-.731.432.906.906 0 0 0-.013.871l1.8 3.385z" transform="translate(-256.947)" style="fill:#fff"/>
        </g>
        <g data-name="Group 97">
            <path data-name="Path 127" d="M38.4 7.089a4.149 4.149 0 0 0 1.263-3 3.956 3.956 0 1 0-7.907 0 4.149 4.149 0 0 0 1.268 3 6.222 6.222 0 0 0-3.285 5.524v8.476a.864.864 0 0 0 .849.879H32v7.148a.864.864 0 0 0 .849.879h5.716a.864.864 0 0 0 .849-.879v-7.143h1.429a.864.864 0 0 0 .849-.879v-8.476A6.221 6.221 0 0 0 38.4 7.089zm-2.693-5.331a2.3 2.3 0 0 1 2.256 2.335 2.257 2.257 0 1 1-4.511 0 2.3 2.3 0 0 1 2.256-2.335zm4.287 18.457h-1.429a.864.864 0 0 0-.849.879v7.148H33.7v-7.148a.864.864 0 0 0-.849-.879h-1.417v-7.6a4.4 4.4 0 0 1 3.431-4.343v3.282a.849.849 0 1 0 1.7 0v-3.28a4.4 4.4 0 0 1 3.431 4.343z" transform="translate(-29.736)" style="fill:#fff"/>
        </g>
        <g data-name="Group 98" transform="translate(19.089 9.966)">
            <circle data-name="Ellipse 11" cx=".849" cy=".849" r=".849" style="fill:#fff"/>
        </g>
    </g>
</svg>
