<svg height="22.079" viewBox="0 0 18 22.079" width="18" xmlns="http://www.w3.org/2000/svg"><path d="m15.634 0h.157a4.728 4.728 0 0 1 -1.191 3.563 3.691 3.691 0 0 1 -3.249 1.525 4.586 4.586 0 0 1 1.212-3.452 5.235 5.235 0 0 1 3.071-1.636z" transform="translate(-2.386)"/><path d="m20.1 16.374v.044a12.846 12.846 0 0 1 -1.838 3.544c-.7.965-1.56 2.263-3.094 2.263-1.325 0-2.206-.852-3.564-.875-1.437-.023-2.227.713-3.541.9h-.443a4 4 0 0 1 -2.31-1.592 13.947 13.947 0 0 1 -3.21-8.027v-.988a6.47 6.47 0 0 1 2.829-5.311 4.771 4.771 0 0 1 3.2-.742 8.058 8.058 0 0 1 1.57.45 4.334 4.334 0 0 0 1.569.47 3.766 3.766 0 0 0 1.1-.336 6.771 6.771 0 0 1 3.541-.628 4.912 4.912 0 0 1 3.612 2.154 4.632 4.632 0 0 0 -2.353 4.6 4.744 4.744 0 0 0 2.932 4.074z" transform="translate(-2.104 -.167)"/></svg>