<svg height="22" viewBox="0 0 20 22" width="20" xmlns="http://www.w3.org/2000/svg" xmlns:xlink="http://www.w3.org/1999/xlink"><linearGradient id="a" gradientUnits="objectBoundingBox" x1=".039" x2="1" y2="1"><stop offset="0" stop-color="#34e7a4"/><stop offset="1" stop-color="#0073ff"/></linearGradient><g fill="url(#a)"><path d="m5.151 12.537h-.156a4.488 4.488 0 0 1 -3.426-1.47c-1.863-2.078-1.569-5.62-1.529-6.017a4.913 4.913 0 0 1 2.39-4.39 5.461 5.461 0 0 1 2.619-.66h.083a5.44 5.44 0 0 1 2.618.68 4.9 4.9 0 0 1 2.361 4.37c.04.4.334 3.939-1.528 6.017a4.51 4.51 0 0 1 -3.432 1.47zm-.107-11.231c-1.059 0-3.538.373-3.7 3.826a.078.078 0 0 1 0 .014.12.12 0 0 0 0 .024c0 .032-.339 3.316 1.207 5.035a3.191 3.191 0 0 0 2.5 1.031h.049a3.212 3.212 0 0 0 2.5-1.031c1.554-1.732 1.207-5 1.2-5.035a.1.1 0 0 1 0-.039c-.15-3.261-2.381-3.796-3.7-3.825z" transform="translate(4.775)"/><path d="m20 5.975v-.134c-.029-.951-.093-3.176-2.206-3.887l-.049-.014a14.131 14.131 0 0 1 -4.045-1.817.662.662 0 0 0 -.915.159.643.643 0 0 0 .161.9 15.253 15.253 0 0 0 4.445 2c1.134.4 1.261 1.6 1.3 2.691a.952.952 0 0 0 0 .12 8.608 8.608 0 0 1 -.1 1.485 18.107 18.107 0 0 1 -8.591 1.976 18.211 18.211 0 0 1 -8.587-1.975 8.15 8.15 0 0 1 -.1-1.485v-.12c.034-1.1.161-2.292 1.3-2.691a15.4 15.4 0 0 0 4.445-2 .643.643 0 0 0 .161-.9.662.662 0 0 0 -.919-.165 13.976 13.976 0 0 1 -4.039 1.816l-.049.014c-2.112.717-2.177 2.941-2.206 3.888a.952.952 0 0 1 0 .12v.014a7.275 7.275 0 0 0 .244 2.177.618.618 0 0 0 .253.3 18.6 18.6 0 0 0 9.5 2.3 18.657 18.657 0 0 0 9.5-2.3.645.645 0 0 0 .253-.3 7.632 7.632 0 0 0 .244-2.172z" transform="translate(0 11.253)"/></g></svg>