<svg height="23" viewBox="0 0 20 23" width="20" xmlns="http://www.w3.org/2000/svg"><path d="m16.8888891 11.7466456v-2.1388331c0-3.12017063-2.0627048-5.76473219-4.8888739-6.62849688v-.96837812c0-1.10883094-.8971972-2.0109375-1.9999939-2.0109375-1.1027966 0-1.99999386.90210656-1.99999386 2.0109375v.96837812c-2.82621358.86376469-4.88887393 3.50828157-4.88887393 6.62849688v2.1388331c0 2.7407738-1.03901905 5.33962-2.9256355 7.3178463-.18488832.1938544-.23684372.479899-.13204404.7269315s.34613227.4073266.61324257.4073266h6.06704811c.30968794 1.527955 1.65652826 2.68125 3.26625665 2.68125 1.6097729 0 2.9565243-1.153295 3.2662567-2.68125h6.0670481c.2671103 0 .5083985-.1602941.6131981-.4073266.1047997-.2470325.0528443-.5330772-.1319996-.7269315-1.8866164-1.9782263-2.9256355-4.5771172-2.9256355-7.3178463zm-7.5555324-9.7357081c0-.36961031.29906575-.6703125.6666646-.6703125.3675989 0 .6666647.30070219.6666647.6703125v.702845c-.2194216-.02127125-.4417765-.0325325-.6666647-.0325325-.22488818 0-.44724305.01126125-.6666646.0325325zm.6666646 19.5284375c-.86910843 0-1.61012838-.5604259-1.88532754-1.340625h3.77065514c-.2751992.7801991-1.0162191 1.340625-1.8853276 1.340625zm-7.89642027-2.68125c1.51826202-2.04633 2.34088173-4.5227325 2.34088173-7.1114794v-2.1388331c0-3.08008594 2.4922146-5.5859375 5.55553854-5.5859375 3.063324 0 5.5555386 2.50585156 5.5555386 5.5859375v2.1388331c0 2.5887469.8226197 5.0651494 2.3409262 7.1114794z" fill="#fff"/></svg>