<svg height="34.98" viewBox="0 0 29.635 34.98" width="29.635" xmlns="http://www.w3.org/2000/svg" xmlns:xlink="http://www.w3.org/1999/xlink"><clipPath id="a"><path d="m0 0h29.635v34.98h-29.635z" transform="translate(0 .073)"/></clipPath><path d="m0 0h29.635v34.98h-29.635z" fill="none"/><g clip-path="url(#a)" transform="translate(0 -.073)"><path d="m24.528 34.979h-19.417a.667.667 0 0 1 -.357-.674 10.016 10.016 0 0 1 2.534-6.505.658.658 0 0 1 .476-.266.481.481 0 0 1 .323.134c.241.214.228.51-.035.811a9.054 9.054 0 0 0 -2.226 5.037c-.01.089-.016.178-.022.272 0 .048-.007.1-.01.148h2.365l.026-.556c.019-.408.038-.827.065-1.238.034-.522.081-1.078.15-1.8a.536.536 0 0 1 .513-.532h.039a.511.511 0 0 1 .466.6c-.04.668-.086 1.347-.13 2l-.076 1.167v.357h11.238l-.034-.662c-.027-.542-.055-1.1-.09-1.648-.012-.2-.033-.4-.054-.6a17.561 17.561 0 0 1 -.049-.524.728.728 0 0 1 .135-.542.462.462 0 0 1 .336-.152h.032c.3 0 .493.241.52.644.052.788.1 1.587.15 2.361l.059.944c0 .042.007.084.012.133v.047h2.333a8.8 8.8 0 0 0 -5.5-7.779c-.886 1.751-1.958 2.533-3.475 2.534-1.915 0-2.855-1.314-3.523-2.6l-.488.284c-.4.235-.786.457-1.171.69a.73.73 0 0 1 -.374.127.485.485 0 0 1 -.317-.124.475.475 0 0 1 -.177-.39.558.558 0 0 1 .25-.427c.255-.179.514-.34.789-.512l.345-.216c-.14-.074-.283-.148-.421-.218-.305-.157-.619-.318-.917-.494a11.907 11.907 0 0 1 -5.37-6.61l-.014-.043c-.045-.139-.083-.258-.3-.281a3.351 3.351 0 0 1 -3.137-3.312 3.415 3.415 0 0 1 3.2-3.388v-1.108c0-.93 0-1.889-.008-2.834a.691.691 0 0 0 -.152-.415 1.2 1.2 0 0 1 -.14-1.454 6.765 6.765 0 0 1 2-2.165 15.965 15.965 0 0 1 1.934-1.21 3.253 3.253 0 0 1 1.5-.345 4.715 4.715 0 0 1 .834.079.319.319 0 0 0 .056 0 .313.313 0 0 0 .227-.078 3.633 3.633 0 0 1 2.515-1.421 18.872 18.872 0 0 1 2.871-.225 17.167 17.167 0 0 1 8.411 2.209 10.2 10.2 0 0 1 3.424 2.983 1.165 1.165 0 0 1 -.131 1.731.379.379 0 0 0 -.1.234v3.859a.192.192 0 0 0 .016.064c0 .012.009.025.013.038a3.336 3.336 0 0 1 2.842 1.949 3.288 3.288 0 0 1 -.124 3.079 3.327 3.327 0 0 1 -2.632 1.673.315.315 0 0 0 -.329.256 11.942 11.942 0 0 1 -6.588 7.347 1.433 1.433 0 0 0 -.107.056l-.081.044.145.083c.1.056.191.109.28.165a10.635 10.635 0 0 1 3.624 3.59 10.433 10.433 0 0 1 1.381 4.911.67.67 0 0 1 -.354.709zm-11.958-8.753a2.531 2.531 0 0 0 2.065 1.441c.066 0 .132.007.2.007a2.537 2.537 0 0 0 2.241-1.448 12.091 12.091 0 0 1 -4.5 0zm-1.221-18.646a.641.641 0 0 0 -.129.015 3.186 3.186 0 0 0 -1.65.905c-.219.222-.445.444-.664.659-.373.367-.759.745-1.12 1.134a5.446 5.446 0 0 1 -3.449 1.834c-.195.023-.242.117-.26.283-.058.51-.121 1.011-.182 1.5v.017l-.06.48c.02.205.037.4.054.595.034.4.067.776.123 1.147a10.939 10.939 0 1 0 21.6-3.484c-.085-.5-.085-.5-.583-.5h-2.289a22.858 22.858 0 0 1 -4.622-.418 10.032 10.032 0 0 1 -6.462-3.991.358.358 0 0 0 -.307-.176zm-8.285 4.667a2.312 2.312 0 0 0 -1.536.86 2.289 2.289 0 0 0 1.426 3.687 1.2 1.2 0 0 0 .122-.006 11.986 11.986 0 0 1 -.012-4.541zm23.5-.042a12.037 12.037 0 0 1 0 4.576 2.335 2.335 0 0 0 2.042-2.4 2.257 2.257 0 0 0 -2.041-2.181zm-15.942-7.934c.209 0 .363.118.5.383.106.206.21.418.31.624a14.748 14.748 0 0 0 .853 1.575 9.245 9.245 0 0 0 6.663 4.011 27.066 27.066 0 0 0 4.411.275h1.93a.217.217 0 0 0 .067-.016l.06-.019v-4.331c0-.372.126-.564.428-.644a.226.226 0 0 0 .091-.065.701.701 0 0 1 .055-.05c-.027-.04-.051-.081-.075-.12a1.1 1.1 0 0 0 -.161-.225 23.13 23.13 0 0 1 -.558-.573 9.569 9.569 0 0 0 -1.396-1.277 15.21 15.21 0 0 0 -8.877-2.791 18.876 18.876 0 0 0 -2.986.247 2.483 2.483 0 0 0 -1.53.826.5.5 0 0 0 -.125.581.485.485 0 0 1 -.29.67.525.525 0 0 1 -.185.036.585.585 0 0 1 -.483-.348.653.653 0 0 0 -.355-.3 3.018 3.018 0 0 0 -.656-.075 2.423 2.423 0 0 0 -1.348.4 22.133 22.133 0 0 0 -2.151 1.56 4.881 4.881 0 0 0 -.776.91c-.07.1-.143.2-.216.3a.31.31 0 0 0 -.006.213c.012.044.027.072.043.079a.638.638 0 0 1 .365.7v4.273a3.984 3.984 0 0 0 2.452-1.16l.1-.1c.553-.54 1.124-1.093 1.663-1.662a4.709 4.709 0 0 1 2.479-1.562l-.22-.459c-.187-.389-.364-.756-.533-1.134a.567.567 0 0 1 0-.5.478.478 0 0 1 .347-.245.642.642 0 0 1 .11-.007z" fill="#676767" transform="translate(0 .073)"/></g><g fill="#676767"><path d="m1.752 1.579a2.062 2.062 0 0 1 -1.58-.694.521.521 0 0 1 -.025-.748.5.5 0 0 1 .708.024 1.136 1.136 0 0 0 1.768 0 .5.5 0 0 1 .708-.022.526.526 0 0 1 -.03.75 2.062 2.062 0 0 1 -1.549.69" transform="translate(13.263 16.032)"/><path d="m.941.939a5.118 5.118 0 0 1 0 .528.435.435 0 0 1 -.445.428.415.415 0 0 1 -.474-.395 6.538 6.538 0 0 1 0-1.118.416.416 0 0 1 .484-.382.442.442 0 0 1 .435.444c.013.164 0 .33 0 .5z" transform="translate(9.474 15.085)"/><path d="m.006.951a5.067 5.067 0 0 1 0-.528.438.438 0 0 1 .456-.423.41.41 0 0 1 .46.371 6.531 6.531 0 0 1 0 1.149.412.412 0 0 1 -.487.372.432.432 0 0 1 -.425-.414 4.992 4.992 0 0 1 0-.528" transform="translate(19.579 15.085)"/></g></svg>