<svg height="40" viewBox="0 0 40 40" width="40" xmlns="http://www.w3.org/2000/svg" xmlns:xlink="http://www.w3.org/1999/xlink"><clipPath id="a"><path d="m0 0h40v40h-40z"/></clipPath><path d="m0 0h40v40h-40z" fill="none"/><g clip-path="url(#a)"><path d="m.859 40h-.859v-.86c.045-.054.088-.109.132-.164a3.818 3.818 0 0 1 .292-.342c3.342-3.347 6.9-6.908 10.413-10.409a.505.505 0 0 0 .143-.631 1.9 1.9 0 0 1 .5-2.078c.389-.395.788-.793 1.174-1.178.5-.5 1.022-1.02 1.525-1.535a.631.631 0 0 0 .175-.463 2.875 2.875 0 0 1 .925-2.685c.085-.082.172-.158.272-.246l.17-.15-.131-.139c-.075-.08-.14-.15-.209-.218l-1.991-1.989c-1.584-1.583-3.222-3.22-4.83-4.835a3.57 3.57 0 0 1 -.429-4.817 4.2 4.2 0 0 1 .389-.437c1.38-1.386 2.666-2.669 3.921-3.924a.889.889 0 0 1 .6-.333.891.891 0 0 1 .6.334c2.267 2.266 4.562 4.561 6.82 6.822a2.266 2.266 0 0 1 .181.216l.065.083c.2-.107.392-.215.578-.32.407-.228.79-.444 1.192-.623a6.18 6.18 0 0 1 2.509-.479.7.7 0 0 0 .45-.149c1.106-1.09 2.22-2.207 3.3-3.287l.794-.8a.346.346 0 0 0 .045-.066l.043-.07-.305-.291a29.743 29.743 0 0 1 -.7-.679.657.657 0 0 1 0-1.056c.587-.602 1.187-1.202 1.777-1.783l.095-.094a.888.888 0 0 1 .6-.325.9.9 0 0 1 .6.33c1.853 1.85 3.715 3.717 5.525 5.523l.736.735.021.021 1.7 1.7c.442.445.444.759.006 1.2-.621.626-1.234 1.239-1.823 1.823a.7.7 0 0 1 -1.169 0c-.205-.206-.408-.42-.622-.648l-.359-.379c-.1.111-.2.219-.29.324-.19.214-.37.416-.559.608-.475.479-.959.963-1.427 1.431-.591.591-1.2 1.2-1.8 1.806a.7.7 0 0 0 -.225.419 6.764 6.764 0 0 1 -1.535 4.407c.042.024.087.046.131.068a1.012 1.012 0 0 1 .272.17c2.1 2.091 4.227 4.22 6.285 6.279l.484.484c.272.272.389.469.389.657s-.115.383-.385.653l-3.728 3.728a3.6 3.6 0 0 1 -5.506-.013 5910.893 5910.893 0 0 1 -6.709-6.712 1.882 1.882 0 0 1 -.182-.229 9.577 9.577 0 0 0 -.124-.168l-.231.254c-.139.155-.258.288-.388.41a2.743 2.743 0 0 1 -1.914.8 3.012 3.012 0 0 1 -.523-.047.777.777 0 0 0 -.132-.012.592.592 0 0 0 -.447.216 221.57 221.57 0 0 1 -1.526 1.533c-.35.35-.712.71-1.065 1.066a2.091 2.091 0 0 1 -1.493.7 2.158 2.158 0 0 1 -.818-.173.384.384 0 0 0 -.146-.033.338.338 0 0 0 -.252.152 1.43 1.43 0 0 1 -.053.057l-4.3 4.293-.012.012-.719.719-.978.978-.011.011c-1.441 1.441-2.931 2.931-4.4 4.393a4.634 4.634 0 0 1 -.357.31 8.111 8.111 0 0 0 -.172.142zm22.88-18.49a.348.348 0 0 0 -.225.071c-.464.451-.931.92-1.383 1.373l-.39.391.059.073a1.067 1.067 0 0 0 .087.1l1.765 1.767c1.734 1.737 3.527 3.534 5.3 5.294a2.293 2.293 0 0 0 1.608.7 2.344 2.344 0 0 0 1.637-.713c.855-.843 1.715-1.707 2.547-2.542l.876-.879a1.093 1.093 0 0 0 .108-.134l.042-.056-3.1-3.1-3.67-3.675-.044.025a.8.8 0 0 0 -.094.058 6.43 6.43 0 0 1 -3.923 1.344 7.3 7.3 0 0 1 -1.142-.093.359.359 0 0 0 -.058-.004zm-8.661 2.29-.537.537c-.7.7-1.362 1.362-2.037 2.041-.41.413-.416.742-.023 1.136a.8.8 0 0 0 .556.287.86.86 0 0 0 .585-.3c.658-.652 1.323-1.319 1.967-1.965l.456-.458a.8.8 0 0 0 .092-.119.822.822 0 0 1 .04-.057l-.3-.3-.8-.8zm3.89-5.98-.9.912c-.7.7-1.358 1.366-2.015 2.053a1.453 1.453 0 0 0 .048 2.07c.367.378.71.72 1.048 1.048a1.573 1.573 0 0 0 1.084.441 1.383 1.383 0 0 0 .966-.381c.714-.686 1.419-1.4 2.1-2.1l.79-.8c.008-.008.006-.026 0-.048a.394.394 0 0 1 0-.04 6.643 6.643 0 0 1 -3.122-3.16zm5.921-7.88a5.153 5.153 0 0 0 -.047 10.306h.017a5.153 5.153 0 0 0 .031-10.31zm-11.889-5.695-.061.056a5.977 5.977 0 0 0 -.191.181q-1.577 1.572-3.148 3.145a2.585 2.585 0 0 0 -.882 1.8 2.592 2.592 0 0 0 .882 1.808q2.67 2.665 5.339 5.335l.048.048 1.349 1.349c.062.062.126.121.194.183l.121.113.438-.439c.449-.449.872-.873 1.293-1.312a.517.517 0 0 0 .085-.34c0-.243 0-.49-.007-.73a10.624 10.624 0 0 1 .04-1.442 5.93 5.93 0 0 1 1.3-2.96l-6.8-6.8zm17.61 1.089-.5.493-3.11 3.102a6.548 6.548 0 0 1 4.088 4.112l3.174-3.177.447-.447-2.859-2.847zm.415-3.65-.08.08-.014.015-.889.9.257.258 6.977 6.989.829-.783.189-.178-4.842-4.852-2.428-2.429z" fill="#1b69c7"/></g><g fill="#56cb8f"><path d="m.617 0a2.71 2.71 0 0 1 .557.309q1.642 1.591 3.262 3.21a.645.645 0 0 1 .048.959.676.676 0 0 1 -.977-.025q-1.651-1.611-3.285-3.24a.573.573 0 0 1 -.14-.738 2.619 2.619 0 0 1 .535-.475" transform="translate(26.67 23.309)"/><path d="m4.675 4.056a2.434 2.434 0 0 1 -.448.53.576.576 0 0 1 -.743-.119c-.316-.306-.623-.622-.932-.934-.766-.773-1.533-1.542-2.294-2.32a.679.679 0 0 1 .042-1.1.613.613 0 0 1 .814.092q1.66 1.662 3.3 3.341a2.19 2.19 0 0 1 .258.509" transform="translate(11.969 8.682)"/><path d="m3.557 7.143h-.015a3.558 3.558 0 0 1 -3.542-3.586 3.572 3.572 0 0 1 3.564-3.557h.015a3.585 3.585 0 0 1 3.564 3.574 3.567 3.567 0 0 1 -3.586 3.569zm.008-5.81a2.235 2.235 0 0 0 -2.237 2.249 2.247 2.247 0 0 0 2.246 2.233h.02a2.24 2.24 0 0 0 -.014-4.48h-.016z" transform="translate(21.339 11.56)"/><path d="m2.03 0c.158.117.4.212.49.387a.735.735 0 0 1 .008.64 17.578 17.578 0 0 1 -1.528 1.573.549.549 0 0 1 -.794-.1.576.576 0 0 1 -.072-.81c.466-.528.977-1.019 1.48-1.512a1.483 1.483 0 0 1 .416-.178" transform="translate(17.301 19.908)"/></g></svg>