<svg height="22" viewBox="0 0 30 22" width="30" xmlns="http://www.w3.org/2000/svg" xmlns:xlink="http://www.w3.org/1999/xlink"><linearGradient id="a" gradientUnits="objectBoundingBox" x1=".039" x2="1" y2="1"><stop offset="0" stop-color="#34e7a4"/><stop offset="1" stop-color="#0073ff"/></linearGradient><clipPath id="b"><path d="m0 0h30v22h-30z"/></clipPath><path d="m0 0h30v22h-30z" fill="none"/><g clip-path="url(#b)"><path d="m0 11.626a.6.6 0 0 1 .633-.342c1.357.007 2.715 0 4.073 0h.356c-.132-.278-.254-.5-.347-.737a8.206 8.206 0 0 1 .918-8.31 5.124 5.124 0 0 1 8.18-.387c.4.453.781.933 1.192 1.426l.89-1.092a5.423 5.423 0 0 1 3.718-2.148 5.083 5.083 0 0 1 4.333 1.7 7.309 7.309 0 0 1 1.737 3.157c.094.334.007.589-.235.681-.263.1-.493-.033-.595-.387a6.749 6.749 0 0 0 -1.486-2.741 4.263 4.263 0 0 0 -6.53.049c-.476.54-.921 1.112-1.379 1.67-.341.416-.568.412-.913 0a22.728 22.728 0 0 0 -1.638-1.924 4.257 4.257 0 0 0 -6.552.527 7.394 7.394 0 0 0 -.343 8.31.4.4 0 0 0 .384.213c.723-.01 1.446.005 2.168-.013a.491.491 0 0 0 .346-.2c.465-.711.91-1.438 1.364-2.159.321-.509.676-.477.929.083q1.072 2.373 2.142 4.748c.042.093.086.185.165.356.136-.633.258-1.191.376-1.751q.614-2.893 1.223-5.787c.056-.269.15-.49.431-.511s.4.19.495.443q.886 2.476 1.781 4.949c.042.116.087.231.147.389.334-.732.65-1.426.968-2.12.265-.579.607-.6.95-.065.3.475.6.957.917 1.421a.5.5 0 0 0 .345.2q1.245.026 2.49 0a.5.5 0 0 0 .349-.2 6.918 6.918 0 0 0 1.088-3.107c.029-.248.1-.449.356-.512.32-.079.566.2.519.593a8.354 8.354 0 0 1 -.883 2.971c-.037.069-.063.145-.116.268h4.42c.422 0 .635.162.634.47s-.218.473-.637.473h-4.805a.563.563 0 0 0 -.475.229c-.773.9-1.54 1.812-2.343 2.682-1.994 2.159-4.006 4.3-6.011 6.446-.519.556-.933.556-1.453 0l-4.667-5a2.723 2.723 0 0 1 -.182-.2.494.494 0 0 1 0-.652.41.41 0 0 1 .607-.01 2.335 2.335 0 0 1 .191.195q2.261 2.421 4.52 4.844c.076.081.136.179.231.306 2.711-2.949 5.454-5.784 8.093-8.73l-.052-.1h-.657c-.5 0-1-.006-1.494 0a.666.666 0 0 1 -.636-.358c-.231-.388-.482-.761-.746-1.174-.054.1-.1.169-.136.246q-.458 1-.912 2c-.115.253-.205.553-.536.541s-.4-.311-.5-.577q-.789-2.2-1.581-4.392c-.035-.1-.074-.191-.143-.369-.158.742-.3 1.4-.439 2.064q-.56 2.648-1.118 5.3c-.054.257-.16.463-.423.49s-.384-.15-.485-.375q-1.18-2.636-2.367-5.264c-.05-.11-.1-.219-.181-.382l-.491.779c-.2.321-.428.629-.6.967a.837.837 0 0 1 -.89.5c-.467-.027-.937-.006-1.406-.006h-.376c.31.376.557.69.82.99.247.283.513.547.765.824a.528.528 0 0 1 .079.747c-.191.208-.455.193-.693-.078q-.985-1.12-1.948-2.261a.557.557 0 0 0 -.476-.226c-1.582.008-3.164 0-4.747.008a.756.756 0 0 1 -.7-.294z" fill="url(#a)"/></g></svg>