<svg width="18" height="18" viewBox="0 0 18 18" xmlns="http://www.w3.org/2000/svg">
    <defs>
        <linearGradient x1="3.928%" y1="0%" x2="100%" y2="100%" id="159r77z1za">
            <stop stop-color="#34E7A4" offset="0%"/>
            <stop stop-color="#0073FF" offset="100%"/>
        </linearGradient>
    </defs>
    <g fill="none" fill-rule="evenodd">
        <path d="M9 0a9 9 0 1 1 0 18A9 9 0 0 1 9 0z" fill="url(#159r77z1za)"/>
        <path d="M7.726 11.85a.652.652 0 0 1-.477-.21L4.864 9.1a.752.752 0 0 1 0-1.016c.264-.28.69-.28.954 0l1.908 2.032 4.293-4.572c.263-.28.69-.28.954 0a.752.752 0 0 1 0 1.016l-4.77 5.08a.652.652 0 0 1-.477.21z" fill="#FDFDFD" fill-rule="nonzero"/>
    </g>
</svg>
