<svg height="39" viewBox="0 0 39 39" width="39" xmlns="http://www.w3.org/2000/svg" xmlns:xlink="http://www.w3.org/1999/xlink"><linearGradient id="a" x1="3.928469%" x2="100%" y1="0%" y2="100%"><stop offset="0" stop-color="#34e7a4"/><stop offset="1" stop-color="#0073ff"/></linearGradient><g fill="none" fill-rule="evenodd" transform="translate(-301 -622)"><circle cx="320.5" cy="641.5" fill="url(#a)" r="19.5"/><g fill="#fff" transform="translate(311 632)"><path d="m15.541168 12.5434243c-.4029529-.4177006-.888989-.6410256-1.4041041-.6410256-.5109609 0-1.0011511.2191894-1.4207207.63689l-1.3127128 1.3027295c-.108008-.0578991-.216016-.1116625-.3198698-.165426-.1495496-.0744417-.2907908-.1447477-.4112613-.2191894-1.22962965-.7775021-2.34709713-1.7907361-3.41886892-3.101737-.51926928-.65343255-.86821823-1.20347391-1.12162164-1.76178656.34064065-.3101737.65635637-.63275434.96376378-.94292804.11631632-.11579818.23263264-.23573201.34894895-.35153019.87237239-.86848635.87237239-1.99338296 0-2.86186931l-1.1340841-1.12903226c-.12877878-.12820513-.26171171-.26054591-.38633634-.39288669-.24924925-.25641025-.51096097-.52109181-.78098099-.76923076-.40295296-.39702234-.88483485-.60794045-1.39164167-.60794045-.50680681 0-.99699701.21091811-1.41241243.60794045-.00415416.00413564-.00415416.00413564-.00830831.00827129l-1.41241243 1.41852771c-.53173174.52936311-.834985 1.1745244-.90145147 1.92307693-.0996997 1.20760959.25755756 2.3325062.53173174 3.06865177.67297298 1.80727871 1.6782783 3.48221671 3.17792798 5.27708851 1.81951955 2.1629446 4.00875882 3.8709677 6.50955965 5.0744417.9554555.4507858 2.2307808.9842845 3.6556557 1.0752688.0872373.0041357.1786287.0082713.2617117.0082713.9596097 0 1.7655156-.3432589 2.396947-1.025641.0041542-.0082713.0124625-.012407.0166166-.0206783.2160161-.2605459.4652653-.4962779.726977-.7485525.1786287-.1695616.3614114-.3473945.5400401-.5334988.4112612-.4259718.6272773-.9222497.6272773-1.4309346 0-.5128205-.2201702-1.0049628-.6397398-1.4185277zm1.4871873 4.3548387c-.0041542 0-.0041542.0041357 0 0-.1620121.1736973-.3281782.330852-.5068069.5045492-.27002.2564103-.5441942.5252275-.8017517.8271299-.4195696.4466501-.913914.6575682-1.561962.6575682-.0623123 0-.1287788 0-.1910911-.0041356-1.2337838-.0785773-2.3803304-.5583127-3.2402403-.9677419-2.35125128-1.133168-4.41586593-2.7419355-6.13153162-4.7808106-1.41656659-1.6997519-2.36371375-3.27129863-2.99099104-4.95864354-.38633634-1.02977667-.52757758-1.83209264-.46526527-2.58891646.04154154-.48387097.22847848-.88502895.57327328-1.22828784l1.41656659-1.41025641c.20355356-.19023987.41956958-.2936311.63143144-.2936311.26171172 0 .47357358.15715467.60650652.28949545.00415415.00413565.00830831.0082713.01246246.01240695.25340341.23573201.49434435.47973532.74774776.74028122.12877878.13234078.26171172.26468156.39464465.40115798l1.1340841 1.12903226c.44034035.43837883.44034035.84367246 0 1.28205128-.12047047.11993383-.23678679.23986766-.35725726.35566584-.34894896.35566584-.68128129.68651779-1.04269271 1.00909843-.00830831.0082713-.01661662.01240695-.02077077.02067825-.35725726.35566584-.2907908.70306038-.21601602.93879239.00415415.01240695.00830831.02481389.01246246.03722084.29494495.71133168.71036037 1.38130686 1.34179181 2.17948716l.00415416.0041357c1.14654656 1.4061207 2.35540544 2.5020678 3.68888896 3.3416046.1703203.1075269.3447948.1943755.510961.2770885.1495495.0744417.2907907.1447477.4112612.2191894.0166166.0082713.0332333.0206783.0498499.0289496.1412412.070306.2741742.1033912.4112612.1033912.3447948 0 .5608109-.2150538.6314315-.2853598l1.4207207-1.4143921c.1412413-.140612.3655656-.3101737.6272773-.3101737.2575576 0 .4694194.1612904.5981982.3019024.0041542.0041357.0041542.0041357.0083083.0082713l2.288939 2.2787428c.4278779.4218362.4278779.8560794.0041542 1.2944582z"/><path d="m10.4788961 5.00040296c1.1291235.18963989 2.1548157.72407957 2.9736457 1.54297909.81883.81889951 1.3489147 1.84467891 1.5428481 2.97389824.047406.28445983.2930549.48271971.573181.48271971.034477 0 .0646445-.00431.0991215-.00861999.3189128-.05171997.5300847-.3534198.4783691-.67235961-.2327201-1.36626919-.8791648-2.61185845-1.8660704-3.59884786-.9869056-.98698942-2.2323891-1.63348904-3.5985423-1.8662289-.3189128-.05171997-.6162773.15946991-.6723025.47409972-.05602524.31462981.1508371.62063963.4697498.6723596z"/><path d="m19.9915445 8.58964603c-.3656377-2.14529689-1.3762769-4.09743485-2.9292102-5.6509257-1.5529334-1.55349084-3.5043708-2.56449282-5.6488977-2.93026183-.2999052-.05342693-.5833771.15206128-.6367849.45207406-.0492995.30412255.1520067.58769627.4560201.6411232 1.9144628.32467137 3.6604858 1.23292925 5.0490875 2.61791976 1.3886018 1.38910028 2.2924254 3.13575004 2.6169803 5.05090013.0451912.27124443.2793637.46029358.5464025.46029358.0328663 0 .0616243-.00410976.0944906-.00821953.2999051-.0452074.5053196-.33289089.4519118-.63290367z"/></g></g></svg>