<svg xmlns="http://www.w3.org/2000/svg" width="24" height="24" viewBox="0 0 24 24">
    <defs>
        <linearGradient id="zoq7jv90wa" x1=".039" x2="1" y2="1" gradientUnits="objectBoundingBox">
            <stop offset="0" stop-color="#34e7a4"/>
            <stop offset="1" stop-color="#0073ff"/>
        </linearGradient>
    </defs>
    <path d="M12 24a12 12 0 1 1 12-12 12.014 12.014 0 0 1-12 12zm0-22.321A10.321 10.321 0 1 0 22.321 12 10.333 10.333 0 0 0 12 1.679z" style="fill:url(#zoq7jv90wa)"/>
    <path d="M.876 7.714H5a.876.876 0 1 0 0-1.752H1.752V.876A.867.867 0 0 0 .876 0 .867.867 0 0 0 0 .876v5.962a.867.867 0 0 0 .876.876z" transform="translate(10.489 5.844)" style="fill:url(#zoq7jv90wa)"/>
</svg>
