<svg xmlns="http://www.w3.org/2000/svg" width="161" height="200" viewBox="0 0 161 200">
    <g data-name="Group 429">
        <g data-name="Group 428">
            <path data-name="Path 1235" d="m210.743 47-74.62 4.543L65.777 50.3 65 80.041l66.847 16.52 79.284-14.868zM97.258 70.129c-4.722 0-8.55-2.589-8.55-5.782s3.828-5.782 8.55-5.782 8.55 2.589 8.55 5.782-3.828 5.782-8.55 5.782zm76.02.33c-5.152 0-9.328-3.255-9.328-7.269s4.176-7.269 9.328-7.269 9.328 3.255 9.328 7.269-4.177 7.269-9.329 7.269z" transform="translate(-58.805 -27.588)" style="fill:#0097ee"/>
            <path data-name="Path 1236" d="M76.377 324 69 360.345l143.653-2.065-6.988-34.28z" transform="translate(-61.153 -201.646)" style="fill:#c2ddff"/>
            <path data-name="Path 1237" d="m50 229.84 161 1.239-8.206-102.427L55.862 127z" transform="translate(-50 -86.009)" style="fill:#fff"/>
            <path data-name="Path 1238" d="M134.759 36.758 124.434 38 117 2.478 135.172 0z" transform="translate(-90.996)" style="fill:#1be7b2"/>
            <path data-name="Path 1239" d="m325.478 35.106 12.39 1.239L345.3 1.652 323 0z" transform="translate(-217.234)" style="fill:#1be7b2"/>
            <path data-name="Path 1240" d="m232.366 77.652 1.239 9.086-44.605.826L191.065 76z" transform="translate(-135.78 -46.88)" style="fill:#1b69c7"/>
            <path data-name="Path 1241" d="m186.912 208.042 18.172 11.564L229.039 194l9.086 6.2-28.911 38.41L177 224.563z" transform="translate(-128.954 -121.19)" style="fill:#1be7b2"/>
        </g>
        <path data-name="Path 1242" d="M215.175 472.26s-20.944 11.564-70.588 11.564S74 472.26 74 472.26s37.809-8.26 76.793-8.26 64.382 8.26 64.382 8.26z" transform="translate(-64.088 -283.825)" style="fill:#fff"/>
    </g>
</svg>
