<svg xmlns="http://www.w3.org/2000/svg" width="24" height="22" viewBox="0 0 24 22">
    <defs>
        <linearGradient id="986gamfb1a" x1=".5" x2=".382" y2=".644" gradientUnits="objectBoundingBox">
            <stop offset="0" stop-color="#1be7b2"/>
            <stop offset="1" stop-color="#0097ee"/>
        </linearGradient>
    </defs>
    <g data-name="Group 14">
        <path data-name="Path 7" d="M14.037 13.185H28.15l-7.71 6.094a1.027 1.027 0 0 1-.534.209 1.046 1.046 0 0 1-.538-.209l-5.51-4.357a.587.587 0 0 0-.2-.106 2.174 2.174 0 0 0 .4-1.294 3.13 3.13 0 0 0-.025-.338zm-3.589-3.919a.535.535 0 0 1 .11.044 1.972 1.972 0 0 1 .52.43 6.914 6.914 0 0 1 .99 1.516l.019.041a5.226 5.226 0 0 1 .836 2.244.872.872 0 0 1-.526.924l-1.047.608a2.313 2.313 0 0 0-1.084 1.764 2.939 2.939 0 0 0 .33 1.811l2.585 4.484a2.94 2.94 0 0 0 1.4 1.193 2.3 2.3 0 0 0 2.067-.059l1.047-.606a.873.873 0 0 1 1.063.008 5.217 5.217 0 0 1 1.526 1.844l.025.041a6.96 6.96 0 0 1 .816 1.615 1.979 1.979 0 0 1 .112.665c-.012.139-.015.125-.052.147l-.8.46a6.065 6.065 0 0 1-5.475-.179 10.334 10.334 0 0 1-4.065-4.234s0-.008-.008-.011l-2.18-3.782a.058.058 0 0 1-.008-.012 10.345 10.345 0 0 1-1.628-5.644 6.073 6.073 0 0 1 2.588-4.837l.8-.458c.018-.011.024-.019.042-.017zm.008-1.127a1.182 1.182 0 0 0-.62.154l-.843.488-.054.033a7.318 7.318 0 0 0-3.051 5.716 11.418 11.418 0 0 0 1.794 6.287l2.173 3.769-.005-.011a11.383 11.383 0 0 0 4.538 4.7 7.293 7.293 0 0 0 6.47.211.431.431 0 0 0 .055-.028l.844-.488a1.327 1.327 0 0 0 .618-1.038 2.826 2.826 0 0 0-.16-1.11 7.6 7.6 0 0 0-.954-1.894 6.005 6.005 0 0 0-1.913-2.238 2.169 2.169 0 0 0-2.22-.017l-1.047.608a1.142 1.142 0 0 1-1.052 0 2.013 2.013 0 0 1-.86-.713l-2.585-4.484a2.023 2.023 0 0 1-.187-1.1 1.139 1.139 0 0 1 .524-.91l1.017-.589a.567.567 0 0 0 .215.345l5.51 4.358a2.156 2.156 0 0 0 1.21.466.6.6 0 0 0 .066 0 2.153 2.153 0 0 0 1.209-.466l7.589-6v9.914c0 .151-.171.35-.506.35h-5.253a.571.571 0 1 0 0 1.142h5.254a1.579 1.579 0 0 0 1.648-1.492V13.534a1.579 1.579 0 0 0-1.648-1.492H13.724a10.2 10.2 0 0 0-.64-1.3 7.612 7.612 0 0 0-1.163-1.772 2.815 2.815 0 0 0-.879-.694 1.456 1.456 0 0 0-.586-.137z" transform="translate(-5.88 -8.138)" style="fill:url(#986gamfb1a)"/>
    </g>
</svg>
