<svg xmlns="http://www.w3.org/2000/svg" width="16" height="20" viewBox="0 0 16 20">
    <path data-name="Path 122" d="M222.829 154.7a.431.431 0 0 0-.431.431v8.141a.431.431 0 0 0 .862 0v-8.141a.431.431 0 0 0-.431-.431zm0 0" transform="translate(-212.096 -146.432)" style="fill:#676767"/>
    <path data-name="Path 123" d="M104.829 154.7a.431.431 0 0 0-.431.431v8.141a.431.431 0 0 0 .861 0v-8.141a.431.431 0 0 0-.43-.431zm0 0" transform="translate(-99.562 -146.432)" style="fill:#676767"/>
    <path data-name="Path 124" d="M1.307 5.953v11.54a2.606 2.606 0 0 0 .677 1.782A2.256 2.256 0 0 0 3.632 20h8.729a2.255 2.255 0 0 0 1.648-.724 2.606 2.606 0 0 0 .677-1.782V5.953a1.792 1.792 0 0 0-.452-3.519h-2.362v-.585A1.855 1.855 0 0 0 11.34.536 1.8 1.8 0 0 0 10.045 0h-4.1a1.8 1.8 0 0 0-1.291.536 1.855 1.855 0 0 0-.532 1.313v.585H1.759a1.792 1.792 0 0 0-.452 3.519zm11.054 13.109H3.632a1.475 1.475 0 0 1-1.4-1.569V5.994h11.532v11.5a1.475 1.475 0 0 1-1.4 1.569zM5.044 1.849a.909.909 0 0 1 .262-.649.882.882 0 0 1 .642-.265h4.1a.882.882 0 0 1 .642.263.908.908 0 0 1 .262.651v.585H5.044zM1.759 3.371h12.475a.843.843 0 0 1 0 1.686H1.759a.843.843 0 0 1 0-1.686zm0 0" transform="translate(.003 .002)" style="fill:#676767"/>
    <path data-name="Path 125" d="M163.829 154.7a.431.431 0 0 0-.431.431v8.141a.431.431 0 0 0 .862 0v-8.141a.431.431 0 0 0-.431-.431zm0 0" transform="translate(-155.829 -146.432)" style="fill:#676767"/>
</svg>
