<svg xmlns="http://www.w3.org/2000/svg" width="24" height="24"><defs><clipPath id="prefix__a"><path data-name="Rectangle 27343" transform="translate(-4602 -1672)" d="M0 0h24v24H0z" fill="#1b69c7" stroke="#1b69c7"/></clipPath></defs><g data-name="Mask Group 70" transform="translate(4602 1672)" clip-path="url(#prefix__a)" stroke-width=".5" fill="#000000" stroke="#000000"><path data-name="Path 3878" d="M-4586.574-1671.815a.581.581 0 00-.418-.185h-9.362a3.167 3.167 0 00-3.154 3.148v17.7a3.167 3.167 0 003.154 3.152h12.707a3.167 3.167 0 003.154-3.148v-14.058a.624.624 0 00-.168-.406zm.168 1.861l3.959 4.154h-2.574a1.381 1.381 0 01-1.386-1.38zm2.759 20.794h-12.707a2.008 2.008 0 01-1.994-1.989v-17.703a2.008 2.008 0 011.994-1.989h8.788v3.664a2.536 2.536 0 002.545 2.539h3.368v13.49a2 2 0 01-1.994 1.989zm0 0"/><path data-name="Path 3879" d="M-4585.231-1653.159h-9.54a.58.58 0 100 1.159h9.548a.58.58 0 10-.006-1.159zm0 0"/><path data-name="Path 3880" d="M-4590.424-1655.241a.575.575 0 00.846 0l3.4-3.646a.578.578 0 00-.846-.788l-2.397 2.568v-6.331a.58.58 0 00-1.159 0v6.33l-2.388-2.567a.578.578 0 00-.846.788zm0 0"/></g></svg>