<svg width="35" height="25" viewBox="0 0 35 25" xmlns="http://www.w3.org/2000/svg">
    <defs>
        <linearGradient x1="3.928%" y1="27.437%" x2="100%" y2="72.563%" id="ydwia6h7qa">
            <stop stop-color="#34E7A4" offset="0%"/>
            <stop stop-color="#0073FF" offset="100%"/>
        </linearGradient>
        <linearGradient x1="3.928%" y1="43.599%" x2="100%" y2="56.401%" id="00x2fx8d4b">
            <stop stop-color="#34E7A4" offset="0%"/>
            <stop stop-color="#0073FF" offset="100%"/>
        </linearGradient>
        <linearGradient x1="3.928%" y1="12.292%" x2="100%" y2="87.708%" id="enq03xa31c">
            <stop stop-color="#34E7A4" offset="0%"/>
            <stop stop-color="#0073FF" offset="100%"/>
        </linearGradient>
    </defs>
    <g fill="none" fill-rule="evenodd">
        <path d="M31.354.202H3.646C1.636.202 0 1.85 0 3.876V20.04c0 2.025 1.636 3.673 3.646 3.673h27.708c2.01 0 3.646-1.648 3.646-3.673V3.876C35 1.85 33.364.202 31.354.202zm2.188 19.838a2.199 2.199 0 0 1-2.188 2.204H3.646a2.199 2.199 0 0 1-2.188-2.204V3.876c0-1.216.982-2.205 2.188-2.205h27.708c1.206 0 2.188.99 2.188 2.205V20.04z" fill="url(#ydwia6h7qa)" transform="translate(0 .244)"/>
        <path d="M31.934 3.465a.72.72 0 0 0-1.012-.193L18.98 11.604c-.9.626-2.062.626-2.96 0L4.076 3.272a.717.717 0 0 0-1.012.193.753.753 0 0 0 .191 1.032l11.942 8.332a4.01 4.01 0 0 0 2.302.732c.801 0 1.603-.244 2.302-.732l11.942-8.332a.751.751 0 0 0 .19-1.032z" fill="url(#00x2fx8d4b)" transform="translate(0 .244)"/>
        <path d="M12.923 12.221a.722.722 0 0 0-1.022-.094L3.2 19.474a.743.743 0 0 0-.093 1.036.719.719 0 0 0 1.022.094l8.702-7.347a.743.743 0 0 0 .092-1.036zM31.8 19.474 23.1 12.127a.722.722 0 0 0-1.022.094.743.743 0 0 0 .092 1.036l8.702 7.347a.717.717 0 0 0 1.022-.094.743.743 0 0 0-.093-1.036z" fill="url(#enq03xa31c)" transform="translate(0 .244)"/>
    </g>
</svg>
