<svg xmlns="http://www.w3.org/2000/svg" width="40" height="60" viewBox="0 0 40 60">
    <g data-name="Group 29">
        <g data-name="Group 28">
            <path data-name="Path 12" d="M248.2 40a1.289 1.289 0 1 0 1.279 1.3A1.29 1.29 0 0 0 248.2 40z" transform="translate(-228.084 -34.849)" style="fill:#1b69c7"/>
        </g>
    </g>
    <g data-name="Group 31">
        <g data-name="Group 30">
            <path data-name="Path 13" d="M195.089 100a9.023 9.023 0 1 0-.135 18.045h.069a9.023 9.023 0 0 0 .066-18.045zm-.066 15.467h-.049a6.445 6.445 0 0 1 .047-12.89h.049a6.445 6.445 0 0 1-.047 12.89z" transform="translate(-175.022 -88.724)" style="fill:#1b69c7"/>
        </g>
    </g>
    <g data-name="Group 33">
        <g data-name="Group 32">
            <path data-name="Path 14" d="M288.007 47.086a1.289 1.289 0 1 0-.861 2.43 14.162 14.162 0 0 1 9.416 13.455 1.289 1.289 0 0 0 1.279 1.3h.01a1.289 1.289 0 0 0 1.289-1.279 16.742 16.742 0 0 0-11.133-15.906z" transform="translate(-264.295 -40.952)" style="fill:#1b69c7"/>
        </g>
    </g>
    <g data-name="Group 35">
        <g data-name="Group 34">
            <path data-name="Path 15" d="M113.215 44.114C121.04 34.081 125.93 28.85 126 20.072a20 20 0 0 0-40-.3c-.067 9.016 4.914 14.241 12.793 24.34C90.951 45.279 86 48.211 86 51.8c0 2.4 2.229 4.557 6.276 6.069A40.618 40.618 0 0 0 106 60a40.618 40.618 0 0 0 13.723-2.134C123.767 56.354 126 54.2 126 51.8c0-3.587-4.954-6.518-12.785-7.686zM88.35 19.791a17.647 17.647 0 0 1 35.293.264c-.063 8.336-5.249 13.473-13.528 24.224a234.627 234.627 0 0 0-4.117 5.5 218.197 218.197 0 0 0-4.108-5.5c-8.622-11.202-13.604-15.951-13.54-24.488zM106 57.656c-10.1 0-17.647-3.093-17.647-5.859 0-2.051 4.511-4.643 12.1-5.54a210.172 210.172 0 0 1 4.589 6.216 1.178 1.178 0 0 0 .96.5 1.178 1.178 0 0 0 .96-.494 219.089 219.089 0 0 1 4.6-6.216c7.578.9 12.086 3.489 12.086 5.539-.005 2.761-7.548 5.854-17.648 5.854z" transform="translate(-85.996)" style="fill:#1b69c7"/>
        </g>
    </g>
</svg>
