<svg height="28.954" viewBox="0 0 27.954 28.954" width="27.954" xmlns="http://www.w3.org/2000/svg"><g fill="#676767"><path d="m7.99 2c-3.583 0-5.99 2.723-5.99 6.774 0 4.255 2.617 9.2 5.99 9.2s5.99-4.945 5.99-9.2c0-4.051-2.407-6.774-5.99-6.774zm.25 10.982h-1.747a.5.5 0 0 1 -.5-.5v-4.991a.5.5 0 0 1 .5-.5h1.747a1.747 1.747 0 0 1 1.221 3 1.747 1.747 0 0 1 -1.221 3z" transform="translate(-2 -2)"/><path d="m13.248 19h-1.248v1.5h1.248a.749.749 0 1 0 0-1.5z" transform="translate(-7.008 -10.514)"/><path d="m11 35.481v.259a1 1 0 0 0 1 1h1a1 1 0 0 0 1-1v-.259a4.458 4.458 0 0 1 -3 0z" transform="translate(-6.507 -18.768)"/><path d="m13.248 14h-1.248v1.5h1.248a.749.749 0 1 0 0-1.5z" transform="translate(-7.008 -8.01)"/><path d="m39.99 2c-3.583 0-5.99 2.723-5.99 6.774 0 4.255 2.617 9.2 5.99 9.2s5.99-4.945 5.99-9.2c0-4.051-2.407-6.774-5.99-6.774zm2.3 10.351a3 3 0 1 1 -.675-5.137.5.5 0 1 1 -.359.932 2 2 0 1 0 .224 3.554l-.021-1.213h-.508a.5.5 0 1 1 0-1h1a.5.5 0 0 1 .5.49l.034 1.971a.5.5 0 0 1 -.192.403z" transform="translate(-18.026 -2)"/><path d="m43 35.481v.259a1 1 0 0 0 1 1h1a1 1 0 0 0 1-1v-.259a4.458 4.458 0 0 1 -3 0z" transform="translate(-22.534 -18.768)"/><path d="m24.493 48.985v-4.992h1v4.992zm4.493-.5a.5.5 0 0 1 -.5.5h-2v-4.992h2.5zm-1-8.486c.611 0 .849.563.94 1h-2.226a1.507 1.507 0 0 1 1.29-1zm-3.494.5a.5.5 0 1 1 1 0v.501h-1zm-2.492-.499a1.507 1.507 0 0 1 1.29 1h-2.234c.092-.438.329-1 .944-1zm-2 2h9.984v1h-9.984zm3.494 2v4.992h-2a.5.5 0 0 1 -.5-.5v-4.499z" transform="translate(-11.015 -21.031)"/><path d="m11.494 46.984a2.97 2.97 0 0 1 -1.837 2.97.5.5 0 0 1 -.319-.948 2.011 2.011 0 0 0 1.162-2.022 1.534 1.534 0 0 0 -1-1.567 2.5 2.5 0 0 1 -1.5-2.427c0-2.4 2-2.242 2.4-3 .05.007.044 0 1.048 0a2.154 2.154 0 0 1 -1.373 1.458c-.627.314-1.075.534-1.075 1.542a1.534 1.534 0 0 0 1 1.567 2.5 2.5 0 0 1 1.494 2.427z" transform="translate(-5.005 -21.026)"/><path d="m46 46.984a2 2 0 0 0 1.158 2.022.5.5 0 0 1 -.319.948 2.97 2.97 0 0 1 -1.839-2.97 2.5 2.5 0 0 1 1.493-2.426 1.534 1.534 0 0 0 1-1.567c0-1.008-.449-1.228-1.073-1.537a2.154 2.154 0 0 1 -1.373-1.458h1.048c.395.758 2.4.6 2.4 3a2.5 2.5 0 0 1 -1.495 2.42 1.534 1.534 0 0 0 -1 1.568z" transform="translate(-23.535 -21.026)"/></g></svg>