<svg height="35.836" viewBox="0 0 25.018 35.836" width="25.018" xmlns="http://www.w3.org/2000/svg" xmlns:xlink="http://www.w3.org/1999/xlink"><clipPath id="a"><path d="m0 0h25.018v35.836h-25.018z" transform="translate(0 .021)"/></clipPath><path d="m0 0h25.018v35.836h-25.018z" fill="none"/><g clip-path="url(#a)" transform="translate(0 -.021)"><path d="m24.308 35.836h-23.427c-.362 0-.6-.026-.728-.159s-.153-.377-.153-.747v-1.116c0-.9-.008-1.829.077-2.735a8.51 8.51 0 0 1 6.936-7.5c.279-.049.567-.072.845-.1.225-.018.457-.037.683-.069a1.58 1.58 0 0 0 .4-.13c.058-.025.118-.05.177-.072l-.031-.133-.46-.075a33.757 33.757 0 0 1 -.957-.169 16.132 16.132 0 0 1 -4.77-1.872.662.662 0 0 1 -.321-.67v-5.641c0-1.286-.008-2.616.063-3.921a8.932 8.932 0 0 1 3.1-6.683.533.533 0 0 0 .091-.444c-.152-.609-.319-1.224-.48-1.82l-.253-.954a.71.71 0 0 1 .045-.626.694.694 0 0 1 .576-.2h13.532a.684.684 0 0 1 .565.2.688.688 0 0 1 .053.6q-.119.468-.241.936v.007c-.159.614-.324 1.247-.473 1.873a.538.538 0 0 0 .111.445 8.984 8.984 0 0 1 3.054 6.359c.084 1.155.083 2.336.081 3.478v1.168c.005.741 0 1.493 0 2.219 0 .958 0 1.947.009 2.921a.9.9 0 0 1 -.558.916 16.169 16.169 0 0 1 -5.951 1.962c.073.335.292.346.525.356a9 9 0 0 1 4.039 1.034 8.426 8.426 0 0 1 4.383 6.341 19.818 19.818 0 0 1 .161 3.2c0 .407 0 .828.005 1.241.007.356-.208.561-.6.575zm-16.656-11.247a.493.493 0 0 0 -.06 0 7.518 7.518 0 0 0 -6.364 5.95 16.6 16.6 0 0 0 -.175 2.728c0 .4-.008.815-.024 1.22a1.094 1.094 0 0 0 .016.2c0 .031.009.062.012.093h9.193v-4.893a.881.881 0 0 1 .313-.727 22.2 22.2 0 0 0 .781-.724c.116-.111.234-.223.356-.337l-.57-.521c-1.1-1-2.131-1.947-3.193-2.9a.445.445 0 0 0 -.285-.089zm9.686 0a.607.607 0 0 0 -.438.187c-.792.728-1.6 1.466-2.379 2.179l-.009.008c-.976.892-1.985 1.814-2.973 2.726a.779.779 0 0 0 -.227.509 219.417 219.417 0 0 0 -.011 3.339v.893c0 .074.007.147.014.224 0 .036.006.071.009.107h12.666c-.012-.4-.012-.806-.011-1.2a16.63 16.63 0 0 0 -.129-2.579 7.475 7.475 0 0 0 -6.35-6.382.94.94 0 0 0 -.161-.014zm-7.178-2.551v.305c.013.83.024 1.613-.931 2.041l.079.072.019.017 3.152 2.871 1.907-1.726 1.364-1.235c-.985-.466-.961-1.318-.934-2.22v-.137a7.572 7.572 0 0 1 -2.316.374 7.94 7.94 0 0 1 -2.339-.364zm-6.49-9.747-.02.09a.355.355 0 0 0 -.014.08v1.108c0 2.09 0 4.249.009 6.372a.524.524 0 0 0 .272.375l.482.215c.808.361 1.643.735 2.489 1.032a10.48 10.48 0 0 0 1.489.364c.22.043.446.086.665.135.125-.351.025-.487-.217-.628a7.036 7.036 0 0 1 -3.625-5.186 17.026 17.026 0 0 1 -.136-2.448c0-.359 0-.73-.018-1.094v-.421zm16.26-.075v.9c0 .641.01 1.245-.008 1.86a7.333 7.333 0 0 1 -3.793 6.441c-.255.152-.316.3-.224.55h.137a.658.658 0 0 0 .083 0 14.468 14.468 0 0 0 5.021-1.7.511.511 0 0 0 .192-.382c.011-2.289.009-4.614.008-6.863v-.429a1.628 1.628 0 0 0 -.015-.189c0-.035-.008-.07-.011-.106l-.5-.031zm-5.021-3.275c-2.706 2.295-6 2.926-8.873 3.241.021.426.03.856.038 1.272a19.725 19.725 0 0 0 .184 2.739 6.314 6.314 0 0 0 6.247 5.167h.009a6.307 6.307 0 0 0 6.262-5.26 18.668 18.668 0 0 0 .13-2.849v-1.07c0-.085-.184-.212-.3-.243a5.1 5.1 0 0 1 -2.569-1.625c-.251-.294-.492-.591-.748-.905a34.683 34.683 0 0 0 -.38-.467zm-8.676-3.871c-1.433 1.061-2.608 3.875-2.565 6.143h.358c.384-.033.774-.061 1.152-.088.876-.062 1.781-.126 2.66-.263a11.739 11.739 0 0 0 6.672-3.009.669.669 0 0 1 .444-.229c.165 0 .323.1.5.328l.245.318c.342.445.7.9 1.078 1.324a5.113 5.113 0 0 0 4.063 1.622c.154 0 .315 0 .478-.012a8.6 8.6 0 0 0 -2.577-6.174l-.163.576c-.076.269-.149.523-.22.779-.13.465-.274.637-.531.637a1.417 1.417 0 0 1 -.505-.132 13.5 13.5 0 0 0 -3.779-.926 11.436 11.436 0 0 0 -1.125-.056 12.554 12.554 0 0 0 -4.857 1.018 1.117 1.117 0 0 1 -.413.1c-.258 0-.416-.172-.53-.576a397.82 397.82 0 0 1 -.385-1.381zm.027-3.993.577 2.173.013.05.669 2.515a14.184 14.184 0 0 1 4.973-.931 14.139 14.139 0 0 1 4.953.926l.638-2.4.617-2.334h-12.441z" fill="#676767" transform="translate(0 .021)"/></g><path d="m17.904 31.052c-.4 0-.806.009-1.209 0a.557.557 0 0 1 -.559-.601.558.558 0 0 1 .573-.586q1.209-.011 2.418-.005a.572.572 0 0 1 .595.606.55.55 0 0 1 -.573.579c-.414.01-.829 0-1.244 0"/><path d="m3.465 28.664c-.137-.09-.343-.164-.416-.302a.548.548 0 0 1 0-.5 22.627 22.627 0 0 1 1.559-1.493c.209-.183.463-.078.635.12a.438.438 0 0 1 0 .637c-.461.469-.938.925-1.417 1.377a1.408 1.408 0 0 1 -.357.161"/></svg>