<svg height="14" viewBox="0 0 14 14" width="14" xmlns="http://www.w3.org/2000/svg"><g fill="#fff"><path d="m3.538 7.545h2.154a1.188 1.188 0 0 0 1.077 1.273h1.077a1.188 1.188 0 0 0 1.077-1.273h7.538a.593.593 0 0 0 .539-.636.593.593 0 0 0 -.538-.636h-7.539a1.188 1.188 0 0 0 -1.077-1.273h-1.077a1.188 1.188 0 0 0 -1.077 1.273h-2.154a.593.593 0 0 0 -.538.636.593.593 0 0 0 .538.636z" transform="translate(-3 -5)"/><path d="m16.462 14.273h-3.231a1.188 1.188 0 0 0 -1.077-1.273h-1.077a1.188 1.188 0 0 0 -1.077 1.273h-6.462a.645.645 0 0 0 0 1.273h6.462a1.188 1.188 0 0 0 1.077 1.273h1.077a1.188 1.188 0 0 0 1.077-1.273h3.231a.645.645 0 0 0 0-1.273z" transform="translate(-3 -7.909)"/><path d="m16.462 22.273h-7.539a1.188 1.188 0 0 0 -1.077-1.273h-1.077a1.188 1.188 0 0 0 -1.077 1.273h-2.154a.645.645 0 0 0 0 1.273h2.154a1.188 1.188 0 0 0 1.077 1.273h1.077a1.188 1.188 0 0 0 1.077-1.273h7.538a.645.645 0 0 0 0-1.273z" transform="translate(-3 -10.818)"/></g></svg>