<svg height="23" viewBox="0 0 24 23" width="24" xmlns="http://www.w3.org/2000/svg" xmlns:xlink="http://www.w3.org/1999/xlink"><linearGradient id="a" gradientUnits="objectBoundingBox" x2=".5" y1=".5"><stop offset="0" stop-color="#1be7b2"/><stop offset="1" stop-color="#0097ee"/></linearGradient><g fill="url(#a)"><path d="m301.923 259.583a.9.9 0 1 1 1.031-.893.469.469 0 1 0 .937 0 1.865 1.865 0 0 0 -1.5-1.777v-.244a.469.469 0 0 0 -.937 0v.244a1.865 1.865 0 0 0 -1.5 1.777 1.905 1.905 0 0 0 1.969 1.83.9.9 0 1 1 -1.031.893.469.469 0 1 0 -.937 0 1.865 1.865 0 0 0 1.5 1.777v.2a.469.469 0 1 0 .937 0v-.2a1.865 1.865 0 0 0 1.5-1.777 1.905 1.905 0 0 0 -1.969-1.83z" transform="translate(-285.894 -244.863)"/><path d="m387.091 223.039a6.107 6.107 0 0 0 -2.495-2.208.469.469 0 0 0 -.406.845 5.161 5.161 0 0 1 2.324 7.068.469.469 0 1 0 .828.44 6.1 6.1 0 0 0 -.251-6.146z" transform="translate(-365.928 -211.063)"/><path d="m347.5 209h-.032a.469.469 0 0 0 0 .938h.029a.469.469 0 0 0 0-.937z" transform="translate(-330.734 -199.649)"/><path d="m215.865 280.469a5.161 5.161 0 0 1 -2.324-7.068.469.469 0 0 0 -.828-.44 6.1 6.1 0 0 0 2.746 8.354.469.469 0 1 0 .406-.845z" transform="translate(-202.064 -260.787)"/><path d="m316.876 449h-.027a.469.469 0 1 0 0 .938h.031a.469.469 0 1 0 0-.937z" transform="translate(-301.548 -428.812)"/><path d="m18.16 10.826a2.068 2.068 0 0 0 -.208-.371h1.22a2.092 2.092 0 1 0 0-4.182h-3.754a2.035 2.035 0 0 0 .382-1.182 2.127 2.127 0 0 0 -2.159-2.091h-11.485a2.127 2.127 0 0 0 -2.156 2.091 2.127 2.127 0 0 0 2.156 2.091h3.754a2.033 2.033 0 0 0 0 2.364h-1.223a2.127 2.127 0 0 0 -2.156 2.091 2.065 2.065 0 0 0 .816 1.636 2.048 2.048 0 0 0 0 3.273 2.048 2.048 0 0 0 0 3.273 2.065 2.065 0 0 0 -.816 1.636 2.127 2.127 0 0 0 2.156 2.091h5.524a8.064 8.064 0 0 0 5.82 2.454 7.86 7.86 0 0 0 7.969-7.727 7.783 7.783 0 0 0 -5.84-7.447zm1.012-3.644a1.182 1.182 0 1 1 0 2.364h-11.485a1.182 1.182 0 1 1 0-2.364zm-17.016-.909a1.182 1.182 0 1 1 0-2.364h11.485a1.182 1.182 0 1 1 0 2.364zm2.531 4.182h11.485a1.25 1.25 0 0 1 .532.119 8.31 8.31 0 0 0 -.672-.028 8.07 8.07 0 0 0 -5.639 2.273h-5.7a1.182 1.182 0 1 1 0-2.364zm0 3.273h4.9a7.614 7.614 0 0 0 -1.2 2.364h-3.7a1.182 1.182 0 1 1 0-2.364zm0 3.273h3.484a7.5 7.5 0 0 0 -.029 2.364h-3.455a1.182 1.182 0 1 1 0-2.364zm0 5.636a1.182 1.182 0 1 1 0-2.364h3.647a7.591 7.591 0 0 0 1.125 2.364zm11.344 2.455a6.935 6.935 0 0 1 -7.031-6.819 6.935 6.935 0 0 1 7.031-6.818 6.935 6.935 0 0 1 7.031 6.818 6.935 6.935 0 0 1 -7.031 6.818z" transform="translate(0 -3)"/></g></svg>