<svg height="31.509" viewBox="0 0 29.928 31.509" width="29.928" xmlns="http://www.w3.org/2000/svg" xmlns:xlink="http://www.w3.org/1999/xlink"><clipPath id="a"><path d="m0 0h29.928v31.509h-29.928z" transform="translate(0 .053)"/></clipPath><path d="m0 0h29.928v31.509h-29.928z" fill="none"/><g clip-path="url(#a)" transform="translate(0 -.053)"><path d="m18.039 31.509h-10.833a.828.828 0 0 1 -.282-.7 5.97 5.97 0 0 1 1.314-4.214c.155-.187.325-.362.5-.547.085-.087.171-.176.259-.269l-.2-.089c-.167-.073-.339-.148-.507-.225a4.78 4.78 0 0 1 -.465-.237.442.442 0 0 1 -.192-.606.432.432 0 0 1 .39-.253.548.548 0 0 1 .211.045c.159.066.319.139.473.209.25.114.507.231.768.324a9.55 9.55 0 0 0 3.2.556 9.288 9.288 0 0 0 9.148-7.539 9.528 9.528 0 0 0 .031-3.486c-.033-.2-.128-.242-.3-.254a3.753 3.753 0 0 1 -3.216-2.055 3.45 3.45 0 0 0 -2.038-1.71 11.763 11.763 0 0 0 -3.667-.6 11.888 11.888 0 0 0 -2.639.3c-.266.06-.351.17-.348.451q0 .232.007.464a12.7 12.7 0 0 1 -.232 3.271c-.11.444-.257.886-.4 1.313-.086.26-.175.528-.255.794a.5.5 0 0 0 .006.219.98.98 0 0 1 .016.132c0 .123.014.25.023.372a3.214 3.214 0 0 1 -.012.891.3.3 0 0 1 -.312.266.77.77 0 0 1 -.555-.324 10.987 10.987 0 0 1 -3.181 3.164 9.232 9.232 0 0 0 1.849 2.128l.062.051c.035.028.07.057.1.088a.462.462 0 0 1 .078.679.444.444 0 0 1 -.659.028 34.067 34.067 0 0 1 -1.56-1.566 5.579 5.579 0 0 1 -.476-.619 13.407 13.407 0 0 0 -.194-.273l-.512.2c-.4.158-.807.319-1.212.463a1.438 1.438 0 0 1 -.478.091.914.914 0 0 1 -.762-.4 1.061 1.061 0 0 1 .04-1.283c.246-.413.471-.828.71-1.268.1-.191.208-.383.315-.577a2.822 2.822 0 0 1 -2.021-3.165 2.763 2.763 0 0 1 2.323-2.407v-.842a6.789 6.789 0 0 1 .714-3.545 6.592 6.592 0 0 1 5.84-3.671 2.738 2.738 0 0 0 .627-.13 3.977 3.977 0 0 1 .446-.111c.66-.11 1.333-.2 1.984-.29l.081-.011.043-.005c.114-.013.2-.023.24-.189a5.787 5.787 0 0 1 1.953-3.2 5.847 5.847 0 0 1 3.792-1.348 6.655 6.655 0 0 1 .812.051 10.017 10.017 0 0 1 5.157 2.049 10.147 10.147 0 0 1 3.11 4.6 8.858 8.858 0 0 1 .447 3.056v2.212c.005 1.393.011 2.833-.012 4.248a10.874 10.874 0 0 0 2.011 6.554 1.344 1.344 0 0 1 .278 1.183 1.236 1.236 0 0 1 -1.213.947 1.463 1.463 0 0 1 -.424-.064 14.631 14.631 0 0 1 -3.434-1.536c-.485-.3-.956-.637-1.413-.964l-.159-.114a.6.6 0 0 1 -.272-.379.429.429 0 0 1 .093-.326.422.422 0 0 1 .343-.181.648.648 0 0 1 .388.155 14.665 14.665 0 0 0 4.6 2.416l.021.007a.908.908 0 0 0 .264.057.3.3 0 0 0 .249-.127c.163-.206.041-.384-.076-.555a11.407 11.407 0 0 1 -2.033-4.99 15.439 15.439 0 0 1 -.127-1.931c-.007-.9 0-1.809 0-2.691.005-1.477.011-3.005-.031-4.507a8.609 8.609 0 0 0 -7.222-8.132 8.483 8.483 0 0 0 -1.313-.107 4.89 4.89 0 0 0 -2.4.573 4.835 4.835 0 0 0 -2.469 3.145l.772.16a60.66 60.66 0 0 1 1.967.427 1.114 1.114 0 0 0 .262.037.726.726 0 0 0 .426-.145 2.9 2.9 0 0 1 1.627-.473 3.2 3.2 0 0 1 3.179 2.569 2.743 2.743 0 0 1 -.055 1.4.343.343 0 0 0 .045.272 5.819 5.819 0 0 1 1.118 3.42q0 .078.008.156c.011.192.022.389.02.582s.04.28.266.311a2.8 2.8 0 0 1 2.389 2.5 2.827 2.827 0 0 1 -1.673 2.869 2.789 2.789 0 0 1 -.488.14c-.121.027-.247.055-.366.094a.538.538 0 0 0 -.27.217 1 1 0 0 0 -.089.237 1.287 1.287 0 0 1 -.066.195c-.126.269-.152.466.087.671a.388.388 0 0 1 .018.535.376.376 0 0 1 -.34.182 1.139 1.139 0 0 1 -.339-.066 10.793 10.793 0 0 1 -5.5 4.914c.022.012.046.022.07.033a.487.487 0 0 1 .139.08 5.734 5.734 0 0 1 1.9 4.252v.241c0 .133 0 .27.006.4a.625.625 0 0 1 -.313.646zm-10.157-1.814v.875h1.2a2.243 2.243 0 0 1 -.062-.226c-.037-.157-.069-.292-.152-.336a3.023 3.023 0 0 0 -.675-.229c-.101-.027-.206-.053-.311-.084zm.6-1.855-.053.121-.361.825.43.127c.312.092.606.18.9.257.525.138.6.25.564.8a3.505 3.505 0 0 0 0 .41v.19h2.213v-2.031l-1.705-.323-.126-.024-1.866-.352zm8.322 0-3.67.691v2.03h2.2v-.661c-.017-.522.041-.6.565-.735.286-.076.567-.16.864-.249l.467-.138-.12-.265-.3-.672zm.61 1.851-1.132.337v.531h1.128zm-7.2-3.538a.243.243 0 0 0 -.141.034c-.23.164-.447.341-.678.529l-.272.221a9.229 9.229 0 0 0 3.511.572 9.574 9.574 0 0 0 3.538-.566c-.085-.07-.167-.141-.248-.21a6.958 6.958 0 0 0 -.571-.456.654.654 0 0 0 -.346-.1.479.479 0 0 0 -.1.01 10.95 10.95 0 0 1 -2.247.238 10.546 10.546 0 0 1 -2.264-.248.862.862 0 0 0 -.189-.02zm-1.323-19.947a4.967 4.967 0 0 0 -.986.106 5.687 5.687 0 0 0 -4.626 5.688v1.022c-.006 1.117-.012 2.272.009 3.406a8.136 8.136 0 0 1 -1.438 4.779 1.955 1.955 0 0 0 -.1.17l-.044.079.047.031c.012.008.028.02.037.02a.908.908 0 0 0 .18-.037 9.49 9.49 0 0 0 6.63-7.885 15.343 15.343 0 0 0 .121-2.5v-.964a2.214 2.214 0 0 1 1.749-2.168 2.622 2.622 0 0 1 .494-.04c.137 0 .276.006.422.013s.307.014.467.014c-.053-.073-.1-.149-.155-.223a3.631 3.631 0 0 0 -.365-.479 3.26 3.26 0 0 0 -2.442-1.031zm13.865 8.074a11.33 11.33 0 0 1 .008 3.743 1.892 1.892 0 0 0 -.008-3.743zm-20.394.062a1.8 1.8 0 0 0 -1.436 1.63 1.843 1.843 0 0 0 1.317 1.972 12.475 12.475 0 0 0 .113-2.315c-.007-.42-.013-.855.006-1.287zm10.185-8.688c-.25 0-.507.008-.763.022-.165.01-.328.033-.516.059-.095.013-.2.028-.305.041a4.274 4.274 0 0 1 2.12 3.156l.146.012a2.92 2.92 0 0 1 .292.031c.235.04.471.078.707.117.594.1 1.205.195 1.8.327a4.387 4.387 0 0 1 3.186 2.419 2.757 2.757 0 0 0 .693.809 2.653 2.653 0 0 0 1.76.658v-.352c0-.247.009-.48-.008-.712a4.7 4.7 0 0 0 -1.038-2.923 10.431 10.431 0 0 0 -8.074-3.664zm-1.576 3.152a1.311 1.311 0 0 0 -.891.38l.629-.093.855-.126a1.21 1.21 0 0 0 -.593-.161zm7.321-3.214a2.251 2.251 0 0 0 -.872.174 11.937 11.937 0 0 1 3.175 2.17 1.933 1.933 0 0 0 -.5-1.53 2.443 2.443 0 0 0 -1.806-.814z" fill="#6b6b6b" transform="translate(0 .053)"/></g><g fill="#6b6b6b"><path d="m1.568 1.427a1.96 1.96 0 0 1 -1.409-.619.47.47 0 0 1 -.021-.684.472.472 0 0 1 .662.026 1.013 1.013 0 0 0 1.545-.006.468.468 0 0 1 .662-.013.446.446 0 0 1 -.007.659 1.962 1.962 0 0 1 -1.431.637" transform="translate(11.071 17.4)"/><path d="m.006.846a3.6 3.6 0 0 1 0-.458.41.41 0 0 1 .438-.388.4.4 0 0 1 .448.367 5.9 5.9 0 0 1 0 .976.4.4 0 0 1 -.444.376.413.413 0 0 1 -.439-.385 3.852 3.852 0 0 1 0-.488" transform="translate(16.416 16.614)"/></g></svg>