<svg height="18" viewBox="0 0 18 18" width="18" xmlns="http://www.w3.org/2000/svg"><path d="m275.1 211.479h-7.376a.59.59 0 0 0 -.59.59v2.356a.59.59 0 0 0 .59.59h4.154a5.545 5.545 0 0 1 -2.387 2.8l1.771 3.066a8.865 8.865 0 0 0 4.521-7.753 5.973 5.973 0 0 0 -.1-1.158.592.592 0 0 0 -.583-.491z" fill="#167ee6" transform="translate(-257.779 -204.093)"/><path d="m42.237 336.6a5.5 5.5 0 0 1 -4.76-2.754l-3.066 1.767a9.034 9.034 0 0 0 12.347 3.314l-1.771-3.066a5.462 5.462 0 0 1 -2.75.739z" fill="#12b347" transform="translate(-33.196 -322.139)"/><path d="m260.521 393.849-1.771-3.066a5.463 5.463 0 0 1 -2.75.743v3.538a9.026 9.026 0 0 0 4.521-1.215z" fill="#0f993e" transform="translate(-247.014 -377.06)"/><path d="m3.538 132.635a5.462 5.462 0 0 1 .743-2.749l-3.066-1.767a9 9 0 0 0 0 9.033l3.066-1.767a5.463 5.463 0 0 1 -.743-2.75z" fill="#ffd500" transform="translate(0 -123.635)"/><path d="m42.237 3.538a5.478 5.478 0 0 1 3.494 1.254.587.587 0 0 0 .791-.036l1.669-1.669a.594.594 0 0 0 -.034-.869 9.022 9.022 0 0 0 -13.746 2.307l3.066 1.767a5.5 5.5 0 0 1 4.76-2.754z" fill="#ff4b26" transform="translate(-33.196)"/><path d="m259.494 4.792a.587.587 0 0 0 .791-.036l1.669-1.669a.594.594 0 0 0 -.034-.869 9.014 9.014 0 0 0 -5.92-2.218v3.538a5.478 5.478 0 0 1 3.494 1.254z" fill="#d93f21" transform="translate(-247.021)"/></svg>