<svg height="28" width="28" xmlns="http://www.w3.org/2000/svg"><clipPath id="prefix__a"><path d="M0 0h24v24H0z" transform="translate(-22579 -4847)"/></clipPath><g clip-path="url(#prefix__a)" fill="#1b69c7" transform="translate(22579 4847)"><path d="M-22573.327-4834.955a6.327 6.327 0 106.328-6.327 6.335 6.335 0 00-6.328 6.327zm4.219 4.443v-.227a2.109 2.109 0 114.218 0v.227a4.915 4.915 0 01-4.218 0zm7.03-4.446a4.907 4.907 0 01-1.479 3.515 3.516 3.516 0 00-6.888 0 4.92 4.92 0 118.365-3.512zm0 0"/><path d="M-22564.89-4836.361a2.109 2.109 0 10-2.109 2.109 2.112 2.112 0 002.109-2.109zm-2.109.7a.7.7 0 11.7-.7.7.7 0 01-.7.703zm0 0"/><path d="M-22566.999-4847l-10.546 4.553v3.814a16.879 16.879 0 0010.269 15.514l.277.119.277-.119a16.879 16.879 0 0010.268-15.514v-3.814zm9.14 8.367a15.471 15.471 0 01-9.14 14.1 15.472 15.472 0 01-9.14-14.1v-2.89l9.14-3.946 9.14 3.946zm0 0"/></g><g transform="translate(18 18)"><circle cx="5" cy="5" fill="#56cb8f" r="5"/><path d="M7.289 3.734l-.124-.129a.344.344 0 00-.5 0l-2.11 2.194-.749-.78a.343.343 0 00-.5 0l-.124.129a.376.376 0 000 .516l1.124 1.164a.344.344 0 00.5 0L7.289 4.25a.376.376 0 000-.516z" fill="#fff"/></g></svg>