<svg height="24" viewBox="0 0 24 24" width="24" xmlns="http://www.w3.org/2000/svg" xmlns:xlink="http://www.w3.org/1999/xlink"><linearGradient id="a" gradientUnits="objectBoundingBox" x1=".039" x2="1" y2="1"><stop offset="0" stop-color="#34e7a4"/><stop offset="1" stop-color="#0073ff"/></linearGradient><path d="m12 24a12 12 0 0 1 -8.485-20.485 12 12 0 1 1 16.97 16.97 11.921 11.921 0 0 1 -8.485 3.515zm-5.814-6.2c1.165 3.152 3.189 5.162 5.414 5.376v-4.8a28.588 28.588 0 0 1 -4.425-.406zm11.629 0-.99.171a28.563 28.563 0 0 1 -4.424.406v4.8c2.223-.21 4.248-2.22 5.413-5.377zm4.159-.718-3.274.568a11.032 11.032 0 0 1 -3.182 4.98 11.192 11.192 0 0 0 6.456-5.544zm-19.947 0a11.192 11.192 0 0 0 6.453 5.548 11.032 11.032 0 0 1 -3.18-4.98l-3.271-.565zm10.373-4.682v5.178a27.6 27.6 0 0 0 4.288-.392l1.412-.243a17.165 17.165 0 0 0 .694-4.542zm-7.194 0a17.163 17.163 0 0 0 .694 4.542l1.412.243a27.6 27.6 0 0 0 4.288.392v-5.177zm14.387 0a17.937 17.937 0 0 1 -.628 4.393l3.413-.589a11.1 11.1 0 0 0 .812-3.8zm-18.783 0a11.1 11.1 0 0 0 .812 3.8l3.413.589a17.939 17.939 0 0 1 -.629-4.389zm18.156-5.193a17.937 17.937 0 0 1 .628 4.393h3.6a11.1 11.1 0 0 0 -.812-3.8l-3.413-.589zm-6.566-.785v5.178h6.394a17.165 17.165 0 0 0 -.694-4.542l-1.412-.243a27.6 27.6 0 0 0 -4.288-.393zm-.8 0a27.6 27.6 0 0 0 -4.288.392l-1.412.244a17.165 17.165 0 0 0 -.694 4.542h6.394zm-6.566.785-3.412.593a11.1 11.1 0 0 0 -.812 3.8h3.6a17.939 17.939 0 0 1 .624-4.393zm10.487-5.837a11.023 11.023 0 0 1 3.179 4.98l3.271.565a11.191 11.191 0 0 0 -6.45-5.545zm-7.041 0a11.192 11.192 0 0 0 -6.454 5.544l3.274-.564a11.032 11.032 0 0 1 3.18-4.98zm3.92-.548v4.8a28.486 28.486 0 0 1 4.425.4l.99.173c-1.166-3.149-3.189-5.159-5.415-5.373zm-.8 0c-2.225.211-4.249 2.221-5.414 5.378l.99-.171a28.462 28.462 0 0 1 4.424-.4v-4.808z" fill="url(#a)"/></svg>