<svg xmlns="http://www.w3.org/2000/svg" xmlns:xlink="http://www.w3.org/1999/xlink" width="111" height="29.001" viewBox="0 0 111 29.001"><defs><clipPath id="a"><path d="M0,0H19.588V18.347H0Z" fill="none"/></clipPath><clipPath id="b"><path d="M0,0H14.84V18.347H0Z" fill="none"/></clipPath></defs><path d="M11.565.206a.758.758,0,0,1,.307.678V3.778a.85.85,0,0,1-.265.619.892.892,0,0,1-.656.265H9.695a8.077,8.077,0,0,0-2.317.427,3.351,3.351,0,0,0-1.4.928A4.511,4.511,0,0,0,5.3,7.769a16.632,16.632,0,0,0-.182,2.573v6.529a.835.835,0,0,1-.265.634.921.921,0,0,1-.656.25H.934a.919.919,0,0,1-.656-.25.833.833,0,0,1-.266-.634V3.418L0,1.172A1.642,1.642,0,0,1,.278.265,1.484,1.484,0,0,1,1.157,0H4.194a.938.938,0,0,1,.67.265.83.83,0,0,1,.279.619v1.7C5.144,1.066,8.255.255,9.3.147q.866-.089,1.592-.118h.027L10.951,0a1.1,1.1,0,0,1,.614.206" transform="translate(46.299 0.592)" fill="#fff"/><path d="M.921,0,.949.03H.977Q1.7.059,2.568.148c1.048.107,4.159.919,4.159,2.439V.884A.83.83,0,0,1,7.007.265.941.941,0,0,1,7.677,0h3.038a1.49,1.49,0,0,1,.879.265,1.644,1.644,0,0,1,.278.907l-.013,2.246V16.871a.832.832,0,0,1-.265.633.919.919,0,0,1-.656.251H7.677a.918.918,0,0,1-.656-.251.833.833,0,0,1-.266-.633V10.343a16.644,16.644,0,0,0-.181-2.574A4.508,4.508,0,0,0,5.89,6.018a3.347,3.347,0,0,0-1.4-.928,8.072,8.072,0,0,0-2.317-.427H.921A.893.893,0,0,1,.265,4.4.848.848,0,0,1,0,3.779V.884A.757.757,0,0,1,.307.206,1.1,1.1,0,0,1,.921,0" transform="translate(80.727 0.592)" fill="#1be7b2"/><path d="M16.037,18.347a2.638,2.638,0,0,1-.764-.064c-.427-.176-.444-.38-.439-1.134l-.013-.139v-.189a8.564,8.564,0,0,1-5.054,1.459,9.561,9.561,0,0,1-7.407-2.958A9.259,9.259,0,0,1,0,8.9,8.639,8.639,0,0,1,2.334,2.7,9.606,9.606,0,0,1,9.584,0a7.776,7.776,0,0,1,1.2.061l7.122.044c1.508,0,1.682.9,1.682,1.573V17.011c0,.9-.177,1.326-1.183,1.326H16.78l-.247,0C16.39,18.344,16.213,18.347,16.037,18.347ZM8.967,3.838a3.993,3.993,0,0,0-3.05,1.974,6.4,6.4,0,0,0-.823,3.329,5.849,5.849,0,0,0,1.094,3.625,4.458,4.458,0,0,0,3.867,1.767,4.751,4.751,0,0,0,3.95-1.821c.071-.088.427-.681.462-3.694l.058-5.18H8.967Z" transform="translate(21.369)" fill="#fff"/><path d="M0,0H19.588V18.347H0Z" fill="none"/><g clip-path="url(#a)"><path d="M18.031,13.176c-1.011-.684-1.186-.733-1.728-.735-.4,0-.691.272-1.12.677a5.538,5.538,0,0,1-1.043.839,5.3,5.3,0,0,1-2.717.63c-3.585,0-5.33-1.574-5.471-4.932h0c-.007-.157-.014-.316-.014-.482s.007-.323.014-.481h0C6.093,5.334,7.838,3.76,11.423,3.76a5.3,5.3,0,0,1,2.717.63,5.538,5.538,0,0,1,1.043.839c.429.4.715.678,1.12.677.543,0,.717-.05,1.728-.735.876-.593,1.575-1.14,1.557-1.52a1.074,1.074,0,0,0-.171-.559l-.046-.061C17.69,1.02,14.966,0,11.273,0A17.63,17.63,0,0,0,5.2,1.026,7.977,7.977,0,0,0,.015,8.692h0c0,.145-.01.291-.01.439,0,.015,0,.028,0,.042S0,9.2,0,9.215c0,.149.006.294.01.44h0A7.977,7.977,0,0,0,5.2,17.321a17.63,17.63,0,0,0,6.071,1.026c3.693,0,6.417-1.02,8.1-3.031l.046-.061a1.075,1.075,0,0,0,.171-.559c.018-.381-.68-.927-1.557-1.52" transform="translate(0 0)" fill="#fff"/></g><path d="M9.983,18.347a12.192,12.192,0,0,1-4.154-.721A9.528,9.528,0,0,1,2.336,15.3a8.929,8.929,0,0,1-1.065-1.413,7.906,7.906,0,0,1-.715-1.568A9.483,9.483,0,0,1,0,9.18V9.069l.039-.129A6.872,6.872,0,0,1,.16,7.887C.238,7.461.315,7.112.4,6.82a10.382,10.382,0,0,1,.915-2.165A9.362,9.362,0,0,1,4.655,1.283,11.547,11.547,0,0,1,10.139,0a9.572,9.572,0,0,1,4.878,1.233,8.973,8.973,0,0,1,3.327,3.356,10.83,10.83,0,0,1,1.245,4.887c0,.571-.259,1.53-2,1.53H5.535a3.363,3.363,0,0,0,.611,1.526,4.135,4.135,0,0,0,1.847,1.4l.03.013a6.421,6.421,0,0,0,2.656.639,5.276,5.276,0,0,0,2.123-.457,4.245,4.245,0,0,0,1.917-1.5,1,1,0,0,1,.768-.566c.068,0,.115-.006.158-.006.276,0,.459.081,1.087.479.161.1.347.212.544.327.577.338,1.174.687,1.174.9a.855.855,0,0,1-.1.431l-.03.049A9.581,9.581,0,0,1,9.983,18.347Zm.3-14.478A4.9,4.9,0,0,0,6.854,5,4.371,4.371,0,0,0,5.835,6.377a3.747,3.747,0,0,0-.3,1.039h9.174a4.012,4.012,0,0,0-1.151-2.339A4.357,4.357,0,0,0,10.286,3.869Z" transform="translate(59.358 0.592)" fill="#fff"/><g transform="translate(96.16)"><path d="M0,0H14.84V18.347H0Z" fill="none"/><g clip-path="url(#b)"><path d="M14.819,12.22a4.137,4.137,0,0,0-.9-2.287c-.086-.105-.176-.208-.273-.305a6.065,6.065,0,0,0-2.2-1.419l-.181-.058a10.448,10.448,0,0,0-1.527-.534L8.152,7.209l-.793-.194L6.176,6.665a2.958,2.958,0,0,1-.653-.274,2.087,2.087,0,0,1-.839-.753.681.681,0,0,1-.092-.313,1.535,1.535,0,0,1,.241-.889c.809-1.179,3.436-.418,4.389.048a5.786,5.786,0,0,1,1.159.773l.034.027c.5.394.828.66,1.258.62a3.359,3.359,0,0,0,1.787-1.091c.339-.292,1.165-.9,1.09-1.434a1.174,1.174,0,0,0-.237-.585l-.055-.061C11.759-.05,6.8-.744,3.482.819c-.085.04-.248.126-.719.393l-.056.034A6.386,6.386,0,0,0,.6,3.41,4.6,4.6,0,0,0,.021,6.127a4.133,4.133,0,0,0,.9,2.286c.086.105.176.208.274.306a6.061,6.061,0,0,0,2.2,1.418l.181.059a10.474,10.474,0,0,0,1.527.534l1.579.408.793.194,1.182.349a3.01,3.01,0,0,1,.653.275,2.083,2.083,0,0,1,.838.753.686.686,0,0,1,.092.314,1.1,1.1,0,0,1-.354.762,4.58,4.58,0,0,1-4.275.08,5.784,5.784,0,0,1-1.158-.774l-.034-.027c-.5-.394-.828-.66-1.259-.62a3.36,3.36,0,0,0-1.787,1.091c-.339.292-1.164.9-1.09,1.434a1.168,1.168,0,0,0,.236.584l.056.062c2.5,2.78,7.463,3.475,10.777,1.912.085-.041.248-.126.72-.393l.055-.034a6.4,6.4,0,0,0,2.109-2.163,4.608,4.608,0,0,0,.577-2.717" fill="#fff"/></g></g><path d="M.575,0,1.852,4.663h.015L3.239,0h.67L5.286,4.663H5.3L6.587,0h.536L5.57,5.327H5L3.577.559H3.561L2.143,5.327H1.56L0,0Z" transform="translate(3.561 23.673)" fill="#1be7b2"/><path d="M2.938,0V.432H.406V2.358H2.777v.433H.406v2.1H2.968v.432H0V0Z" transform="translate(13.059 23.673)" fill="#1be7b2"/><path d="M.544,4.2a1.067,1.067,0,0,0,.316.423,1.241,1.241,0,0,0,.475.225,2.424,2.424,0,0,0,.587.068,1.5,1.5,0,0,0,.389-.057A1.287,1.287,0,0,0,2.7,4.678a1.056,1.056,0,0,0,.3-.322.894.894,0,0,0,.121-.477.771.771,0,0,0-.086-.372.856.856,0,0,0-.223-.266,1.322,1.322,0,0,0-.3-.176,2.819,2.819,0,0,0-.325-.111L1.176,2.674A2.7,2.7,0,0,1,.79,2.531,1.06,1.06,0,0,1,.236,1.95,1.325,1.325,0,0,1,.149,1.44,1.8,1.8,0,0,1,.213,1,1.254,1.254,0,0,1,.452.53,1.41,1.41,0,0,1,.933.154,1.741,1.741,0,0,1,1.718,0a2.063,2.063,0,0,1,.644.1A1.522,1.522,0,0,1,2.9.4a1.483,1.483,0,0,1,.367.5,1.642,1.642,0,0,1,.137.691H2.968a1.308,1.308,0,0,0-.118-.512A1.116,1.116,0,0,0,2.576.714,1.154,1.154,0,0,0,2.187.491,1.414,1.414,0,0,0,1.725.416a1.729,1.729,0,0,0-.431.053A1.045,1.045,0,0,0,.931.641.862.862,0,0,0,.678.954a1.082,1.082,0,0,0-.1.48.8.8,0,0,0,.054.311.645.645,0,0,0,.149.226.776.776,0,0,0,.22.151,1.426,1.426,0,0,0,.265.093l1.11.309a2.889,2.889,0,0,1,.456.176,1.5,1.5,0,0,1,.377.258,1.086,1.086,0,0,1,.254.377,1.383,1.383,0,0,1,.093.537,2.171,2.171,0,0,1-.016.23,1.242,1.242,0,0,1-.077.3,1.546,1.546,0,0,1-.172.326,1.139,1.139,0,0,1-.306.3,1.684,1.684,0,0,1-.481.215,2.534,2.534,0,0,1-.689.082,2.59,2.59,0,0,1-.747-.1A1.533,1.533,0,0,1,.487,4.9a1.4,1.4,0,0,1-.373-.552A2.013,2.013,0,0,1,0,3.541H.436a1.59,1.59,0,0,0,.108.66" transform="translate(23.15 23.673)" fill="#1be7b2"/><path d="M.432,0V2.313h2.7V0h.432V5.327H3.129V2.745H.432V5.327H0V0Z" transform="translate(29.679 23.673)" fill="#1be7b2"/><path d="M.4,5.327H0L1.589,0h.421l1.55,5.325h-.4L2.675,3.67H.875L.4,5.326ZM1.784.508h0L.992,3.237H2.548L1.784.508Z" transform="translate(36.802 23.673)" fill="#1be7b2"/><path d="M.43,5.327H0V0H2.069A1.692,1.692,0,0,1,2.6.083a1.233,1.233,0,0,1,.436.249,1.2,1.2,0,0,1,.3.433,1.577,1.577,0,0,1,.111.623,1.7,1.7,0,0,1-.221.88,1.011,1.011,0,0,1-.658.478V2.76a.911.911,0,0,1,.368.139.8.8,0,0,1,.237.257,1.182,1.182,0,0,1,.133.361,3.153,3.153,0,0,1,.053.445c0,.077.007.169.011.276l0,.051c0,.134.013.266.025.391a2.739,2.739,0,0,0,.06.373.754.754,0,0,0,.11.27l-.473,0a.687.687,0,0,1-.06-.183A1.965,1.965,0,0,1,3,4.92c-.006-.077-.012-.153-.016-.228l0-.076c0-.044,0-.083-.007-.119-.009-.194-.023-.383-.041-.562a1.748,1.748,0,0,0-.121-.5.851.851,0,0,0-.266-.355.668.668,0,0,0-.418-.121H.43V5.326ZM.43.433v2.1H2.037a1.015,1.015,0,0,0,.374-.07.93.93,0,0,0,.31-.205,1.026,1.026,0,0,0,.212-.325,1.144,1.144,0,0,0,.079-.436A1.163,1.163,0,0,0,2.77.716.912.912,0,0,0,2.037.433Z" transform="translate(43.925 23.673)" fill="#1be7b2"/><path d="M2.938,0V.432H.406V2.358H2.777v.433H.406v2.1H2.968v.432H0V0Z" transform="translate(50.455 23.673)" fill="#1be7b2"/><path d="M3.561,0V.432H1.992V5.327H1.563V.432H0V0Z" transform="translate(60.545 23.673)" fill="#1be7b2"/><path d="M.432,0V2.313h2.7V0h.432V5.327H3.129V2.745H.432V5.327H0V0Z" transform="translate(67.668 23.673)" fill="#1be7b2"/><path d="M2.938,0V.432H.406V2.358H2.777v.433H.406v2.1H2.968v.432H0V0Z" transform="translate(74.791 23.673)" fill="#1be7b2"/><path d="M2.958,1.129A1.377,1.377,0,0,0,2.677.738,1.2,1.2,0,0,0,2.312.5,1.092,1.092,0,0,0,1.893.416a1.2,1.2,0,0,0-.686.193,1.519,1.519,0,0,0-.469.512,2.548,2.548,0,0,0-.27.721,3.959,3.959,0,0,0,0,1.646,2.538,2.538,0,0,0,.27.724,1.519,1.519,0,0,0,.469.512,1.2,1.2,0,0,0,.686.194A1,1,0,0,0,2.4,4.789a1.263,1.263,0,0,0,.387-.351,1.909,1.909,0,0,0,.264-.52,2.65,2.65,0,0,0,.129-.642h.382a3.4,3.4,0,0,1-.174.853,2.177,2.177,0,0,1-.348.645,1.5,1.5,0,0,1-.5.409,1.436,1.436,0,0,1-.644.143,1.552,1.552,0,0,1-.828-.218,1.846,1.846,0,0,1-.592-.585,2.762,2.762,0,0,1-.354-.846A4.235,4.235,0,0,1,0,2.667,4.239,4.239,0,0,1,.118,1.656,2.815,2.815,0,0,1,.472.807,1.845,1.845,0,0,1,1.065.218,1.552,1.552,0,0,1,1.893,0,1.519,1.519,0,0,1,2.946.426a1.791,1.791,0,0,1,.371.519,2.1,2.1,0,0,1,.188.71H3.124a1.946,1.946,0,0,0-.166-.527" transform="translate(86.07 23.673)" fill="#1be7b2"/><path d="M.4,5.327H0L1.589,0h.421l1.55,5.325h-.4L2.675,3.67H.875L.4,5.326ZM1.784.508h0L.992,3.237H2.548L1.784.508Z" transform="translate(91.412 23.673)" fill="#1be7b2"/><path d="M.43,5.327H0V0H2.069A1.692,1.692,0,0,1,2.6.083a1.233,1.233,0,0,1,.436.249,1.2,1.2,0,0,1,.3.433,1.577,1.577,0,0,1,.111.623,1.7,1.7,0,0,1-.221.88,1.011,1.011,0,0,1-.658.478V2.76a.911.911,0,0,1,.368.139.8.8,0,0,1,.237.257,1.182,1.182,0,0,1,.133.361,3.153,3.153,0,0,1,.053.445c0,.077.007.169.011.276l0,.051c0,.134.013.266.025.391a2.739,2.739,0,0,0,.06.373.754.754,0,0,0,.11.27l-.473,0a.687.687,0,0,1-.06-.183A1.965,1.965,0,0,1,3,4.92c-.006-.077-.012-.153-.016-.228l0-.076c0-.044,0-.083-.007-.119-.009-.194-.023-.383-.041-.562a1.748,1.748,0,0,0-.121-.5.851.851,0,0,0-.266-.355.668.668,0,0,0-.418-.121H.43V5.326ZM.43.433v2.1H2.037a1.015,1.015,0,0,0,.374-.07.93.93,0,0,0,.31-.205,1.026,1.026,0,0,0,.212-.325,1.144,1.144,0,0,0,.079-.436A1.163,1.163,0,0,0,2.77.716.912.912,0,0,0,2.037.433Z" transform="translate(99.128 23.673)" fill="#1be7b2"/><path d="M2.938,0V.432H.406V2.358H2.777v.433H.406v2.1H2.968v.432H0V0Z" transform="translate(106.251 23.673)" fill="#1be7b2"/></svg>