<svg data-name="user (6)" xmlns="http://www.w3.org/2000/svg" width="8" height="10" viewBox="0 0 8 10">
    <path d="M.67 3.992A2.288 2.288 0 0 1 0 2.339 2.289 2.289 0 0 1 .67.685 2.19 2.19 0 0 1 2.288 0a2.191 2.191 0 0 1 1.618.685 2.289 2.289 0 0 1 .67 1.654 2.288 2.288 0 0 1-.67 1.653 2.19 2.19 0 0 1-1.618.685A2.191 2.191 0 0 1 .67 3.992z" transform="translate(1.65)" style="fill:#fff"/>
    <path data-name="Shape" d="M1.691 5.019a1.69 1.69 0 0 1-1.218-.45A1.623 1.623 0 0 1 0 3.35c0-.195.006-.388.019-.573A5.794 5.794 0 0 1 .1 2.162a4.915 4.915 0 0 1 .149-.617A3.071 3.071 0 0 1 .5.97a2.172 2.172 0 0 1 .377-.5 1.666 1.666 0 0 1 .539-.343A1.854 1.854 0 0 1 2.109 0a.7.7 0 0 1 .375.161l.391.255a2.215 2.215 0 0 0 .505.226A1.989 1.989 0 0 0 4 .744a1.984 1.984 0 0 0 .619-.1 2.241 2.241 0 0 0 .505-.227l.391-.256A.7.7 0 0 1 5.891 0a1.858 1.858 0 0 1 .693.127 1.663 1.663 0 0 1 .543.345A2.161 2.161 0 0 1 7.5.97a3.062 3.062 0 0 1 .251.575 4.915 4.915 0 0 1 .149.617 5.877 5.877 0 0 1 .078.614c.013.185.019.378.019.573a1.622 1.622 0 0 1-.473 1.22 1.69 1.69 0 0 1-1.218.45z" transform="translate(0 4.981)" style="fill:#fff"/>
</svg>
