<svg xmlns="http://www.w3.org/2000/svg" width="12" height="15" viewBox="0 0 12 15">
    <path data-name="Fill 1" d="M5.5 14a.385.385 0 0 1-.244-.088A15.7 15.7 0 0 1 .5 7.96a5.612 5.612 0 0 1-.365-1.106C.115 6.757.1 6.688.1 6.665A5.6 5.6 0 0 1 0 5.612 5.562 5.562 0 0 1 5.5 0 5.571 5.571 0 0 1 11 5.612a5.91 5.91 0 0 1-.1 1.054c0 .02-.014.079-.038.188A5.5 5.5 0 0 1 10.5 7.96a15.716 15.716 0 0 1-4.752 5.953A.39.39 0 0 1 5.5 14zm0-11.1a2.771 2.771 0 0 0 0 5.541 2.771 2.771 0 0 0 0-5.541z" style="fill:none;stroke:#6b6b6b;stroke-miterlimit:10" transform="translate(.5 .5)"/>
</svg>
