<svg height="30" viewBox="0 0 28 30" width="28" xmlns="http://www.w3.org/2000/svg" xmlns:xlink="http://www.w3.org/1999/xlink"><linearGradient id="a" gradientUnits="objectBoundingBox" x1=".039" x2="1" y2="1"><stop offset="0" stop-color="#34e7a4"/><stop offset="1" stop-color="#0073ff"/></linearGradient><g fill="url(#a)"><path d="m14 30a31.159 31.159 0 0 1 -9.554-1.338c-3.675-1.236-4.446-2.822-4.446-3.935 0-3.386 6.644-4.611 8.681-4.906l-3.007-4.444a9.216 9.216 0 0 1 -1.94-5.65 9.41 9.41 0 0 1 3.013-6.867 10.483 10.483 0 0 1 7.253-2.86 10.019 10.019 0 0 1 10.266 9.727 9.216 9.216 0 0 1 -1.887 5.579l-.018.024c-.022.027-.022.027-1.134 1.67l-1.909 2.821c2.036.295 8.682 1.524 8.682 4.906 0 2.032-2.436 3.267-4.48 3.945a31.838 31.838 0 0 1 -9.52 1.328zm-4.215-8.549c-5.461.639-7.918 2.3-7.918 3.275 0 .757 1.27 1.644 3.313 2.314a29.457 29.457 0 0 0 8.82 1.2 29.394 29.394 0 0 0 8.836-1.206c2.034-.67 3.3-1.555 3.3-2.309 0-.975-2.456-2.636-7.918-3.275l-3.428 5.066a.965.965 0 0 1 -1.574 0zm4.215-19.693a8.2 8.2 0 0 0 -8.4 7.969 7.54 7.54 0 0 0 1.6 4.639l.01.013.023.031 6.767 10 3.9-5.769.008-.011c2.906-4.3 2.906-4.3 2.944-4.337l.012-.014a7.542 7.542 0 0 0 1.536-4.552 8.2 8.2 0 0 0 -8.4-7.969z"/><path d="m4.186 8.372a4.186 4.186 0 1 1 4.186-4.186 4.191 4.191 0 0 1 -4.186 4.186zm0-6.7a2.512 2.512 0 1 0 2.514 2.514 2.515 2.515 0 0 0 -2.514-2.512z" transform="translate(9.882 5.376)"/></g></svg>