<svg height="60" viewBox="0 0 40 60" width="40" xmlns="http://www.w3.org/2000/svg"><g fill="#1b69c7"><path d="m248.2 40a1.289 1.289 0 1 0 1.279 1.3 1.29 1.29 0 0 0 -1.279-1.3z" transform="translate(-228.083 -34.849)"/><path d="m195.089 100a9.023 9.023 0 1 0 -.135 18.045h.069a9.023 9.023 0 0 0 .066-18.045zm-.066 15.467h-.049a6.445 6.445 0 0 1 .047-12.89h.049a6.445 6.445 0 0 1 -.047 12.89z" transform="translate(-175.021 -88.724)"/><path d="m288.007 47.086a1.289 1.289 0 1 0 -.861 2.43 14.162 14.162 0 0 1 9.416 13.455 1.289 1.289 0 0 0 1.279 1.3h.01a1.289 1.289 0 0 0 1.289-1.279 16.742 16.742 0 0 0 -11.133-15.906z" transform="translate(-264.295 -40.952)"/><path d="m113.215 44.114c7.825-10.033 12.715-15.264 12.785-24.042a20 20 0 0 0 -40-.3c-.067 9.016 4.914 14.241 12.793 24.34-7.842 1.167-12.793 4.099-12.793 7.688 0 2.4 2.229 4.557 6.276 6.069a40.618 40.618 0 0 0 13.724 2.131 40.618 40.618 0 0 0 13.723-2.134c4.044-1.512 6.277-3.666 6.277-6.066 0-3.587-4.954-6.518-12.785-7.686zm-24.865-24.323a17.647 17.647 0 0 1 35.293.264c-.063 8.336-5.249 13.473-13.528 24.224a234.627 234.627 0 0 0 -4.117 5.5 218.197 218.197 0 0 0 -4.108-5.5c-8.622-11.202-13.604-15.951-13.54-24.488zm17.65 37.865c-10.1 0-17.647-3.093-17.647-5.859 0-2.051 4.511-4.643 12.1-5.54a210.172 210.172 0 0 1 4.589 6.216 1.178 1.178 0 0 0 .96.5 1.178 1.178 0 0 0 .96-.494 219.089 219.089 0 0 1 4.6-6.216c7.578.9 12.086 3.489 12.086 5.539-.005 2.761-7.548 5.854-17.648 5.854z" transform="translate(-85.996)"/></g></svg>