<svg height="21" viewBox="0 0 28 21" width="28" xmlns="http://www.w3.org/2000/svg" xmlns:xlink="http://www.w3.org/1999/xlink"><defs><linearGradient id="a" x1="-10.5041%" x2="107.975581%" y1="-32.476708%" y2="123.015466%"><stop offset="0" stop-color="#2d79e6"/><stop offset="1" stop-color="#053476"/></linearGradient><circle id="b" cx="10" cy="10" r="6.666667"/><filter id="c" height="225%" width="250%" x="-112.5%" y="-60%"><feMorphology in="SourceAlpha" operator="erode" radius="3.5" result="shadowSpreadOuter1"/><feOffset dx="0" dy="7" in="shadowSpreadOuter1" result="shadowOffsetOuter1"/><feGaussianBlur in="shadowOffsetOuter1" result="shadowBlurOuter1" stdDeviation="5"/><feColorMatrix in="shadowBlurOuter1" type="matrix" values="0 0 0 0 1   0 0 0 0 1   0 0 0 0 1  0 0 0 1 0"/></filter><linearGradient id="d" x1="3.928469%" x2="100%" y1="0%" y2="100%"><stop offset="0" stop-color="#34e7a4"/><stop offset="1" stop-color="#0073ff"/></linearGradient></defs><g fill="none" fill-rule="evenodd" transform="translate(7.167825)"><circle cx="10" cy="10" fill="url(#a)" r="10"/><use fill="#000" filter="url(#c)" xlink:href="#b"/><use fill="#fff" fill-rule="evenodd" xlink:href="#b"/><path d="m8.28769724.05031047c-.0476093-.05041452-.12104059-.06446447-.18317476-.03520752l-8.0104662 3.76538606c-.06439359.03041401-.10199687.10000257-.0926364.17207054s.06342527.12925952.13330604.14116066l3.59296885.61671007.41073107 3.47744477c.00871492.07239855.06277972.13074716.13298326.14297888.00919908.00165294.01823678.0024794.02727448.0024794.06052029 0 .11716729-.03487693.14460315-.09190319l3.87329886-8.00268507c.03034084-.06264624.01872095-.13818537-.02888835-.1884346z" fill="url(#d)" transform="translate(5 6.666667)"/></g></svg>