<svg height="19.999" viewBox="0 0 20 19.999" width="20" xmlns="http://www.w3.org/2000/svg"><g fill="#374151"><path d="m277.957 209.258h7.916a.625.625 0 1 0 0-1.25h-7.916a.625.625 0 1 0 0 1.25zm0 0" transform="translate(-277.331 -199.883)"/><path d="m403.754 135.471a.625.625 0 0 0 .442-1.067l-2.683-2.683 2.683-2.683a.625.625 0 0 0 -.884-.884l-3.125 3.125a.625.625 0 0 0 0 .884l3.125 3.125a.621.621 0 0 0 .442.183zm0 0" transform="translate(-400.004 -122.972)"/><path d="m1.666 20.007a1.717 1.717 0 0 0 .517-.078l5.017-1.67a1.682 1.682 0 0 0 1.135-1.585v-15a1.668 1.668 0 0 0 -1.669-1.666 1.719 1.719 0 0 0 -.517.078l-5.014 1.67a1.682 1.682 0 0 0 -1.135 1.585v15a1.668 1.668 0 0 0 1.667 1.667zm5-18.749a.418.418 0 0 1 .417.417v15a.433.433 0 0 1 -.289.4l-4.994 1.664a.453.453 0 0 1 -.136.018.418.418 0 0 1 -.417-.417v-15a.433.433 0 0 1 .289-.4l4.994-1.664a.452.452 0 0 1 .136-.018zm0 0" transform="translate(11.667 -.008)"/><path d="m27.293 6.675a.625.625 0 0 0 .625-.625v-3.75a1.043 1.043 0 0 1 1.042-1.042h9.375a.625.625 0 1 0 0-1.25h-9.376a2.293 2.293 0 0 0 -2.291 2.292v3.75a.625.625 0 0 0 .625.625zm0 0" transform="translate(-20.001 -.008)"/><path d="m183.624 284.007h3.333a.625.625 0 1 0 0-1.25h-3.333a1.043 1.043 0 0 1 -1.042-1.042v-3.75a.625.625 0 1 0 -1.25 0v3.75a2.293 2.293 0 0 0 2.292 2.292zm0 0" transform="translate(-174.665 -266.507)"/></g></svg>