<?xml version="1.0" encoding="utf-8"?>
<!-- Generator: Adobe Illustrator 22.1.0, SVG Export Plug-In . SVG Version: 6.00 Build 0)  -->
<svg version="1.1" id="Layer_1" xmlns="http://www.w3.org/2000/svg" xmlns:xlink="http://www.w3.org/1999/xlink" x="0px" y="0px"
	 viewBox="0 0 198 208.9" style="enable-background:new 0 0 198 208.9;" xml:space="preserve">
<style type="text/css">
	.st0{fill:#B7B9BA;}
	.st1{fill:#83E7D3;}
</style>
<g>
	<g>
		<path class="st0" d="M93.9,196c-10.7,0-21.3,0.2-32-0.1c-4.7-0.1-8.3,1-11.4,4.6c-2.8,3.3-6,8.1-9.4,8.4c-3.5,0.3-6.3-5.2-9.4-8.2
			c-10-9.8-19.8-19.8-29.8-29.6c-2.6-2.5-2.9-4.3-0.1-6.9c12.3-11.7,24-24.1,36.7-35.3c14-12.5,30.3-12.7,47.1-5.8
			c3,1.2,5.9,1.8,9.1,2c9.9,0.6,20-1.6,29.7,1.8c5.3,1.9,8.5,5.4,9.2,11.2c0.6,5.3-2,10.3-6.7,12.8c-3.9,2.1-7.9,3.2-12.4,3.1
			c-6.3-0.2-12.7,0-19,0c-2.3,0-3.8,0.9-3.9,3.5c0,2.4,1.6,3.4,3.5,3.4c11.7,0.1,23.4,0.8,35-0.2c5.4-0.5,9-6.5,13.3-10
			c9.8-7.9,19.3-16.3,29.7-23.6c5.7-4,11.9-6.5,19.2-4c5.9,2,7.5,6.8,3.3,11.5c-11.6,13-23.3,26-35,39c-4.1,4.6-8.1,9.3-12.3,13.8
			c-5.4,5.8-12.3,8.5-20,8.6C116.9,196.1,105.4,196,93.9,196z"/>
		<path class="st1" d="M93.6,10.9c7.2-0.4,13.7,1.6,18.7,6.6c2.7,2.7,4.6,2.4,7,0.2c7.8-7.5,17.2-7.9,27-5.6
			c10.8,2.6,19.2,16.1,17.3,27.1c-1.2,7-4.4,12.8-9.3,17.7c-11.5,11.6-23.1,23-34.5,34.7c-2.7,2.8-4.4,2.9-7.3,0
			c-12.3-12.6-25-25-37.4-37.5c-13.4-13.5-7.2-37.4,11-42.6C88.5,10.7,91.1,11,93.6,10.9z"/>
	</g>
</g>
</svg>
