<svg xmlns="http://www.w3.org/2000/svg" width="46" height="46" viewBox="0 0 46 46">
    <defs>
        <linearGradient id="b1op80r3jb" x1=".5" x2=".5" y2="1" gradientUnits="objectBoundingBox">
            <stop offset="0" stop-color="#0097ee"/>
            <stop offset="1" stop-color="#1be7b2"/>
        </linearGradient>
        <filter id="8keeb5gvsa" x="0" y="0" width="46" height="46" filterUnits="userSpaceOnUse">
            <feOffset dy="3"/>
            <feGaussianBlur stdDeviation="3" result="blur"/>
            <feFlood flood-opacity=".161"/>
            <feComposite operator="in" in2="blur"/>
            <feComposite in="SourceGraphic"/>
        </filter>
    </defs>
    <g data-name="Group 323">
        <g style="filter:url(#8keeb5gvsa)">
            <circle data-name="Ellipse 21" cx="14" cy="14" r="14" transform="translate(9 6)" style="fill:#fff"/>
        </g>
        <g data-name="Group 205">
            <g data-name="Group 204">
                <path data-name="Path 436" d="M161.79 8.68a2.057 2.057 0 0 0-1.421-.555 2.265 2.265 0 0 0-1.6.664l-.187.187-.187-.187a2.267 2.267 0 0 0-1.6-.663 2.057 2.057 0 0 0-1.421.555 2.122 2.122 0 0 0-.047 3.047l3.251 3.251 3.251-3.251a2.122 2.122 0 0 0-.039-3.048z" transform="translate(-134.19 3.875)" style="fill:url(#b1op80r3jb)"/>
            </g>
        </g>
        <g data-name="Group 207">
            <g data-name="Group 206">
                <path data-name="Path 437" d="M15.791 232.638a1.474 1.474 0 0 0-1.61.058c-.521.3-3.515 2.861-3.515 2.861H7.719a.322.322 0 0 1-.286-.291.292.292 0 0 1 .286-.286h1.8a1.249 1.249 0 0 0 1.338-1.142 1.218 1.218 0 0 0-1.335-1.138H8.214a2.653 2.653 0 0 1-1.226-.21 3.382 3.382 0 0 0-1.545-.367 3.3 3.3 0 0 0-2.367.97L0 236.123l3.427 3.427 1.142-1.142h5.784a2.351 2.351 0 0 0 1.561-.593l3.916-4.393a.5.5 0 0 0-.039-.784z" transform="translate(15 -211.549)" style="fill:url(#b1op80r3jb)"/>
            </g>
        </g>
    </g>
</svg>
