<svg height="16.604" viewBox="0 0 16.605 16.604" width="16.605" xmlns="http://www.w3.org/2000/svg"><g stroke="#707070" stroke-width=".5"><path d="m161.79 8.68a2.057 2.057 0 0 0 -1.421-.555 2.265 2.265 0 0 0 -1.6.664l-.187.187-.187-.187a2.267 2.267 0 0 0 -1.6-.663 2.057 2.057 0 0 0 -1.421.555 2.122 2.122 0 0 0 -.047 3.047l3.251 3.251 3.251-3.251a2.122 2.122 0 0 0 -.039-3.048z" fill="#1be7b2" transform="translate(-148.835 -7.875)"/><path d="m15.791 232.638a1.474 1.474 0 0 0 -1.61.058c-.521.3-3.515 2.861-3.515 2.861h-2.947a.322.322 0 0 1 -.286-.291.292.292 0 0 1 .286-.286h1.8a1.249 1.249 0 0 0 1.338-1.142 1.218 1.218 0 0 0 -1.335-1.138h-1.308a2.653 2.653 0 0 1 -1.226-.21 3.382 3.382 0 0 0 -1.545-.367 3.3 3.3 0 0 0 -2.367.97l-3.076 3.03 3.427 3.427 1.142-1.142h5.784a2.351 2.351 0 0 0 1.561-.593l3.916-4.393a.5.5 0 0 0 -.039-.784z" fill="none" transform="translate(.355 -223.299)"/></g></svg>