<svg xmlns="http://www.w3.org/2000/svg" width="30" height="33.235" viewBox="0 0 30 33.235">
    <path data-name="Fill 1" d="M29.651 33.235H.347A.807.807 0 0 1 0 32.46a7.082 7.082 0 0 1 1.168-3.787 7.972 7.972 0 0 1 3.022-2.558 31.034 31.034 0 0 1 5.591-2.092.631.631 0 0 0 .493-.471 8 8 0 0 0 .371-3.358.628.628 0 0 0-.18-.351c-.345-.33-.639-.589-.927-.816a2.919 2.919 0 0 1-1.2-2.6.443.443 0 0 0-.373-.544 2.712 2.712 0 0 1-1.853-2.464 2.748 2.748 0 0 1 1.548-2.608c.076-.037.152-.072.219-.1l.093-.042a56.686 56.686 0 0 0-.219-.689 23.803 23.803 0 0 1-.462-1.552 5.377 5.377 0 0 1-.044-2.509 4.359 4.359 0 0 1 2.137-2.884 1.024 1.024 0 0 0 .3-.234A6.646 6.646 0 0 1 15.117 0 9.168 9.168 0 0 1 17.3.282a11.12 11.12 0 0 1 1.16.38l.378.138a.815.815 0 0 1 .6.728.83.83 0 0 1-.513.859.849.849 0 0 0-.105.068l-.08.056.169.072a2.27 2.27 0 0 1 .3.14c.173.1.352.205.524.3a11.857 11.857 0 0 1 1.322.834 4.409 4.409 0 0 1 1.738 3.988 8.154 8.154 0 0 1-.654 2.848l.082.047.173.1a2.731 2.731 0 0 1 1.479 2.677 2.639 2.639 0 0 1-1.9 2.391.379.379 0 0 0-.312.457 2.981 2.981 0 0 1-1.247 2.705c-.1.074-.187.158-.275.24a2.934 2.934 0 0 1-.368.306 1.056 1.056 0 0 0-.464.963 9.022 9.022 0 0 0 .439 3.033.54.54 0 0 0 .411.389 38.743 38.743 0 0 1 5.4 1.972 7.756 7.756 0 0 1 3.838 3.72A6.658 6.658 0 0 1 30 32.622a.758.758 0 0 1-.348.613zm-11.857-2.206v1.03h2.795v-1.03zM10.3 25a.385.385 0 0 0-.113.019 42.877 42.877 0 0 0-5.251 1.927 6.72 6.72 0 0 0-3.2 3.02 5.025 5.025 0 0 0-.557 2.088h5.542v-1.05a.564.564 0 0 1 .553-.592h.007a.563.563 0 0 1 .549.6v1.032h8.92v-.819c0-.879.251-1.193 1.116-1.4v-.472a.539.539 0 0 1 .546-.593.554.554 0 0 1 .563.586c.006.116 0 .233 0 .345v.145h.549v-.509a.546.546 0 0 1 .556-.567h.025a.536.536 0 0 1 .527.58c.005.119 0 .237 0 .352v.142a1.158 1.158 0 0 1 1.115 1.316v.901h.563V31.06c0-.388.226-.648.551-.648h.017a.577.577 0 0 1 .542.643V32.05h5.534v-.082a.851.851 0 0 0 0-.134 5.827 5.827 0 0 0-2.993-4.473 26.312 26.312 0 0 0-5.667-2.24l-.355-.109a.353.353 0 0 0-.1-.017c-.122 0-.184.087-.249.18l-.03.043c-.344.47-.695.943-1.034 1.4a127.508 127.508 0 0 0-2.39 3.3 1.318 1.318 0 0 1-1.069.636 1.3 1.3 0 0 1-1.057-.625c-.764-1.1-1.573-2.193-2.356-3.251-.357-.483-.726-.982-1.086-1.475C10.5 25.1 10.429 25 10.3 25zm3.377 2.5.443.64.88 1.272 1.323-1.912zM11.9 20.883a10.121 10.121 0 0 1-.557 3.1.449.449 0 0 0 .058.351 56.81 56.81 0 0 0 1.2 1.658.631.631 0 0 0 .332.221 9.272 9.272 0 0 0 4.312 0 .629.629 0 0 0 .328-.226c.457-.6.844-1.137 1.183-1.633a.583.583 0 0 0 .056-.409 25.27 25.27 0 0 0-.19-.778 18.498 18.498 0 0 1-.234-.989 7.792 7.792 0 0 1-.1-.864 23.746 23.746 0 0 0-.037-.408l-.135.114a5.558 5.558 0 0 0-.238.206 2.888 2.888 0 0 1-2.024.8h-.106a20.278 20.278 0 0 0-.591-.008h-.904a2.752 2.752 0 0 1-1.873-.718c-.108-.1-.219-.191-.347-.3zm2.3.132c.134 0 .27 0 .4.006H14.7c.158 0 .321.006.481.006a6.749 6.749 0 0 0 .7-.031 1.958 1.958 0 0 0 1.01-.372c.872-.716 1.731-1.478 2.561-2.214l.564-.5a1.592 1.592 0 0 0 .551-1.242v-1.109c.008-.43.172-.607.625-.677a2.533 2.533 0 0 0 .772-.219 1.606 1.606 0 0 0 .811-1.679 1.536 1.536 0 0 0-1.1-1.277v.626c0 .115 0 .233-.007.349a.55.55 0 0 1-.54.543h-.007a.56.56 0 0 1-.547-.5 1.633 1.633 0 0 1-.013-.269V11.84c0-.393 0-.8-.016-1.2a1.456 1.456 0 0 0-.6-1.183.574.574 0 0 0-.325-.074 3.057 3.057 0 0 0-.333.025c-.062.007-.123.014-.181.018-.36.028-.692.042-1.015.042a7.683 7.683 0 0 1-3.376-.7c-.663-.317-1.357-.6-2.028-.869l-.7-.284a1.6 1.6 0 0 0-.471-.116c-.051 0-.1-.006-.152-.006A1.484 1.484 0 0 0 10 8.438a5.871 5.871 0 0 0-.55 2.623V12.592a.578.578 0 0 1-.556.636h-.012c-.324 0-.539-.248-.548-.632v-.872l-.127-.086c-.078.076-.163.15-.245.222a2.608 2.608 0 0 0-.494.516 1.594 1.594 0 0 0-.1 1.574 1.679 1.679 0 0 0 1.373.934c.549.05.7.215.7.765v1.011a1.62 1.62 0 0 0 .567 1.267c1.057.93 2.1 1.839 3.067 2.682a1.588 1.588 0 0 0 1.073.4zm5.788-12.84a.863.863 0 0 1 .654.253c.2.2.391.416.595.643.1.109.2.222.307.341.023-.216.048-.429.073-.64V8.76c.054-.459.1-.893.137-1.336a3.2 3.2 0 0 0-1.281-2.812 7.687 7.687 0 0 0-2.38-1.278.877.877 0 0 1-.593-.58.89.89 0 0 1 .223-.811c.065-.078.134-.151.222-.244l.162-.172c-.2-.048-.4-.1-.584-.147a11.824 11.824 0 0 0-1.161-.26 7.57 7.57 0 0 0-1.149-.092 5.35 5.35 0 0 0-4.556 2.418.959.959 0 0 1-.35.319c-2.051.959-2.263 3.249-1.592 4.97.077-.135.15-.273.227-.42a7.09 7.09 0 0 1 .58-.973 2.419 2.419 0 0 1 1.958-1.009 2.747 2.747 0 0 1 .963.181c.579.217 1.16.46 1.722.7.234.1.468.2.7.292.142.058.285.121.423.182.28.123.568.249.861.346a5.972 5.972 0 0 0 1.909.282 14.484 14.484 0 0 0 1.717-.126 1.731 1.731 0 0 1 .213-.016z" style="fill:#676767"/>
</svg>
