<svg xmlns="http://www.w3.org/2000/svg" width="25" height="35" viewBox="0 0 25 35">
    <defs>
        <linearGradient id="9w50uwul3a" x1=".039" x2="1" y2="1" gradientUnits="objectBoundingBox">
            <stop offset="0" stop-color="#34e7a4"/>
            <stop offset="1" stop-color="#0073ff"/>
        </linearGradient>
    </defs>
    <path d="M12.5 35a1.119 1.119 0 0 1-.837-.379C11.186 34.084 0 21.36 0 12.676A12.6 12.6 0 0 1 12.5 0 12.6 12.6 0 0 1 25 12.676a18.1 18.1 0 0 1-1.755 7.013 47.53 47.53 0 0 1-3.9 7.011 76.964 76.964 0 0 1-6.01 7.921A1.119 1.119 0 0 1 12.5 35zm0-28.7a6.378 6.378 0 1 0 6.289 6.377A6.341 6.341 0 0 0 12.5 6.3z" style="fill:url(#9w50uwul3a)"/>
</svg>
