<svg height="30" viewBox="0 0 30 30" width="30" xmlns="http://www.w3.org/2000/svg" xmlns:xlink="http://www.w3.org/1999/xlink"><linearGradient id="a" gradientUnits="objectBoundingBox" x1=".737" x2=".284" y1=".654"><stop offset="0" stop-color="#0097ee"/><stop offset="1" stop-color="#1be7b2"/></linearGradient><g fill="url(#a)"><path d="m28.056 91.837a2.021 2.021 0 0 0 -1.338.5 2.079 2.079 0 0 0 -1.562-.107 1.766 1.766 0 0 0 -1.182 2.3c1.667 4.348 1.574 4.089 1.58 4.158l-.5.527a1.909 1.909 0 0 0 -.6-.89 2.2 2.2 0 0 0 -2.909.088l-4.6 4.4a2.977 2.977 0 0 0 -.944 2.16v3.7h-.336a1.191 1.191 0 0 0 -.665.2 1.192 1.192 0 0 0 -.665-.2h-.335v-3.7a2.975 2.975 0 0 0 -.944-2.16l-4.6-4.4a2.2 2.2 0 0 0 -2.909-.088 1.91 1.91 0 0 0 -.6.89l-.5-.527a.333.333 0 0 1 .021-.09l1.56-4.069a1.894 1.894 0 0 0 -2.743-2.19 1.967 1.967 0 0 0 -3.285 1.297v4.131a4.578 4.578 0 0 0 1.023 2.857l3.467 4.416a7.677 7.677 0 0 1 1.574 3.636h-.151a1.1 1.1 0 0 0 -1.136 1.052v5.483a1.1 1.1 0 0 0 1.136 1.051h8.422a1.19 1.19 0 0 0 .665-.2 1.189 1.189 0 0 0 .665.2h8.422a1.1 1.1 0 0 0 1.136-1.051v-.577a.472.472 0 0 0 -.942 0v.577a.187.187 0 0 1 -.194.179h-8.422a.187.187 0 0 1 -.194-.179v-3.369h8.81v.757a.473.473 0 0 0 .942 0v-2.871a1.1 1.1 0 0 0 -1.136-1.052h-.152a7.676 7.676 0 0 1 1.574-3.636l3.464-4.411a4.584 4.584 0 0 0 1.027-2.862v-4.131a1.878 1.878 0 0 0 -1.944-1.8zm-22.919 2.394-1.25 3.259v-3.854a1.694 1.694 0 0 0 -.1-.564.972.972 0 0 1 1.347 1.159zm.115 10.3-3.471-4.42a3.747 3.747 0 0 1 -.84-2.34v-4.135a.968.968 0 0 1 1-.927.968.968 0 0 1 1 .927v4.317a1.193 1.193 0 0 0 .327.81c3.172 3.374 1.2 1.361 4.81 4.976a.5.5 0 0 0 .666.024.413.413 0 0 0 .026-.616c-2.619-2.621-2.067-2.058-2.82-2.86a1.008 1.008 0 0 1 .222-1.323 1.211 1.211 0 0 1 1.6.048l4.6 4.4a2.14 2.14 0 0 1 .679 1.554v3.7h-6.036a8.5 8.5 0 0 0 -1.763-4.148zm9.276 10.683a.187.187 0 0 1 -.194.18h-8.421a.187.187 0 0 1 -.194-.18v-3.368h8.81zm0-4.24h-8.809v-1.243a.187.187 0 0 1 .194-.179h8.422a.187.187 0 0 1 .194.179zm10.335-16.743a.91.91 0 0 1 .609-1.184 1.073 1.073 0 0 1 .738.025 1.7 1.7 0 0 0 -.1.564v3.854zm-.776 15.316a.187.187 0 0 1 .194.179v1.243h-8.81v-1.243a.187.187 0 0 1 .194-.179zm4.971-11.78a3.752 3.752 0 0 1 -.843 2.344l-3.467 4.415a8.5 8.5 0 0 0 -1.763 4.148h-6.042v-3.7a2.141 2.141 0 0 1 .679-1.554l4.6-4.4a1.211 1.211 0 0 1 1.6-.048 1.007 1.007 0 0 1 .222 1.323c-.754.8-.2.239-2.82 2.86a.414.414 0 0 0 .026.616.5.5 0 0 0 .666-.024c3.657-3.661 1.8-1.777 4.717-4.877a1.259 1.259 0 0 0 .42-.909v-4.325a1 1 0 0 1 2 0v4.131zm0 0" transform="translate(0 -86.261)"/><path d="m121.863 10.281a.456.456 0 1 0 0 .911h6.237a.824.824 0 0 0 .848-.8v-2.262a2.992 2.992 0 0 0 -1.734-2.67 1.879 1.879 0 0 0 .6-1.368 2.073 2.073 0 0 0 -4.138 0 1.879 1.879 0 0 0 .6 1.367c-.046.023-.092.046-.137.071a3.8 3.8 0 0 0 -1.737-1.5 2.239 2.239 0 0 0 .833-1.726 2.456 2.456 0 0 0 -4.9 0 2.239 2.239 0 0 0 .833 1.726 3.8 3.8 0 0 0 -1.737 1.5c-.045-.025-.091-.048-.137-.071a1.878 1.878 0 0 0 .6-1.367 2.073 2.073 0 0 0 -4.138 0 1.879 1.879 0 0 0 .6 1.368 2.992 2.992 0 0 0 -1.734 2.67v2.27a.824.824 0 0 0 .848.8h6.13a.456.456 0 1 0 0-.911h-1.7v-2.976a2.893 2.893 0 0 1 5.775 0v2.968zm3.882-7.22a1.068 1.068 0 0 1 1.1 1.032 1.1 1.1 0 0 1 -2.2 0 1.068 1.068 0 0 1 1.1-1.031zm2.232 5.069v2.151h-3.335v-2.968a3.45 3.45 0 0 0 -.128-.929 2.242 2.242 0 0 1 3.462 1.746zm-12.155-5.068a1.068 1.068 0 0 1 1.1 1.032 1.1 1.1 0 0 1 -2.2 0 1.068 1.068 0 0 1 1.1-1.032zm1.1 4.252v2.968h-3.335v-2.152a2.242 2.242 0 0 1 3.464-1.746 3.458 3.458 0 0 0 -.125.929zm3.857-3.621a1.44 1.44 0 0 1 -1.479-1.393 1.484 1.484 0 0 1 2.963 0 1.44 1.44 0 0 1 -1.479 1.392zm0 0" transform="translate(-105.784)"/></g></svg>