<svg data-name="Group 3" xmlns="http://www.w3.org/2000/svg" width="24" height="28" viewBox="0 0 24 28">
    <defs>
        <linearGradient id="d5r1lbjttb" x1=".039" x2="1" y2="1" gradientUnits="objectBoundingBox">
            <stop offset="0" stop-color="#34e7a4"/>
            <stop offset="1" stop-color="#0073ff"/>
        </linearGradient>
        <clipPath id="7er99aiiza">
            <path data-name="Clip 2" d="M0 0h24v28H0z" style="fill:none"/>
        </clipPath>
    </defs>
    <path data-name="Clip 2" d="M0 0h24v28H0z" style="fill:none"/>
    <g data-name="Group 3" style="clip-path:url(#7er99aiiza)">
        <path data-name="Fill 1" d="M13.367 28H.637C.09 28 0 27.91 0 27.376v-4.105a5.359 5.359 0 0 1 1.264-3.529 5.641 5.641 0 0 1 3.34-1.851 5.413 5.413 0 0 1 .672-.064c.106-.006.216-.012.327-.021-.017-.313.173-.43.483-.516a81.983 81.983 0 0 0 2.334-.689.51.51 0 0 0 .309-.259c.147-.49.262-.993.378-1.508a.274.274 0 0 0-.1-.215 5.427 5.427 0 0 1-1.789-3 .435.435 0 0 0-.231-.248A1.556 1.556 0 0 1 5.96 10.1a2.035 2.035 0 0 1 .216-1.482 2.4 2.4 0 0 1 .284-.33l.154-.163A6.184 6.184 0 0 1 5.7 5.547a3.609 3.609 0 0 1 1.481-3.625A3.753 3.753 0 0 1 9.1 1.27a.6.6 0 0 0 .345-.118A3.935 3.935 0 0 1 12.279 0a5.727 5.727 0 0 1 1.148.124 6.114 6.114 0 0 1 3.028 1.46 4.411 4.411 0 0 1 1.361 3.766 8.519 8.519 0 0 1-.695 2.7 1.95 1.95 0 0 1 .9 1.288 1.859 1.859 0 0 1-.319 1.487 1.754 1.754 0 0 1-.638.5.565.565 0 0 0-.365.422 5.283 5.283 0 0 1-1.7 2.852.394.394 0 0 0-.131.312c.107.524.223.99.354 1.424a.5.5 0 0 0 .3.266c.835.262 1.663.5 2.362.7.239.068.481.175.461.46.19.032.38.06.564.086a9.581 9.581 0 0 1 1.182.22 5.268 5.268 0 0 1 3.9 4.925C24 24.045 24 25.124 24 26.166V27.466c0 .411-.123.53-.55.531H13.367zm-9.931-8.911-.128.066a3.576 3.576 0 0 0-.268.147 4.417 4.417 0 0 0-2.212 3.863c-.01.9-.008 1.818-.005 2.7v1.082a1.225 1.225 0 0 0 .013.153c0 .026.007.052.009.08h8.97L9.7 27l-.217-.346-.111-.174-3.2-5.008c-.21-.329-.2-.429.057-.717l.067-.075c.112-.126.228-.256.351-.375a.251.251 0 0 0 .053-.355l-.069-.119a3.8 3.8 0 0 1-.339-.682.664.664 0 0 0-.655-.539 1.135 1.135 0 0 0-.228.025 3.489 3.489 0 0 1-.183.031.953.953 0 0 0-.5.165 3.426 3.426 0 0 0-.961 2.662c.08.006.158.01.232.014a3.086 3.086 0 0 1 .45.043 2.537 2.537 0 0 1 2.017 2.77c-.023.279-.131.415-.361.456a.954.954 0 0 1-.166.014c-.331 0-.673-.149-.731-.318a.378.378 0 0 1 .21-.509.637.637 0 0 1 .149-.046l.067-.016a1.7 1.7 0 0 0-1.2-1.539 1.463 1.463 0 0 0-.406-.058 1.56 1.56 0 0 0-1.293 2.39l.024-.006c.027-.007.055-.013.083-.022a.717.717 0 0 1 .208-.035.375.375 0 0 1 .362.249.347.347 0 0 1 .008.28.523.523 0 0 1-.307.261c-.069.028-.14.053-.209.077s-.14.049-.209.077a.467.467 0 0 1-.173.036.438.438 0 0 1-.346-.2 2.421 2.421 0 0 1 .579-3.525.384.384 0 0 0 .189-.349l.006-.12a7.614 7.614 0 0 1 .114-1.113 6.711 6.711 0 0 1 .25-.843c.042-.122.085-.248.126-.376zM9.881 20.5l.167 1.073.028.18.847 5.43h2.1l1.041-6.683zm8.491-1.9a.717.717 0 0 0-.741.6.651.651 0 0 1-.066.14c-.013.023-.026.045-.037.068a2.5 2.5 0 0 1-.127.217.815.815 0 0 0-.188.48.947.947 0 0 0 .324.456c.056.055.115.112.164.169.274.311.281.411.055.766l-.775 1.215-.008.013-.783 1.226-2.057 3.23h9.019c0-.02.005-.039.008-.056a.642.642 0 0 0 .01-.1c0-.417 0-.841.008-1.251.009-.927.019-1.884-.026-2.823a4.367 4.367 0 0 0-2.866-3.984.531.531 0 0 0-.136-.038l.639 2.671c.017.057.1.092.182.129l.016.007a1.554 1.554 0 0 1 .863 1.965 1.62 1.62 0 0 1-1.527 1.056 1.715 1.715 0 0 1-.4-.049 1.562 1.562 0 0 1-.281-2.967c.092-.043.227-.16.22-.236a5.232 5.232 0 0 0-.821-2.65.57.57 0 0 0-.441-.231 1.46 1.46 0 0 0-.228-.023zm-9.809-1.2-1.953.572.233.452c.173.336.337.653.5.978.063.125.117.228.165.32.283.536.283.536-.174 1.017l-.2.211a.3.3 0 0 0-.043.442c.645.995 1.291 2.01 1.917 2.992l.025.04.6.942c.034.053.072.106.108.157l.056.079.02-.009.021-.008-.528-3.38v-.023L8.563 17.4zm6.82 0-.461 2.96-.015.1q-.4 2.543-.79 5.072a.6.6 0 0 0 .245-.235q1.1-1.72 2.193-3.438c.04-.064.092-.13.141-.195.123-.16.25-.324.234-.471a.864.864 0 0 0-.308-.438c-.062-.061-.127-.123-.18-.186a.534.534 0 0 0-.039-.044.44.44 0 0 1-.078-.578c.217-.41.431-.829.638-1.235l.187-.366c.04-.078.076-.158.115-.243l.059-.129-1.942-.57zm4.93 4.995a.8.8 0 0 0-.8.74.785.785 0 0 0 .749.811h.046a.794.794 0 0 0 .811-.737.756.756 0 0 0-.213-.561.816.816 0 0 0-.568-.254zM9.94 15.188l-.021.035a.269.269 0 0 0-.029.056c-.177.56-.35 1.107-.518 1.648a.371.371 0 0 0-.018.168c.1.634.194 1.27.289 1.885l.1.621.072.018a.72.72 0 0 0 .122.025c.665.061 1.352.092 2.041.092.653 0 1.328-.028 2.005-.082.189-.015.24-.112.264-.273q.03-.2.058-.407c.061-.43.123-.873.209-1.305a1.643 1.643 0 0 0-.139-1.217 1.457 1.457 0 0 1-.144-.424c-.01-.043-.019-.084-.03-.125-.041-.156-.075-.312-.112-.478l-.054-.238a5.308 5.308 0 0 1-2.055.433 5.2 5.2 0 0 1-2.038-.432zM9.293 4.334a3.563 3.563 0 0 0-1.179 1.527 5.037 5.037 0 0 0-.34 2.381c.026.4-.062.508-.473.566a.657.657 0 0 0-.384.178 1.091 1.091 0 0 0 .619 1.695.494.494 0 0 1 .435.433l.05.2a6.838 6.838 0 0 0 .4 1.257 3.886 3.886 0 0 0 3.556 2.26 4.062 4.062 0 0 0 2.232-.675 4.146 4.146 0 0 0 1.774-2.988.5.5 0 0 1 .473-.494.754.754 0 0 0 .715-.634 2.648 2.648 0 0 0 .008-.747.509.509 0 0 0-.555-.492c-.437-.01-.527-.1-.569-.547a3.34 3.34 0 0 0-.683-1.849 1.766 1.766 0 0 0-1.439-.718c-.061 0-.125 0-.189.008a4.806 4.806 0 0 1-.423.017 7.51 7.51 0 0 1-1.029-.079 6.216 6.216 0 0 1-3-1.3zm4.652.558a2.489 2.489 0 0 1 2.018.978 5.554 5.554 0 0 1 .485.737c.074.127.15.256.232.387.033-.174.069-.348.1-.515a10.747 10.747 0 0 0 .189-1.1 3.573 3.573 0 0 0-1.293-3.4A5.526 5.526 0 0 0 13.095.873 4.887 4.887 0 0 0 12.287.8a3.016 3.016 0 0 0-2.4 1.071.768.768 0 0 1-.5.172 2.75 2.75 0 0 0-2.64 1.65 4.1 4.1 0 0 0 .227 3.287c0-.025.007-.051.011-.077l.006-.036a4.612 4.612 0 0 1 1.882-3.228.839.839 0 0 1 .446-.215c.13 0 .252.079.461.246a5.468 5.468 0 0 0 3.478 1.248c.146 0 .3-.006.445-.017.081-.001.163-.009.242-.009z" style="fill:url(#d5r1lbjttb)"/>
    </g>
</svg>
