<svg height="40" viewBox="0 0 40 40" width="40" xmlns="http://www.w3.org/2000/svg" xmlns:xlink="http://www.w3.org/1999/xlink"><linearGradient id="a"><stop offset="0" stop-color="#34e7a4"/><stop offset="1" stop-color="#0073ff"/></linearGradient><linearGradient id="b" x1="4.639988%" x2="99.227811%" xlink:href="#a" y1="0%" y2="100%"/><linearGradient id="c" x1="3.928469%" x2="100%" xlink:href="#a" y1="0%" y2="100%"/><g fill="none" fill-rule="evenodd"><path d="m31.4604667 24.7874971c-.8157101-.8521702-1.7996079-1.3077859-2.8423714-1.3077859-1.034354 0-2.0266612.4471784-2.8760089 1.2993485l-2.6573649 2.6577584c-.218644-.1181226-.4372879-.2278078-.6475225-.3374931-.3027378-.1518719-.5886568-.2953065-.8325289-.4471784-2.4891773-1.5862177-4.7513012-3.6533631-6.920922-6.3279962-1.0511728-1.3330979-1.757561-2.4552626-2.2705333-3.5943019.6895694-.6327996 1.3286824-1.2909112 1.9509768-1.9237108.2354627-.2362452.4709254-.4809277.7063881-.7171729 1.7659704-1.771839 1.7659704-4.0667923 0-5.83863123l-2.2957615-2.30339063c-.2606908-.26155718-.5297911-.53155168-.7820726-.80154619-.5045629-.52311435-1.034354-1.06310337-1.5809639-1.56934307-.81571015-.80998351-1.79119855-1.24028726-2.81714324-1.24028726-1.0259447 0-2.01825186.43030375-2.85919014 1.24028726-.00840938.00843733-.00840938.00843733-.01681876.01687466l-2.85919014 2.89400361c-1.07640099 1.07997803-1.69028593 2.39620124-1.82483605 3.92335765-.20182519 2.4636999.52138173 4.7586532 1.07640099 6.2604976 1.36232 3.6871125 3.39739063 7.1042305 6.4331778 10.7660309 3.68330964 4.4127228 8.11505434 7.8973393 13.17750274 10.3526019 1.9341581.9196688 4.5158386 2.0080841 7.4002568 2.1937053.1765971.0084374.3616035.0168747.5297912.0168747 1.9425674 0 3.5739876-.7002982 4.8522138-2.0924574.0084094-.0168747.0252282-.025312.0336375-.0421867.4372879-.5315516.9418509-1.0124794 1.471642-1.5271564.3616035-.3459304.7316163-.7087356 1.0932198-1.0884153.8325289-.8690449 1.2698168-1.8815243 1.2698168-2.9193156 0-1.0462287-.4456973-2.0502708-1.295045-2.8940036zm3.010559 8.8845067c-.0084094 0-.0084094.0084373 0 0-.3279659.3543678-.6643412.6749862-1.0259447 1.029354-.5466098.5231144-1.1016291 1.0715407-1.6230108 1.6874657-.8493477.9112314-1.8500642 1.3415352-3.161928 1.3415352-.1261407 0-.2606908 0-.3868316-.0084373-2.4975866-.1603093-4.8185763-1.1390394-6.5593185-1.9743349-4.7597106-2.3118279-8.9391739-5.5939486-12.41224894-9.7535515-2.86759952-3.4677419-4.78493879-6.6739267-6.05475558-10.1163566-.7820726-2.1008948-1.06799161-3.7377365-.94185087-5.2817676.08409383-.98716737.46251605-1.80558822 1.16049482-2.50588647l2.86759952-2.87712895c.41205975-.38811711.84934765-.59905031 1.27822617-.59905031.52979112 0 .95866964.32061847 1.22776988.59061298.00840939.00843733.01681877.01687466.02522815.02531198.51297235.48092772 1.00071655.97873009 1.51368885 1.51028177.2606909.26999451.5297912.53998901.7988914.81842085l2.2957615 2.30339063c.8913946.89435682.8913946 1.72121502 0 2.61557182-.2438721.2446825-.4793348.489365-.7232069.7256102-.7063882.7256102-1.3791388 1.4005965-2.1107551 2.0587081-.0168188.0168747-.0336375.025312-.0420469.0421866-.72320692.7256103-.5886568 1.4343458-.4372879 1.9152736.0084094.0253119.0168188.0506239.0252281.0759359.5970662 1.4512205 1.4380045 2.8180677 2.7162307 4.446472l.0084094.0084374c2.3209896 2.8686916 4.76812 5.1045836 7.4675318 6.8173612.3447847.2193706.6979788.3965545 1.0343541.565301.3027378.1518719.5886568.2953065.8325289.4471784.0336375.0168747.0672751.0421867.1009126.0590613.285919.1434346.5550193.2109332.8325289.2109332.6979788 0 1.1352667-.438741 1.2782262-.5821756l2.8760089-2.8855663c.285919-.2868692.7400257-.6327996 1.2698168-.6327996.5213817 0 .9502602.3290558 1.2109511.615925.0084094.0084373.0084094.0084373.0168187.0168746l4.6335699 4.6489679c.8661665.8606075.8661665 1.746527.0084094 2.6408838z" fill="url(#b)"/><g fill="url(#c)"><path d="m21.6615023 9.54457949c2.1964335.36889803 4.1916671 1.40851971 5.7845006 3.00148851s2.6239836 3.5883717 3.0012337 5.7849918c.0922166.5533471.5700667.9390132 1.1149834.9390132.0670667 0 .12575-.0083841.1928167-.0167681.6203668-.1006086 1.0311501-.6874918.9305501-1.3079112-.4527-2.6577426-1.7102002-5.0807319-3.6299837-7.0006785-1.9197836-1.91994657-4.3425672-3.17755349-7.0000841-3.63029198-.6203668-.10060856-1.1988168.3102097-1.3078002.92224507-.1089833.61203537.2934167 1.20730264.9137835 1.3079112z"/><path d="m39.9826159 17.6599778c-.751737-4.4106468-2.8295717-8.4241665-6.0223422-11.6180832s-7.2048499-5.2724974-11.6139139-6.02450425c-.6165932-.10984369-1.1994005.31263206-1.3092048.92944666-.1013578.62526412.3125198 1.20828066.9375596 1.31812435 3.936061.6675117 7.5258161 2.53485453 10.3807273 5.38234111 2.8549112 2.85593613 4.7131374 6.44698003 5.3804096 10.38445403.0929113.557668.5743608.9463457 1.1233822.9463457.0675718 0 .1266972-.0084495.1942691-.016899.6165932-.0929447 1.0389174-.6844108.9291131-1.3012254z"/></g></g></svg>