<svg height="11" viewBox="0 0 12 11" width="12" xmlns="http://www.w3.org/2000/svg"><g fill="#fff" transform="translate(.167825)"><path d="m6 6c1.65645246 0 3-1.34562867 3-3.00460245s-1.34356744-2.99539755-3-2.99539755-3 1.34562867-3 2.99539755 1.34354754 3.00460245 3 3.00460245zm0-5.21658741c1.21471721 0 2.20859665.99538426 2.20859665 2.21198496s-.99387944 2.21196504-2.20859665 2.21196504-2.20859665-.99538427-2.20859665-2.21198496c0-1.2166007.99385954-2.21196504 2.20859665-2.21196504z"/><path d="m.3883375 11h10.223325c.2167474 0 .3883375-.1681389.3883375-.380527 0-1.99115205-1.65270397-3.619473-3.69376498-3.619473h-3.61247004c-2.03202173 0-3.69376498 1.61946348-3.69376498 3.619473 0 .2123881.17159008.380527.3883375.380527zm3.30542748-3.23894609h3.61247004c1.4811139 0 2.70032298 1.07965507 2.88999168 2.47787309h-9.39245338c.18964911-1.38936055 1.40887776-2.47787309 2.88999166-2.47787309z"/></g></svg>