<svg xmlns="http://www.w3.org/2000/svg" width="20" height="23.284" viewBox="0 0 20 23.284">
    <defs>
        <linearGradient id="4xvhqib35a" x1=".039" x2="1" y2="1" gradientUnits="objectBoundingBox">
            <stop offset="0" stop-color="#34e7a4"/>
            <stop offset="1" stop-color="#0073ff"/>
        </linearGradient>
    </defs>
    <g data-name="avatar copy 3">
        <path d="M5.15 12.537h-.156a4.488 4.488 0 0 1-3.426-1.47C-.295 8.989 0 5.447.04 5.05A4.913 4.913 0 0 1 2.429.66 5.461 5.461 0 0 1 5.048 0h.083a5.44 5.44 0 0 1 2.618.68 4.9 4.9 0 0 1 2.361 4.37c.04.4.334 3.939-1.528 6.017a4.51 4.51 0 0 1-3.432 1.47zM5.043 1.306c-1.059 0-3.538.373-3.7 3.826a.078.078 0 0 1 0 .014.12.12 0 0 0 0 .024c0 .032-.339 3.316 1.207 5.035a3.191 3.191 0 0 0 2.5 1.031h.05a3.212 3.212 0 0 0 2.5-1.031c1.554-1.732 1.207-5 1.2-5.035a.1.1 0 0 1 0-.039c-.151-3.262-2.382-3.8-3.7-3.826h-.057z" transform="translate(4.776)" style="fill:url(#4xvhqib35a)"/>
        <path d="M20 5.975v-.134c-.029-.951-.093-3.176-2.206-3.887l-.049-.014A14.131 14.131 0 0 1 13.7.123a.662.662 0 0 0-.915.159.643.643 0 0 0 .161.9 15.253 15.253 0 0 0 4.445 2c1.134.4 1.261 1.6 1.3 2.691a.952.952 0 0 0 0 .12 8.608 8.608 0 0 1-.1 1.485A18.107 18.107 0 0 1 10 9.454a18.211 18.211 0 0 1-8.587-1.975 8.15 8.15 0 0 1-.1-1.485v-.12c.034-1.1.161-2.292 1.3-2.691a15.4 15.4 0 0 0 4.445-2 .643.643 0 0 0 .161-.9A.662.662 0 0 0 6.3.118a13.976 13.976 0 0 1-4.039 1.816l-.049.014C.1 2.665.035 4.889.006 5.836a.952.952 0 0 1 0 .12v.014A7.275 7.275 0 0 0 .25 8.147a.618.618 0 0 0 .253.3 18.6 18.6 0 0 0 9.5 2.3 18.657 18.657 0 0 0 9.5-2.3.645.645 0 0 0 .253-.3A7.632 7.632 0 0 0 20 5.975z" transform="translate(0 12.537)" style="fill:url(#4xvhqib35a)"/>
    </g>
</svg>
