<svg height="150" viewBox="0 0 150 150" width="150" xmlns="http://www.w3.org/2000/svg" xmlns:xlink="http://www.w3.org/1999/xlink"><linearGradient id="a"><stop offset="0" stop-color="#0097ee"/><stop offset="1" stop-color="#1be7b2"/></linearGradient><linearGradient id="b" x1="86.9" x2="66" xlink:href="#a" y1="46.8" y2="77.3"/><linearGradient id="c" x1="97.8" x2="49.2" xlink:href="#a" y1="54.4" y2="91.5"/><linearGradient id="d" x1="107.6" x2="59" xlink:href="#a" y1="33.6" y2="70.8"/><path d="m63.6 75.6q.4-1.4 1.2-2.7.9-1.2 2-2.2 1.2-1 2.5-1.6c-2.9-2.4-3.9-6.3-2.7-9.9 1.3-3.5 4.6-5.9 8.4-5.9 3.7 0 7.1 2.4 8.4 5.9 1.2 3.6.1 7.5-2.8 9.9q1.4.6 2.6 1.6 1.1 1 2 2.2.8 1.3 1.2 2.7.4 1.5.5 3 0 .3-.2.6-.1.2-.3.4-.2.3-.5.4-.2.1-.5.1h-20.8q-.3 0-.6-.1-.2-.1-.4-.4-.2-.2-.4-.4-.1-.3-.1-.6 0-1.5.5-3z" fill="url(#b)"/><path d="m97.5 80.7q.2.2.3.5 0 .3 0 .6-.1.3-.2.5c-3.1 5-7.7 8.7-13.1 10.8s-11.3 2.4-16.9.8-10.4-5-13.9-9.6c-3.5-4.7-5.4-10.3-5.4-16.1v-.9l-3.4 3.4c-.3.3-.6.5-1 .4-.4 0-.8-.1-1.1-.4-.2-.3-.4-.6-.4-1s.1-.8.4-1l5.9-6q.2-.2.5-.3.3-.1.6-.1.3 0 .6.1.2.1.4.3l6 6c.2.2.4.6.4 1s-.2.7-.5 1c-.2.3-.6.4-1 .4-.4.1-.8-.1-1-.4l-3.4-3.4v.9c0 5.2 1.6 10.2 4.7 14.3s7.5 7.1 12.4 8.5c5 1.4 10.3 1.2 15.1-.6 4.8-1.9 8.9-5.3 11.6-9.6q.1-.3.4-.4.2-.2.5-.3.3 0 .6 0 .3.1.5.2.3.2.4.4z" fill="url(#c)"/><path d="m107.5 66.2q.1.2.1.5 0 .3-.1.6-.1.3-.3.5l-6 5.9q-.2.2-.4.3-.3.1-.6.2-.3-.1-.6-.2-.2-.1-.5-.3l-5.9-5.9c-.2-.3-.4-.7-.4-1.1 0-.3.2-.7.5-1 .2-.2.6-.4 1-.4s.7.1 1 .4l3.4 3.4v-.9c0-5.1-1.7-10.1-4.8-14.3-3.1-4.1-7.4-7.1-12.4-8.5-4.9-1.4-10.2-1.2-15 .7-4.8 1.8-8.9 5.2-11.6 9.6-.2.3-.5.6-.9.6-.4.1-.8.1-1.2-.1-.3-.3-.5-.6-.6-1s0-.8.2-1.1c3.1-4.9 7.6-8.7 13-10.8 5.5-2.1 11.4-2.3 17-.7 5.5 1.6 10.4 4.9 13.9 9.6 3.5 4.6 5.4 10.2 5.4 16v.9l3.4-3.4q.2-.2.5-.3.2-.1.5-.1.3 0 .6.1.3.1.5.3.2.2.3.5z" fill="url(#d)"/></svg>