<svg xmlns="http://www.w3.org/2000/svg" width="160" height="160" viewBox="0 0 160 160">
    <defs>
        <clipPath id="bdi6xtkhka">
            <path data-name="Rectangle 27185" transform="translate(179 632)" style="stroke:#707070;fill:#adaead" d="M0 0h160v160H0z"/>
        </clipPath>
    </defs>
    <g data-name="Mask Group 23" transform="translate(-179 -632)" style="clip-path:url(#bdi6xtkhka)">
        <g data-name="order again">
            <g data-name="032---History" transform="translate(179 632)">
                <path d="M0 122.657a14.28 14.28 0 0 0 14.262 14.262h53.912a49.941 49.941 0 0 1-4.644-31.377H59.9a11.41 11.41 0 1 1 0-22.82h13.648A51.236 51.236 0 0 1 114.1 62.755c.958 0 1.894.091 2.838.143 0-.048.014-.094.014-.143a5.7 5.7 0 0 0-5.7-5.7H59.9a5.7 5.7 0 1 0 0 11.41h8.56a2.852 2.852 0 1 1 0 5.7H59.9a11.41 11.41 0 1 1 0-22.82h51.345a11.41 11.41 0 0 1 11.41 11.41c0 .26-.054.5-.071.762a50.909 50.909 0 0 1 14.334 4.658V14.262A14.28 14.28 0 0 0 122.657 0H14.262A14.28 14.28 0 0 0 0 14.262zm59.9-102.69h51.345a11.41 11.41 0 1 1 0 22.82 2.852 2.852 0 1 1 0-5.7 5.7 5.7 0 0 0 0-11.41H59.9a5.7 5.7 0 1 0 0 11.41h37.084a2.852 2.852 0 0 1 0 5.7H59.9a11.41 11.41 0 0 1 0-22.82zm-34.23 0a11.41 11.41 0 1 1-11.41 11.41 11.41 11.41 0 0 1 11.412-11.41zm0 31.377a11.41 11.41 0 1 1-11.41 11.41 11.41 11.41 0 0 1 11.412-11.409zm0 31.377a11.41 11.41 0 1 1-11.41 11.41 11.41 11.41 0 0 1 11.412-11.409z" style="stroke-width:.286px;stroke:#adaead;fill:#adaead"/>
                <circle cx="5.705" cy="5.705" r="5.705" transform="translate(19.967 25.672)" style="stroke-width:.286px;stroke:#707070;fill:#adaead"/>
                <circle data-name="Oval" cx="5.705" cy="5.705" r="5.705" transform="translate(19.967 57.05)" style="stroke-width:.286px;stroke:#707070;fill:#adaead"/>
                <circle data-name="Oval" cx="5.705" cy="5.705" r="5.705" transform="translate(19.967 88.427)" style="stroke-width:.286px;stroke:#707070;fill:#adaead"/>
                <path data-name="Shape" d="M52.5 6.857A45.64 45.64 0 1 0 98.137 52.5 45.64 45.64 0 0 0 52.5 6.857zm0 71.312A25.672 25.672 0 1 1 78.169 52.5a2.852 2.852 0 0 1-5.7 0A19.967 19.967 0 1 0 52.5 72.464a2.852 2.852 0 0 1 0 5.7zm25.011-9.584a2.852 2.852 0 0 1-4.381 0L58.864 51.47a2.852 2.852 0 0 1 4.381-3.651L75.317 62.3l12.071-14.481a2.852 2.852 0 1 1 4.382 3.651z" transform="translate(61.602 61.602)" style="stroke-width:.286px;stroke:#adaead;fill:#adaead"/>
                <path data-name="Shape" d="M7.1 10.532a5.7 5.7 0 0 0 4.031 9.736h4.909a51.06 51.06 0 0 1 4.889-11.41h-9.8A5.657 5.657 0 0 0 7.1 10.532z" transform="translate(48.775 79.57)" style="stroke-width:.286px;stroke:#707070;fill:#adaead"/>
            </g>
        </g>
    </g>
</svg>
