<svg xmlns="http://www.w3.org/2000/svg" width="16" height="11.998" viewBox="0 0 16 11.998">
    <defs>
        <linearGradient id="vux2xnogsa" x1=".5" x2=".5" y2="1" gradientUnits="objectBoundingBox">
            <stop offset="0" stop-color="#1be7b2"/>
            <stop offset="1" stop-color="#0097ee"/>
        </linearGradient>
    </defs>
    <g data-name="Group 328">
        <path data-name="Path 1122" d="M64.353 135.764a.353.353 0 0 1-.353-.353v-7.058a.353.353 0 1 1 .706 0v7.058a.353.353 0 0 1-.353.353z" transform="translate(-61.883 -125.883)" style="fill:url(#vux2xnogsa)"/>
        <path data-name="Path 1123" d="M107.019 134.352a.353.353 0 0 1-.353-.353v-5.646a.353.353 0 1 1 .706 0V134a.353.353 0 0 1-.353.352z" transform="translate(-103.137 -125.883)" style="fill:url(#vux2xnogsa)"/>
        <path data-name="Path 1124" d="M149.686 134.352a.353.353 0 0 1-.353-.353v-5.646a.353.353 0 1 1 .706 0V134a.353.353 0 0 1-.353.352z" transform="translate(-144.451 -125.883)" style="fill:url(#vux2xnogsa)"/>
        <path data-name="Path 1125" d="M192.353 134.352A.353.353 0 0 1 192 134v-5.646a.353.353 0 0 1 .706 0V134a.353.353 0 0 1-.353.352z" transform="translate(-185.736 -125.883)" style="fill:url(#vux2xnogsa)"/>
        <path data-name="Path 1126" d="M235.019 135.764a.353.353 0 0 1-.353-.353v-7.058a.353.353 0 1 1 .706 0v7.058a.353.353 0 0 1-.353.353z" transform="translate(-227.019 -125.883)" style="fill:url(#vux2xnogsa)"/>
        <path data-name="Path 1127" d="M277.686 134.352a.353.353 0 0 1-.353-.353v-5.646a.353.353 0 0 1 .706 0V134a.353.353 0 0 1-.353.352z" transform="translate(-268.304 -125.883)" style="fill:url(#vux2xnogsa)"/>
        <path data-name="Path 1128" d="M320.353 134.352A.353.353 0 0 1 320 134v-5.646a.353.353 0 0 1 .706 0V134a.353.353 0 0 1-.353.352z" transform="translate(-309.588 -125.883)" style="fill:url(#vux2xnogsa)"/>
        <path data-name="Path 1129" d="M363.019 134.352a.353.353 0 0 1-.353-.353v-5.646a.353.353 0 0 1 .706 0V134a.353.353 0 0 1-.353.352z" transform="translate(-350.901 -125.883)" style="fill:url(#vux2xnogsa)"/>
        <path data-name="Path 1130" d="M405.686 135.764a.353.353 0 0 1-.353-.353v-7.058a.353.353 0 1 1 .706 0v7.058a.353.353 0 0 1-.353.353z" transform="translate(-392.156 -125.883)" style="fill:url(#vux2xnogsa)"/>
        <path data-name="Path 1131" d="M107.016 342.1a.287.287 0 0 1-.134-.028.25.25 0 0 1-.113-.078.341.341 0 0 1-.012-.482l.012-.012a.249.249 0 0 1 .113-.078.349.349 0 0 1 .381.078.353.353 0 0 1-.247.6z" transform="translate(-103.135 -332.216)" style="fill:url(#vux2xnogsa)"/>
        <path data-name="Path 1132" d="M149.683 342.081a.286.286 0 0 1-.134-.028.25.25 0 0 1-.113-.078.341.341 0 0 1-.012-.482l.012-.012a.25.25 0 0 1 .113-.078.346.346 0 0 1 .381.078.25.25 0 0 1 .078.113.333.333 0 0 1 0 .268.247.247 0 0 1-.078.113.331.331 0 0 1-.247.106z" transform="translate(-144.449 -332.201)" style="fill:url(#vux2xnogsa)"/>
        <path data-name="Path 1133" d="M192.35 342.081a.286.286 0 0 1-.134-.028.25.25 0 0 1-.113-.078.341.341 0 0 1-.012-.482l.012-.012a.249.249 0 0 1 .113-.078.346.346 0 0 1 .381.078.25.25 0 0 1 .078.113.333.333 0 0 1 0 .268.247.247 0 0 1-.078.113.331.331 0 0 1-.247.106z" transform="translate(-185.733 -332.201)" style="fill:url(#vux2xnogsa)"/>
        <path data-name="Path 1134" d="M277.831 342.186a.351.351 0 1 1 .247-.6.25.25 0 0 1 .078.113.333.333 0 0 1 0 .268.246.246 0 0 1-.078.113.33.33 0 0 1-.247.106z" transform="translate(-268.449 -332.305)" style="fill:url(#vux2xnogsa)"/>
        <path data-name="Path 1135" d="M320.5 342.185a.353.353 0 1 1 .242-.1.353.353 0 0 1-.242.1z" transform="translate(-309.733 -332.305)" style="fill:url(#vux2xnogsa)"/>
        <path data-name="Path 1136" d="M363.018 342.185a.33.33 0 0 1-.247-.106.246.246 0 0 1-.078-.113.332.332 0 0 1 0-.268.249.249 0 0 1 .078-.113.349.349 0 1 1 .247.6z" transform="translate(-350.901 -332.305)" style="fill:url(#vux2xnogsa)"/>
    </g>
    <g data-name="Group 329">
        <path data-name="Path 1137" d="M.353 66.823A.353.353 0 0 1 0 66.47v-2.117A.353.353 0 0 1 .353 64H2.47a.353.353 0 1 1 0 .706H.706v1.764a.353.353 0 0 1-.353.353z" transform="translate(0 -64)" style="fill:url(#vux2xnogsa)"/>
        <path data-name="Path 1138" d="M2.47 344.156H.353A.353.353 0 0 1 0 343.8v-2.117a.353.353 0 1 1 .706 0v1.764H2.47a.353.353 0 0 1 0 .706z" transform="translate(0 -332.158)" style="fill:url(#vux2xnogsa)"/>
        <path data-name="Path 1139" d="M407.8 66.823a.353.353 0 0 1-.353-.353v-1.764h-1.764a.353.353 0 1 1 0-.706h2.117a.353.353 0 0 1 .353.353v2.117a.353.353 0 0 1-.353.353z" transform="translate(-392.156 -64)" style="fill:url(#vux2xnogsa)"/>
        <path data-name="Path 1140" d="M407.8 344.156h-2.117a.353.353 0 1 1 0-.706h1.764v-1.764a.353.353 0 0 1 .706 0v2.114a.353.353 0 0 1-.353.356z" transform="translate(-392.156 -332.158)" style="fill:url(#vux2xnogsa)"/>
    </g>
    <path data-name="Path 1141" d="M64.353 135.764a.353.353 0 0 1-.353-.353v-7.058a.353.353 0 1 1 .706 0v7.058a.353.353 0 0 1-.353.353z" transform="translate(-61.883 -125.883)" style="fill:url(#vux2xnogsa)"/>
    <path data-name="Path 1142" d="M107.019 134.352a.353.353 0 0 1-.353-.353v-5.646a.353.353 0 1 1 .706 0V134a.353.353 0 0 1-.353.352z" transform="translate(-103.19 -125.883)" style="fill:url(#vux2xnogsa)"/>
    <path data-name="Path 1143" d="M149.686 134.352a.353.353 0 0 1-.353-.353v-5.646a.353.353 0 1 1 .706 0V134a.353.353 0 0 1-.353.352z" transform="translate(-144.467 -125.883)" style="fill:url(#vux2xnogsa)"/>
    <path data-name="Path 1144" d="M192.353 134.352A.353.353 0 0 1 192 134v-5.646a.353.353 0 0 1 .706 0V134a.353.353 0 0 1-.353.352z" transform="translate(-185.743 -125.883)" style="fill:url(#vux2xnogsa)"/>
    <path data-name="Path 1145" d="M235.019 135.764a.353.353 0 0 1-.353-.353v-7.058a.353.353 0 1 1 .706 0v7.058a.353.353 0 0 1-.353.353z" transform="translate(-227.019 -125.883)" style="fill:url(#vux2xnogsa)"/>
    <path data-name="Path 1146" d="M277.686 134.352a.353.353 0 0 1-.353-.353v-5.646a.353.353 0 0 1 .706 0V134a.353.353 0 0 1-.353.352z" transform="translate(-268.296 -125.883)" style="fill:url(#vux2xnogsa)"/>
    <path data-name="Path 1147" d="M320.353 134.352A.353.353 0 0 1 320 134v-5.646a.353.353 0 0 1 .706 0V134a.353.353 0 0 1-.353.352z" transform="translate(-309.572 -125.883)" style="fill:url(#vux2xnogsa)"/>
    <path data-name="Path 1148" d="M363.019 134.352a.353.353 0 0 1-.353-.353v-5.646a.353.353 0 0 1 .706 0V134a.353.353 0 0 1-.353.352z" transform="translate(-350.848 -125.883)" style="fill:url(#vux2xnogsa)"/>
    <path data-name="Path 1149" d="M405.686 135.764a.353.353 0 0 1-.353-.353v-7.058a.353.353 0 1 1 .706 0v7.058a.353.353 0 0 1-.353.353z" transform="translate(-392.156 -125.883)" style="fill:url(#vux2xnogsa)"/>
    <path data-name="Path 1150" d="M107.026 342.091a.29.29 0 0 1-.134-.028.252.252 0 0 1-.113-.078.342.342 0 0 1-.011-.483l.011-.011a.252.252 0 0 1 .113-.078.353.353 0 0 1 .268 0 .248.248 0 0 1 .113.078.353.353 0 0 1-.247.6z" transform="translate(-103.197 -332.21)" style="fill:url(#vux2xnogsa)"/>
    <path data-name="Path 1151" d="M149.811 342.073a.353.353 0 0 1-.248-.6.344.344 0 0 1 .381-.078.247.247 0 0 1 .113.078.353.353 0 0 1-.246.6z" transform="translate(-144.592 -332.192)" style="fill:url(#vux2xnogsa)"/>
    <path data-name="Path 1152" d="M192.478 342.1a.353.353 0 0 1-.248-.6.252.252 0 0 1 .113-.078.349.349 0 0 1 .381.078.353.353 0 0 1-.247.6z" transform="translate(-185.868 -332.214)" style="fill:url(#vux2xnogsa)"/>
    <path data-name="Path 1153" d="M277.693 342.091a.309.309 0 0 1-.134-.028.252.252 0 0 1-.113-.078.342.342 0 0 1-.011-.483l.011-.011a.252.252 0 0 1 .113-.078.353.353 0 0 1 .268 0 .248.248 0 0 1 .113.078.353.353 0 0 1-.247.6z" transform="translate(-268.302 -332.21)" style="fill:url(#vux2xnogsa)"/>
    <path data-name="Path 1154" d="M320.36 342.185a.309.309 0 0 1-.134-.028.252.252 0 0 1-.113-.078.342.342 0 0 1-.011-.483l.011-.011a.353.353 0 0 1 .494 0 .34.34 0 0 1 .013.481l-.013.013a.249.249 0 0 1-.113.078.307.307 0 0 1-.134.028z" transform="translate(-309.579 -332.304)" style="fill:url(#vux2xnogsa)"/>
    <path data-name="Path 1155" d="M363.014 342.1a.309.309 0 0 1-.134-.028.252.252 0 0 1-.113-.078.331.331 0 0 1-.106-.247.282.282 0 0 1 .028-.134.248.248 0 0 1 .077-.113.251.251 0 0 1 .113-.078.349.349 0 0 1 .381.078.256.256 0 0 1 .078.113.283.283 0 0 1 .028.134.363.363 0 0 1-.353.353z" transform="translate(-350.843 -332.215)" style="fill:url(#vux2xnogsa)"/>
    <path data-name="Path 1156" d="M.353 66.823A.353.353 0 0 1 0 66.47v-2.117A.353.353 0 0 1 .353 64H2.47a.353.353 0 1 1 0 .706H.706v1.764a.353.353 0 0 1-.353.353z" transform="translate(0 -64)" style="fill:url(#vux2xnogsa)"/>
    <path data-name="Path 1157" d="M2.47 344.156H.353A.353.353 0 0 1 0 343.8v-2.117a.353.353 0 1 1 .706 0v1.764H2.47a.353.353 0 0 1 0 .706z" transform="translate(0 -332.158)" style="fill:url(#vux2xnogsa)"/>
    <path data-name="Path 1158" d="M407.8 66.823a.353.353 0 0 1-.353-.353v-1.764h-1.764a.353.353 0 1 1 0-.706h2.117a.353.353 0 0 1 .353.353v2.117a.353.353 0 0 1-.353.353z" transform="translate(-392.156 -64)" style="fill:url(#vux2xnogsa)"/>
    <path data-name="Path 1159" d="M407.8 344.156h-2.117a.353.353 0 1 1 0-.706h1.764v-1.764a.353.353 0 0 1 .706 0v2.114a.353.353 0 0 1-.353.356z" transform="translate(-392.156 -332.158)" style="fill:url(#vux2xnogsa)"/>
</svg>
