<svg height="657.977" viewBox="0 0 308 657.977" width="308" xmlns="http://www.w3.org/2000/svg"><g opacity=".1" transform="translate(0 -16.721)"><g fill="#fff"><path d="m2162.653 1105.513-13.792-.719c-2.537-3-1.482-6.251-1.667-9.234-.164-2.619-.036-5.262-.036-8.594l13.552-.882c3.371-3.321.276-8.338 2.926-12.313 4.384-2.561 9.43-.692 14.289-1.3 2.733 4.075.962 8.649 2.441 13.282l13.125 1.5c2.345 5.881.863 11.175 1.106 17.2l-13.862 1.073c-2.056 5.809.92 11.538-2.3 17.215-4.612 1.757-9.809 1.1-15.774.571z" transform="translate(-1886.837 -709.832)"/><path d="m1745.5 1313.82 22.195-.35a1.341 1.341 0 0 1 .841 1.36c-.026 1.094-.786 22.283-.786 22.283a9.75 9.75 0 0 1 -.9 3.652c-.87 1.748-7.758 18.187-21.354 20.063-14.008 1.936-21.438-13.239-22.383-14.85a8.408 8.408 0 0 1 -.986-3.6s-.838-22.1-.87-23.249a1.761 1.761 0 0 1 .925-1.595z" fill-rule="evenodd" transform="translate(-1673.842 -974.691)"/><path d="m1750.064 1321.241-22.375 3.621c.2 7.424.58 14.86.835 22.267a5.572 5.572 0 0 0 .644 2.345c.635 1.085 1.2 2.154 1.884 3.208a32.085 32.085 0 0 0 4.149 5.2c4.288 4.306 9.291 6.429 14.863 5.672 5.508-.744 10.341-4.137 14.4-9.4a44.189 44.189 0 0 0 3.865-6c.629-1.166 1.159-2.317 1.739-3.5a6.456 6.456 0 0 0 .58-2.383c.232-7.133.58-14.306.765-21.426z" fill-rule="evenodd" transform="translate(-1678.655 -979.763)"/></g><path d="m1728.849 1355.555c.116 2.9.244 5.788.357 8.681l20.647-12.746zm.467 11.654.032.979a5.577 5.577 0 0 0 .644 2.345c.635 1.085 1.2 2.154 1.884 3.208a32.1 32.1 0 0 0 4.149 5.2c4.288 4.306 9.291 6.429 14.863 5.672 5.508-.744 10.341-4.137 14.4-9.4a44.107 44.107 0 0 0 3.865-6c.629-1.166 1.159-2.317 1.739-3.5a4.512 4.512 0 0 0 .243-.594s-3.4 5.453-15.42 6.926c-12.341 1.513-26.381-4.841-26.381-4.841zm42.224-5.866c.072-2.045.154-4.09.232-6.138l-14.594.153z" fill="#e6e6e6" fill-rule="evenodd" transform="translate(-1679.503 -1000.822)"/><path d="m1559.874 484.378h-3.733c0-9.5-5.772-17.218-12.871-17.218s-12.867 7.722-12.867 17.218h-3.713c-6.449.019-11.672 5.653-11.69 12.609v21.649c.018 6.956 5.241 12.59 11.69 12.609h33.2c6.449-.019 11.672-5.653 11.69-12.609v-21.649c-.014-6.964-5.249-12.602-11.706-12.609zm-16.6-13.866c5.385 0 9.763 6.222 9.763 13.866h-19.527c0-7.644 4.378-13.866 9.76-13.866zm14.689 40.65h-10.626v12.5h-8.123v-12.5h-10.63v-8.762h10.63v-10.435h8.123v10.435h10.626z" fill="#fff" transform="translate(-1515 -355.006)"/><path d="m1555.291 949.34s5.409 6.056 18.084 7.819c12.136 1.69 15.8-2.113 15.8-2.113s7.325 46.9-33.885 72.7c-41.214-25.78-33.884-72.7-33.884-72.7s3.66 3.8 15.8 2.113c12.676-1.759 18.085-7.819 18.085-7.819z" fill="#fff" opacity=".8" transform="translate(-1360.103 -771.487)"/><path d="m1537.2 957.159c-12.136 1.69-15.8-2.113-15.8-2.113s-7.33 46.9 33.885 72.7v-78.4s-5.403 6.054-18.085 7.813z" fill="#fff" opacity=".8" transform="translate(-1360.103 -771.487)"/><path d="m1542.193 949.81c.9.877 4.58 4.03 11.949 5.057a28.813 28.813 0 0 0 3.887.3c3.711 0 5.616-.919 6.4-1.437a54.02 54.02 0 0 1 -1.05 17.033 48.693 48.693 0 0 1 -6.4 15.663 46.878 46.878 0 0 1 -14.8 14.545 46.934 46.934 0 0 1 -14.778-14.533 48.594 48.594 0 0 1 -6.401-15.638 54.044 54.044 0 0 1 -1.056-17.057c.779.518 2.686 1.437 6.4 1.437a28.755 28.755 0 0 0 3.887-.3c7.372-1.027 11.053-4.181 11.952-5.057m0-.449s-3.585 4.015-11.991 5.184a28.193 28.193 0 0 1 -3.848.3c-5 0-6.624-1.687-6.624-1.687s-4.859 31.093 22.463 48.193c27.319-17.09 22.463-48.193 22.463-48.193s-1.628 1.687-6.627 1.687a28.267 28.267 0 0 1 -3.848-.3c-8.4-1.169-11.988-5.184-11.988-5.184z" fill="#e6e6e6" transform="translate(-1336.935 -758.31)"/><path d="m1612.216 1137.611h-11.892v-12.831h-8.459v12.831h-11.9v9.124h11.9v12.827h8.459v-12.827h11.892z" fill="#e6e6e6" transform="translate(-1401.366 -923.75)"/><path d="m1842.394 176.164a17.5 17.5 0 0 0 .268-23.422 14.578 14.578 0 0 0 -21.715-.289l-19.167 20.147 21.446 23.711z" fill="#fff" transform="translate(-1672.488 -131.025)"/><path d="m1778.074 193.08-20.106 21.133a17.5 17.5 0 0 0 -.268 23.422 14.578 14.578 0 0 0 21.715.289l20.105-21.124-11.62-12.846z" fill="#fff" transform="translate(-1642.335 -149.049)"/><path d="m2229.228 424.24v-4.331c-1.083-13.018-9.466-19.765-16.693-20.452q-1.777-.163-3.351-.157c-8.344.048-12.326 3.777-16.883 9.416-4.607-5.584-8.628-9.271-16.974-9.223a32.054 32.054 0 0 0 -3.351.2c-7.215.765-15.532 7.6-16.487 20.632v4.337c1.005 12.458 10.232 27.777 37.084 46.916 26.686-19.447 35.767-34.869 36.655-47.338z" fill="#fff" transform="translate(-1925.914 -309.526)"/></g><g fill="#fff"><path d="m2001.938 731.478c1.542 5.464 5.217 7.7 8.936 9.036 6.378 2.277 8.824 7.3 10.053 13.7a45.054 45.054 0 0 1 .642 11.964c-.8 10.175-.625 20.356-.592 30.542 0 7.6-1.876 9.638-9.137 9.638-15.794.042-31.582 0-47.377 0-2.323 0-4.658.126-6.965-.054-5.133-.4-7.132-2.723-7.126-8.253 0-10.844.218-21.687-.626-32.53a43.055 43.055 0 0 1 1-12.928c1.3-5.681 3.876-9.9 9.427-11.922 3.909-1.416 7.562-3.8 9.3-9.078-4.725-.675-3.954-3.964-3.742-7.482a126.547 126.547 0 0 0 -.095-16.006c-.185-2.747.559-3.686 2.92-3.681h34.376c2.078 0 3.022.777 2.793 3.343a86.55 86.55 0 0 0 .145 18.47c.374 3.042-.938 4.699-3.932 5.241zm3.457 27.638h-50.3c-1.988 0-2.754.976-2.748 3.012v27.651h52.985c-.127-10.307.879-20.247.068-30.662zm-52.342-3.217h51.856c.955-3.651-1.117-4.97-3.351-6.386-4.5-2.862-5.289-4.783-3.658-9.2 1.418 7.151 10.421 7.307 10.734 15.1 0 .265 1.044.681 1.6.681 2.569 0 5.189.464 8.087-.464-.872-5.711-2.441-10.151-8.065-12.289-4.663-1.777-9.042-4.6-10.684-10.283-.614-2.133-2.061-2.181-3.658-2.175h-20.391c-1.558 0-3.116-.115-3.726 2.048-1.608 5.717-5.97 8.56-10.612 10.355-5.585 2.15-7.439 6.397-8.132 12.614zm51.683 37.548h-51.309c-1.2 8.717-.089 10.175 7.629 10.187h49.707c7.26 0 8.936-2.609 6.769-10.319-3.027-.151-6.088-.524-9.048.253-1.564 6.091-1.564 6.091-5.339 6.536-.464-2.463 3.172-3.512 1.591-6.656z" opacity=".1" transform="translate(-1832.17 -148.43)"/><path d="m2160.789 1101.538-12.138-.633c-2.232-2.643-1.3-5.5-1.468-8.126-.144-2.3-.031-4.631-.031-7.562l11.926-.777c2.967-2.923.243-7.337 2.575-10.835 3.858-2.253 8.3-.609 12.574-1.148 2.405 3.587.847 7.611 2.148 11.688l11.55 1.321c2.063 5.176.759 9.834.973 15.135l-12.2.944c-1.809 5.112.81 10.154-2.027 15.15-4.059 1.547-8.632.965-13.882.5z" opacity=".1" transform="translate(-2093.111 -536.375)"/></g></svg>