<svg xmlns="http://www.w3.org/2000/svg" width="20" height="18"><g data-name="sort by"><g data-name="Group 356"><g data-name="Group 355"><g data-name="Group 354" fill="#1b69c7"><path data-name="Path 470" d="M1.06 5.063h10.68v-2.12H1.06a1.06 1.06 0 000 2.12z"/><path data-name="Path 471" d="M1.06 9.491h10.68v-2.12H1.06a1.06 1.06 0 000 2.12z"/><path data-name="Path 472" d="M1.06 11.8a1.06 1.06 0 000 2.12h7.42a2.619 2.619 0 01.224-2.12z"/><path data-name="Path 473" d="M19.607 12.118a1.307 1.307 0 00-1.9 0l-1.1 1.14V1.391a1.341 1.341 0 10-2.681 0v11.87l-1.1-1.14a1.307 1.307 0 00-1.9 0 1.425 1.425 0 000 1.964l3.388 3.511a1.308 1.308 0 001.9 0l3.388-3.511a1.425 1.425 0 00.005-1.967z"/></g></g></g></g></svg>