<svg enable-background="new 0 0 371.117 371.117" viewBox="0 0 371.117 371.117" xmlns="http://www.w3.org/2000/svg"><path d="m316.33 64.556c-34.982-27.607-81.424-42.811-130.772-42.811s-95.79 15.204-130.771 42.811c-35.33 27.882-54.787 65.059-54.787 104.682 0 23.835 7.308 47.508 21.133 68.46 12.759 19.335 31.07 36.42 53.088 49.564-1.016 7.116-6.487 27.941-35.888 52.759-1.513 1.278-2.13 3.328-1.572 5.229.558 1.9 2.185 3.292 4.148 3.55.178.023 4.454.572 12.052.572 21.665 0 65.939-4.302 120.063-32.973 4.177.221 8.387.333 12.534.333 49.348 0 95.789-15.204 130.772-42.811 35.33-27.882 54.787-65.059 54.787-104.683 0-39.623-19.457-76.8-54.787-104.682z"/></svg>