<svg height="37" viewBox="0 0 40 37" width="40" xmlns="http://www.w3.org/2000/svg"><g fill="#2675ec"><path d="m32.531 28.174a11.728 11.728 0 0 0 -3.611-6.7 11.475 11.475 0 0 0 -14.1-1.2 11.617 11.617 0 0 0 -3.759 4 6.56 6.56 0 0 0 -1.217-.117 6.389 6.389 0 0 0 -6.344 6.423 7.1 7.1 0 0 0 .132 1.332 8.967 8.967 0 0 0 -3.632 7.202 9.616 9.616 0 0 0 2.394 6.319 8.507 8.507 0 0 0 5.922 3.014h7.14a1.124 1.124 0 0 0 0-2.248h-7.041c-3.364-.208-6.194-3.447-6.194-7.093a6.689 6.689 0 0 1 3.265-5.745 1.14 1.14 0 0 0 .486-1.361 4.187 4.187 0 0 1 3.874-5.6 4.007 4.007 0 0 1 1.407.25 1.11 1.11 0 0 0 1.39-.574 9.339 9.339 0 0 1 17.791 3.114 1.117 1.117 0 0 0 .921 1 8.117 8.117 0 0 1 -.757 16h-6.062a1.124 1.124 0 0 0 0 2.248h6.185a9.8 9.8 0 0 0 6.6-3.3 10.417 10.417 0 0 0 -4.787-16.968z" transform="translate(0 -18.4)"/><path d="m171.25 192.824a1.056 1.056 0 0 0 0-1.5l-5.611-5.611a1.072 1.072 0 0 0 -.746-.314 1.039 1.039 0 0 0 -.746.314l-5.611 5.611a1.063 1.063 0 0 0 .746 1.813 1.034 1.034 0 0 0 .746-.314l3.806-3.806v17.493a1.059 1.059 0 1 0 2.119 0v-17.492l3.806 3.806a1.047 1.047 0 0 0 1.491 0z" transform="translate(-144.889 -170.569)"/></g></svg>