<svg height="20" viewBox="0 0 20 20" width="20" xmlns="http://www.w3.org/2000/svg" xmlns:xlink="http://www.w3.org/1999/xlink"><linearGradient id="a" gradientUnits="objectBoundingBox" x1=".5" x2=".5" y2="1"><stop offset="0" stop-color="#0097ee"/><stop offset="1" stop-color="#1be7b2"/></linearGradient><g fill="url(#a)"><path d="m18.8 28.478h-15.6a2.2 2.2 0 0 1 -2.2-2.2v-12.345a2.2 2.2 0 0 1 2.2-2.2h3.333a.3.3 0 1 1 0 .606h-3.333a1.6 1.6 0 0 0 -1.594 1.6v12.336a1.6 1.6 0 0 0 1.591 1.6h15.603a1.6 1.6 0 0 0 1.594-1.6v-12.342a1.6 1.6 0 0 0 -1.6-1.6h-3.33a.3.3 0 1 1 0-.606h3.336a2.206 2.206 0 0 1 2.2 2.2v12.348a2.206 2.206 0 0 1 -2.2 2.2z" transform="translate(-1 -8.478)"/><path d="m21.5 30.415h-14.03a1.476 1.476 0 0 1 -1.47-1.472v-10.909a1.342 1.342 0 0 1 2.667-.209 5.891 5.891 0 0 0 11.639 0 1.342 1.342 0 0 1 2.67.209v10.909a1.476 1.476 0 0 1 -1.476 1.472zm-14.161-13.109a.736.736 0 0 0 -.733.736v10.91a.867.867 0 0 0 .864.858h14.03a.867.867 0 0 0 .864-.867v-10.909a.739.739 0 0 0 -1.467-.115 6.5 6.5 0 0 1 -12.833 0 .733.733 0 0 0 -.725-.613z" transform="translate(-4.485 -11.931)"/><path d="m22.535 10.97a4.985 4.985 0 1 1 4.985-4.985 4.985 4.985 0 0 1 -4.985 4.985zm0-9.364a4.379 4.379 0 1 0 4.379 4.379 4.379 4.379 0 0 0 -4.379-4.379z" transform="translate(-12.535 -1)"/><path d="m33.3 5.933a.3.3 0 0 1 -.3-.3v-.733a.3.3 0 1 1 .606 0v.73a.3.3 0 0 1 -.306.303z" transform="translate(-23.303 -3.509)"/><path d="m27.748 7.43a.3.3 0 0 1 -.261-.152l-.37-.642a.3.3 0 0 1 .524-.3l.37.642a.3.3 0 0 1 -.264.455z" transform="translate(-19.175 -4.612)"/><path d="m23.671 11.487a.3.3 0 0 1 -.152-.039l-.642-.37a.305.305 0 0 1 .3-.53l.642.37a.306.306 0 0 1 -.152.57z" transform="translate(-16.141 -7.626)"/><path d="m22.192 17.056h-.739a.3.3 0 0 1 0-.606h.739a.3.3 0 0 1 0 .606z" transform="translate(-15.044 -11.768)"/><path d="m23.04 22.128a.3.3 0 0 1 -.152-.564l.642-.37a.3.3 0 1 1 .3.518l-.642.37a.3.3 0 0 1 -.148.046z" transform="translate(-16.152 -15.046)"/><path d="m42.087 22.117a.3.3 0 0 1 -.152-.039l-.642-.376a.3.3 0 0 1 .3-.524l.642.37a.306.306 0 0 1 -.152.57z" transform="translate(-28.978 -15.035)"/><path d="m43.445 17.056h-.745a.3.3 0 1 1 0-.606h.742a.3.3 0 0 1 0 .606z" transform="translate(-29.855 -11.768)"/><path d="m41.45 11.5a.3.3 0 0 1 -.152-.564l.642-.37a.3.3 0 1 1 .3.524l-.642.37a.3.3 0 0 1 -.148.04z" transform="translate(-28.983 -7.637)"/><path d="m38 7.454a.3.3 0 0 1 -.263-.454l.373-.642a.3.3 0 0 1 .524.3l-.37.642a.3.3 0 0 1 -.264.154z" transform="translate(-26.576 -4.636)"/><path d="m32.028 16.335a.858.858 0 1 1 .858-.858.858.858 0 0 1 -.858.858zm0-1.109a.252.252 0 1 0 .252.252.252.252 0 0 0 -.252-.252z" transform="translate(-22.028 -10.493)"/><path d="m34.6 13.445a.3.3 0 0 1 -.215-.515l1.006-1.006a.3.3 0 0 1 .43.427l-1.006 1.006a.3.3 0 0 1 -.215.088z" transform="translate(-24.205 -8.551)"/></g></svg>