<svg xmlns="http://www.w3.org/2000/svg" width="24" height="24" viewBox="0 0 24 24">
    <defs>
        <linearGradient id="j9730csvla" x1=".04" y1=".063" x2=".964" y2="1" gradientUnits="objectBoundingBox">
            <stop offset="0" stop-color="#0097ee"/>
            <stop offset="1" stop-color="#1be7b2"/>
        </linearGradient>
    </defs>
    <path data-name="Path 120" d="M24.041.043h-10.4V0l-.4.043h-1.6L11.244 0v.043H.841a.4.4 0 0 0-.4.393v23.171a.4.4 0 0 0 .4.393h23.2a.4.4 0 0 0 .4-.393V.436a.4.4 0 0 0-.4-.393zm-.4.785v21.064l-1.16-4.838a.749.749 0 0 0 .055-.054.773.773 0 0 0 .108-.707l-.61-1.8-.7-7.255a1.548 1.548 0 0 0-.11-2.667 1.587 1.587 0 0 0-1.581-1.386H14L13.734.829zm-18.8 4.32a.786.786 0 1 1-.8.785.793.793 0 0 1 .8-.784zm-.8 9.465.69-7.113c.038 0 .074.011.113.011a1.64 1.64 0 0 0 .292-.029l-.694 7.453a.384.384 0 0 0 .006.113l.3 1.492H3.393l.627-1.84a.368.368 0 0 0 .021-.086zm-.483 2.71h.778l-1.411 5.892h-.779zm1.632-.133a.766.766 0 0 0 .347-.809l-.292-1.437.732-7.906a1.544 1.544 0 0 0 .36-1.659 1.59 1.59 0 0 0-1.39-1.005.8.8 0 0 1 .695-.4h2.8v.577l-.9.22a.394.394 0 0 0-.3.381v1.23l-.622.407a.391.391 0 0 0-.178.327v1.567a.372.372 0 0 0 .009.064l-.342.5a.389.389 0 0 0-.067.218v1.575a.393.393 0 0 0 .273.372l.08.026-.309.6a.382.382 0 0 0-.044.176V13.4a.4.4 0 0 0 .4.393.286.286 0 0 0 .04 0l.331-.033-.328.645a.386.386 0 0 0 0 .351l.8 1.571a.4.4 0 0 0 .266.207.417.417 0 0 0 .091.01.4.4 0 0 0 .24-.078l1.548-1.139 1.138-.373-.253-.746-1.2.393a.393.393 0 0 0-.115.052l-1.217.9-.5-.974.465-.912 2.708-.266h.38a.373.373 0 0 0 .021.124l.338 1-.691 1.018a.387.387 0 0 0-.046.342l.358 1.054-.266.782a2.434 2.434 0 0 0-2.479-.094 2.333 2.333 0 0 0 .1 4.167l.208 1.429H3.746zm13.251-4.879v.653l-3.56-.35a.149.149 0 0 0-.04 0H13.8l-.133-.393.125-.368 2.6.364a.374.374 0 0 0 .057 0 .4.4 0 0 0 .126-.02l1.555-.511zm-4.816 5.814-.3 1.162h-1.771l-.3-1.162.272-.8h1.823zm-6.784-5.161v-.653l.32-.622 1.556.51a.408.408 0 0 0 .124.019.373.373 0 0 0 .057 0l2.215-.311.107.314-.133.393h-.645a.281.281 0 0 0-.04 0zM8.5 5.345a.393.393 0 0 0 .232.184l2.155.6-.024.072a.378.378 0 0 0 0 .248l.256.757-1.4.275-1.485-.871-.193-.283v-.871zm3.53-.289-.276-1.085h1.375l-.276 1.083a.379.379 0 0 0 .009.219l.358 1.054-.358 1.054a.378.378 0 0 0 0 .248l.358 1.054-.358 1.054a.378.378 0 0 0 0 .248l.358 1.054-.358 1.054a.378.378 0 0 0 0 .248l.358 1.059-.358 1.054a.387.387 0 0 0 .046.342l.692 1.014-.248.728H11.53l-.248-.728.691-1.018a.386.386 0 0 0 .046-.342l-.356-1.05.358-1.054a.375.375 0 0 0 0-.248l-.358-1.054.358-1.054a.375.375 0 0 0 0-.248l-.358-1.054.358-1.054a.375.375 0 0 0 0-.248l-.358-1.054.358-1.054a.379.379 0 0 0 .009-.219zm6.412 4.531v1.169l-2.037.668-2.371-.333a.376.376 0 0 0-.012-.175l-.354-1.045 2.31.378a.4.4 0 0 0 .244-.036l1.978-.975zm-11.6 1.17v-1.17l.237-.349 1.984.977a.4.4 0 0 0 .245.036l1.886-.309-.331.976a.378.378 0 0 0 0 .23l-1.981.278zm.706-3.635 1.887 1.112a.4.4 0 0 0 .284.048l1.324-.26-.182.536a.378.378 0 0 0 0 .248l.126.37-1.687.277-1.775-.873.049-.072-.333-.218v-.967zm10.16 1.386.049.072-1.777.873-2.063-.338.1-.308a.375.375 0 0 0 0-.248l-.21-.621 1.753.344a.4.4 0 0 0 .284-.048l1.888-1.112.306.2v.968zm-.466-2.182-.193.284-1.48.872-1.779-.349.232-.683a.378.378 0 0 0 .006-.216l2.525-.707a.393.393 0 0 0 .232-.184l.458.111zm-1.2-1.571-.027.1-2.237.628-.12-.353.3-1.165h2.088zm-2.848-1.57h-1.506l.267-2.356h.973zm-2.265.785.3 1.162-.086.252-1.875-.524-.026-.1v-.789zM8.837 20.8l-.616.087A1.554 1.554 0 0 1 7.7 19.23a1.611 1.611 0 0 1 2.928-.325l.222.87a.4.4 0 0 0 .388.3h2.4a.4.4 0 0 0 .388-.3l.258-1.013.273.268a.4.4 0 0 0 .075-.1 1.611 1.611 0 0 1 2.936.3 1.553 1.553 0 0 1-.51 1.666l-.616-.087-.351 2.412H9.188zm8.273.982a2.336 2.336 0 0 0-.146-4.282 2.43 2.43 0 0 0-2.554.454l-.348-1.026.358-1.054a.387.387 0 0 0-.046-.342l-.693-1.018.338-1a.378.378 0 0 0 .022-.124h.78l2.708.266.465.912-.5.974-1.217-.9a.394.394 0 0 0-.113-.058l-1.2-.393-.253.746 1.138.373 1.551 1.15a.4.4 0 0 0 .24.078.422.422 0 0 0 .092-.01.4.4 0 0 0 .268-.207l.8-1.571a.386.386 0 0 0 0-.351l-.329-.645.331.033h.04a.4.4 0 0 0 .4-.393v-1.176a.386.386 0 0 0-.042-.176l-.309-.6.08-.026a.394.394 0 0 0 .271-.372V9.469a.392.392 0 0 0-.067-.218l-.342-.5a.393.393 0 0 0 .009-.064V7.112a.391.391 0 0 0-.178-.327l-.622-.407V5.149a.394.394 0 0 0-.3-.381l-.9-.22v-.577h2.8a.8.8 0 0 1 .694.4 1.59 1.59 0 0 0-1.391 1.009 1.544 1.544 0 0 0 .36 1.659l.732 7.908-.293 1.439a.765.765 0 0 0 .348.806l1.444 6.024H16.9zm4.133-7.171a.369.369 0 0 0 .019.087l.623 1.837H20.53l.3-1.492a.381.381 0 0 0 .008-.114l-.692-7.455a1.62 1.62 0 0 0 .292.029c.04 0 .075-.009.112-.011zm-1.6-8.68a.8.8 0 1 1 .8.785.793.793 0 0 1-.802-.782zm1.305 11.389h.778l1.412 5.891h-.778zM1.241.829h9.909l-.269 2.356h-5.24A1.587 1.587 0 0 0 4.06 4.571a1.548 1.548 0 0 0-.11 2.667l-.7 7.254-.609 1.793a.774.774 0 0 0 .107.71.751.751 0 0 0 .055.059l-1.476 6.16h-.086zm0 0" transform="translate(-.441)" style="fill:url(#j9730csvla)"/>
</svg>
